<?xml version="1.0" encoding="UTF-8" standalone="no"?>
<!-- Created with Inkscape (http://www.inkscape.org/) -->

<svg
   width="1000"
   height="649.66699"
   viewBox="0 0 1000 649.66699"
   version="1.1"
   id="svg1"
   inkscape:version="1.4.2 (ebf0e940d0, 2025-05-08)"
   sodipodi:docname="logo.svg"
   inkscape:export-filename="logo.png"
   inkscape:export-xdpi="96"
   inkscape:export-ydpi="96"
   xmlns:inkscape="http://www.inkscape.org/namespaces/inkscape"
   xmlns:sodipodi="http://sodipodi.sourceforge.net/DTD/sodipodi-0.dtd"
   xmlns="http://www.w3.org/2000/svg"
   xmlns:svg="http://www.w3.org/2000/svg">
  <sodipodi:namedview
     id="namedview1"
     pagecolor="#ffffff"
     bordercolor="#000000"
     borderopacity="0.25"
     inkscape:showpageshadow="2"
     inkscape:pageopacity="0.0"
     inkscape:pagecheckerboard="0"
     inkscape:deskcolor="#d1d1d1"
     inkscape:document-units="px"
     inkscape:zoom="0.49953305"
     inkscape:cx="719.67211"
     inkscape:cy="253.2365"
     inkscape:window-width="1920"
     inkscape:window-height="1011"
     inkscape:window-x="0"
     inkscape:window-y="0"
     inkscape:window-maximized="1"
     inkscape:current-layer="svg1" />
  <defs
     id="defs1">
    <clipPath
       clipPathUnits="userSpaceOnUse"
       id="clipPath2495">
      <path
         d="M 0,1950.007 H 595.276 V 0 H 0 Z"
         transform="translate(-371.59721,-1819.6171)"
         id="path2495" />
    </clipPath>
    <clipPath
       clipPathUnits="userSpaceOnUse"
       id="clipPath2497">
      <path
         d="M 0,1950.007 H 595.276 V 0 H 0 Z"
         transform="translate(-330.89051,-1807.5084)"
         id="path2497" />
    </clipPath>
    <clipPath
       clipPathUnits="userSpaceOnUse"
       id="clipPath2499">
      <path
         d="M 0,1950.007 H 595.276 V 0 H 0 Z"
         transform="translate(-300.85421,-1807.5084)"
         id="path2499" />
    </clipPath>
    <clipPath
       clipPathUnits="userSpaceOnUse"
       id="clipPath2501">
      <path
         d="M 0,1950.007 H 595.276 V 0 H 0 Z"
         transform="translate(-260.26041,-1828.6122)"
         id="path2501" />
    </clipPath>
    <clipPath
       clipPathUnits="userSpaceOnUse"
       id="clipPath2503">
      <path
         d="M 0,1950.007 H 595.276 V 0 H 0 Z"
         transform="translate(0,-2.5000001e-5)"
         id="path2503" />
    </clipPath>
    <clipPath
       clipPathUnits="userSpaceOnUse"
       id="clipPath2505">
      <path
         d="M 0,1950.007 H 595.276 V 0 H 0 Z"
         transform="translate(-389.37031,-1801.0582)"
         id="path2505" />
    </clipPath>
    <clipPath
       clipPathUnits="userSpaceOnUse"
       id="clipPath2507">
      <path
         d="M 0,1950.007 H 595.276 V 0 H 0 Z"
         transform="translate(0,-2.5000001e-5)"
         id="path2507" />
    </clipPath>
    <clipPath
       clipPathUnits="userSpaceOnUse"
       id="clipPath2509">
      <path
         d="M 0,1950.007 H 595.276 V 0 H 0 Z"
         transform="translate(0,-2.5000001e-5)"
         id="path2509" />
    </clipPath>
    <clipPath
       clipPathUnits="userSpaceOnUse"
       id="clipPath2511">
      <path
         d="M 0,1950.007 H 595.276 V 0 H 0 Z"
         transform="translate(0,-2.5000001e-5)"
         id="path2511" />
    </clipPath>
    <clipPath
       clipPathUnits="userSpaceOnUse"
       id="clipPath2513">
      <path
         d="M 0,1950.007 H 595.276 V 0 H 0 Z"
         transform="translate(0,-2.5000001e-5)"
         id="path2513" />
    </clipPath>
    <clipPath
       clipPathUnits="userSpaceOnUse"
       id="clipPath2515">
      <path
         d="M 0,1950.007 H 595.276 V 0 H 0 Z"
         transform="translate(0,-2.5000001e-5)"
         id="path2515" />
    </clipPath>
    <clipPath
       clipPathUnits="userSpaceOnUse"
       id="clipPath2517">
      <path
         d="M 0,1950.007 H 595.276 V 0 H 0 Z"
         transform="translate(0,-2.5000001e-5)"
         id="path2517" />
    </clipPath>
    <clipPath
       clipPathUnits="userSpaceOnUse"
       id="clipPath2519">
      <path
         d="M 0,1950.007 H 595.276 V 0 H 0 Z"
         transform="translate(0,-2.5000001e-5)"
         id="path2519" />
    </clipPath>
    <clipPath
       clipPathUnits="userSpaceOnUse"
       id="clipPath2521">
      <path
         d="M 0,1950.007 H 595.276 V 0 H 0 Z"
         transform="translate(0,-2.5000001e-5)"
         id="path2521" />
    </clipPath>
    <clipPath
       clipPathUnits="userSpaceOnUse"
       id="clipPath2523">
      <path
         d="M 0,1950.007 H 595.276 V 0 H 0 Z"
         transform="translate(0,-2.5000001e-5)"
         id="path2523" />
    </clipPath>
    <clipPath
       clipPathUnits="userSpaceOnUse"
       id="clipPath2525">
      <path
         d="M 0,1950.007 H 595.276 V 0 H 0 Z"
         transform="translate(0,-2.5000001e-5)"
         id="path2525" />
    </clipPath>
    <clipPath
       clipPathUnits="userSpaceOnUse"
       id="clipPath2527">
      <path
         d="M 0,1950.007 H 595.276 V 0 H 0 Z"
         transform="translate(0,-2.5000001e-5)"
         id="path2527" />
    </clipPath>
    <clipPath
       clipPathUnits="userSpaceOnUse"
       id="clipPath2529">
      <path
         d="M 0,1950.007 H 595.276 V 0 H 0 Z"
         transform="translate(0,-2.5000001e-5)"
         id="path2529" />
    </clipPath>
    <clipPath
       clipPathUnits="userSpaceOnUse"
       id="clipPath2531">
      <path
         d="M 0,1950.007 H 595.276 V 0 H 0 Z"
         transform="translate(0,-2.5000001e-5)"
         id="path2531" />
    </clipPath>
    <clipPath
       clipPathUnits="userSpaceOnUse"
       id="clipPath2533">
      <path
         d="M 0,1950.007 H 595.276 V 0 H 0 Z"
         transform="translate(0,-2.5000001e-5)"
         id="path2533" />
    </clipPath>
    <clipPath
       clipPathUnits="userSpaceOnUse"
       id="clipPath2535">
      <path
         d="M 0,1950.007 H 595.276 V 0 H 0 Z"
         transform="translate(0,-2.5000001e-5)"
         id="path2535" />
    </clipPath>
    <clipPath
       clipPathUnits="userSpaceOnUse"
       id="clipPath2537">
      <path
         d="M 0,1950.007 H 595.276 V 0 H 0 Z"
         transform="translate(0,-2.5000001e-5)"
         id="path2537" />
    </clipPath>
    <clipPath
       clipPathUnits="userSpaceOnUse"
       id="clipPath2539">
      <path
         d="M 0,1950.007 H 595.276 V 0 H 0 Z"
         transform="translate(0,-2.5000001e-5)"
         id="path2539" />
    </clipPath>
    <clipPath
       clipPathUnits="userSpaceOnUse"
       id="clipPath2541">
      <path
         d="M 0,1950.007 H 595.276 V 0 H 0 Z"
         transform="translate(0,-2.5000001e-5)"
         id="path2541" />
    </clipPath>
    <clipPath
       clipPathUnits="userSpaceOnUse"
       id="clipPath2543">
      <path
         d="M 0,1950.007 H 595.276 V 0 H 0 Z"
         transform="translate(0,-2.5000001e-5)"
         id="path2543" />
    </clipPath>
    <clipPath
       clipPathUnits="userSpaceOnUse"
       id="clipPath2545">
      <path
         d="M 0,1950.007 H 595.276 V 0 H 0 Z"
         transform="translate(0,-2.5000001e-5)"
         id="path2545" />
    </clipPath>
    <clipPath
       clipPathUnits="userSpaceOnUse"
       id="clipPath2547">
      <path
         d="M 0,1950.007 H 595.276 V 0 H 0 Z"
         transform="translate(0,-2.5000001e-5)"
         id="path2547" />
    </clipPath>
    <clipPath
       clipPathUnits="userSpaceOnUse"
       id="clipPath2549">
      <path
         d="M 0,1950.007 H 595.276 V 0 H 0 Z"
         transform="translate(0,-2.5000001e-5)"
         id="path2549" />
    </clipPath>
    <clipPath
       clipPathUnits="userSpaceOnUse"
       id="clipPath2551">
      <path
         d="M 0,1950.007 H 595.276 V 0 H 0 Z"
         transform="translate(0,-2.5000001e-5)"
         id="path2551" />
    </clipPath>
    <clipPath
       clipPathUnits="userSpaceOnUse"
       id="clipPath2553">
      <path
         d="M 0,1950.007 H 595.276 V 0 H 0 Z"
         transform="translate(0,-2.5000001e-5)"
         id="path2553" />
    </clipPath>
    <clipPath
       clipPathUnits="userSpaceOnUse"
       id="clipPath2555">
      <path
         d="M 0,1950.007 H 595.276 V 0 H 0 Z"
         transform="translate(0,-2.5000001e-5)"
         id="path2555" />
    </clipPath>
    <clipPath
       clipPathUnits="userSpaceOnUse"
       id="clipPath2557">
      <path
         d="M 0,1950.007 H 595.276 V 0 H 0 Z"
         transform="translate(0,-2.5000001e-5)"
         id="path2557" />
    </clipPath>
    <clipPath
       clipPathUnits="userSpaceOnUse"
       id="clipPath2559">
      <path
         d="M 0,1950.007 H 595.276 V 0 H 0 Z"
         transform="translate(0,-2.5000001e-5)"
         id="path2559" />
    </clipPath>
    <clipPath
       clipPathUnits="userSpaceOnUse"
       id="clipPath2561">
      <path
         d="M 0,1950.007 H 595.276 V 0 H 0 Z"
         transform="translate(-260.194,-1875.8977)"
         id="path2561" />
    </clipPath>
    <clipPath
       clipPathUnits="userSpaceOnUse"
       id="clipPath2563">
      <path
         d="M 0,1950.007 H 595.276 V 0 H 0 Z"
         transform="translate(0,-2.5000001e-5)"
         id="path2563" />
    </clipPath>
    <clipPath
       clipPathUnits="userSpaceOnUse"
       id="clipPath2565">
      <path
         d="M 0,1950.007 H 595.276 V 0 H 0 Z"
         transform="translate(0,-2.5000001e-5)"
         id="path2565" />
    </clipPath>
    <clipPath
       clipPathUnits="userSpaceOnUse"
       id="clipPath2567">
      <path
         d="M 0,1950.007 H 595.276 V 0 H 0 Z"
         transform="translate(0,-2.5000001e-5)"
         id="path2567" />
    </clipPath>
    <clipPath
       clipPathUnits="userSpaceOnUse"
       id="clipPath2569">
      <path
         d="M 0,1950.007 H 595.276 V 0 H 0 Z"
         transform="translate(0,-2.5000001e-5)"
         id="path2569" />
    </clipPath>
    <clipPath
       clipPathUnits="userSpaceOnUse"
       id="clipPath2571">
      <path
         d="M 0,1950.007 H 595.276 V 0 H 0 Z"
         transform="translate(0,-2.5000001e-5)"
         id="path2571" />
    </clipPath>
    <clipPath
       clipPathUnits="userSpaceOnUse"
       id="clipPath2573">
      <path
         d="M 0,1950.007 H 595.276 V 0 H 0 Z"
         transform="translate(0,-2.5000001e-5)"
         id="path2573" />
    </clipPath>
    <clipPath
       clipPathUnits="userSpaceOnUse"
       id="clipPath2575">
      <path
         d="M 0,1950.007 H 595.276 V 0 H 0 Z"
         transform="translate(0,-2.5000001e-5)"
         id="path2575" />
    </clipPath>
    <clipPath
       clipPathUnits="userSpaceOnUse"
       id="clipPath2577">
      <path
         d="M 0,1950.007 H 595.276 V 0 H 0 Z"
         transform="translate(0,-2.5000001e-5)"
         id="path2577" />
    </clipPath>
    <clipPath
       clipPathUnits="userSpaceOnUse"
       id="clipPath2579">
      <path
         d="M 0,1950.007 H 595.276 V 0 H 0 Z"
         transform="translate(0,-2.5000001e-5)"
         id="path2579" />
    </clipPath>
    <clipPath
       clipPathUnits="userSpaceOnUse"
       id="clipPath2581">
      <path
         d="M 0,1950.007 H 595.276 V 0 H 0 Z"
         transform="translate(0,-2.5000001e-5)"
         id="path2581" />
    </clipPath>
    <clipPath
       clipPathUnits="userSpaceOnUse"
       id="clipPath2583">
      <path
         d="M 0,1950.007 H 595.276 V 0 H 0 Z"
         transform="translate(0,-2.5000001e-5)"
         id="path2583" />
    </clipPath>
    <clipPath
       clipPathUnits="userSpaceOnUse"
       id="clipPath2585">
      <path
         d="M 0,1950.007 H 595.276 V 0 H 0 Z"
         transform="translate(0,-2.5000001e-5)"
         id="path2585" />
    </clipPath>
    <clipPath
       clipPathUnits="userSpaceOnUse"
       id="clipPath2587">
      <path
         d="M 0,1950.007 H 595.276 V 0 H 0 Z"
         transform="translate(0,-2.5000001e-5)"
         id="path2587" />
    </clipPath>
    <clipPath
       clipPathUnits="userSpaceOnUse"
       id="clipPath2589">
      <path
         d="M 0,1950.007 H 595.276 V 0 H 0 Z"
         transform="translate(0,-2.5000001e-5)"
         id="path2589" />
    </clipPath>
    <clipPath
       clipPathUnits="userSpaceOnUse"
       id="clipPath2591">
      <path
         d="M 0,1950.007 H 595.276 V 0 H 0 Z"
         transform="translate(0,-2.5000001e-5)"
         id="path2591" />
    </clipPath>
    <clipPath
       clipPathUnits="userSpaceOnUse"
       id="clipPath2593">
      <path
         d="M 0,1950.007 H 595.276 V 0 H 0 Z"
         transform="translate(0,-2.5000001e-5)"
         id="path2593" />
    </clipPath>
    <clipPath
       clipPathUnits="userSpaceOnUse"
       id="clipPath2595">
      <path
         d="M 0,1950.007 H 595.276 V 0 H 0 Z"
         transform="translate(0,-2.5000001e-5)"
         id="path2595" />
    </clipPath>
    <clipPath
       clipPathUnits="userSpaceOnUse"
       id="clipPath2597">
      <path
         d="M 0,1950.007 H 595.276 V 0 H 0 Z"
         transform="translate(0,-2.5000001e-5)"
         id="path2597" />
    </clipPath>
    <clipPath
       clipPathUnits="userSpaceOnUse"
       id="clipPath2599">
      <path
         d="M 0,1950.007 H 595.276 V 0 H 0 Z"
         transform="translate(0,-2.5000001e-5)"
         id="path2599" />
    </clipPath>
    <clipPath
       clipPathUnits="userSpaceOnUse"
       id="clipPath2601">
      <path
         d="M 0,1950.007 H 595.276 V 0 H 0 Z"
         transform="translate(0,-2.5000001e-5)"
         id="path2601" />
    </clipPath>
    <clipPath
       clipPathUnits="userSpaceOnUse"
       id="clipPath2603">
      <path
         d="M 0,1950.007 H 595.276 V 0 H 0 Z"
         transform="translate(0,-2.5000001e-5)"
         id="path2603" />
    </clipPath>
    <clipPath
       clipPathUnits="userSpaceOnUse"
       id="clipPath2605">
      <path
         d="M 0,1950.007 H 595.276 V 0 H 0 Z"
         transform="translate(0,-2.5000001e-5)"
         id="path2605" />
    </clipPath>
    <clipPath
       clipPathUnits="userSpaceOnUse"
       id="clipPath2607">
      <path
         d="M 0,1950.007 H 595.276 V 0 H 0 Z"
         transform="translate(0,-2.5000001e-5)"
         id="path2607" />
    </clipPath>
    <clipPath
       clipPathUnits="userSpaceOnUse"
       id="clipPath2609">
      <path
         d="M 0,1950.007 H 595.276 V 0 H 0 Z"
         transform="translate(0,-2.5000001e-5)"
         id="path2609" />
    </clipPath>
    <clipPath
       clipPathUnits="userSpaceOnUse"
       id="clipPath2611">
      <path
         d="M 0,1950.007 H 595.276 V 0 H 0 Z"
         transform="translate(0,-2.5000001e-5)"
         id="path2611" />
    </clipPath>
  </defs>
  <path
     id="path2494"
     d="M 0,0 H 1.322 L 1.651,0.001 1.973,0.002 2.289,0.005 2.597,0.009 2.898,0.015 3.192,0.021 3.479,0.029 3.759,0.038 4.032,0.048 4.297,0.059 4.556,0.071 4.808,0.085 5.052,0.1 5.29,0.115 5.52,0.133 5.744,0.151 5.96,0.17 6.169,0.191 6.371,0.213 6.567,0.235 6.755,0.259 6.936,0.285 7.11,0.311 7.277,0.338 7.436,0.367 7.589,0.397 7.735,0.428 7.873,0.46 8.005,0.493 8.129,0.528 8.247,0.563 8.357,0.6 8.462,0.638 8.564,0.679 8.662,0.72 8.758,0.764 8.85,0.809 8.938,0.856 9.024,0.904 9.106,0.955 9.184,1.007 9.259,1.061 9.331,1.116 9.4,1.173 l 0.065,0.06 0.062,0.061 0.059,0.062 0.055,0.064 0.052,0.066 0.049,0.067 0.045,0.07 0.042,0.071 0.039,0.073 0.035,0.074 0.032,0.077 0.028,0.078 0.025,0.08 0.023,0.081 0.018,0.083 0.015,0.086 0.012,0.086 0.008,0.089 0.006,0.09 10e-4,0.091 -0.002,0.097 -0.005,0.095 -0.009,0.093 -0.013,0.091 -0.016,0.09 L 10.007,3.235 9.983,3.321 9.956,3.406 9.926,3.488 9.891,3.568 9.854,3.648 9.813,3.725 9.768,3.8 9.719,3.874 9.667,3.945 9.612,4.015 9.552,4.084 9.489,4.151 9.423,4.215 9.353,4.278 9.279,4.34 9.202,4.399 9.121,4.457 9.037,4.513 8.949,4.567 8.857,4.62 8.762,4.67 8.663,4.719 8.561,4.767 8.455,4.812 8.346,4.856 8.233,4.898 8.115,4.938 7.99,4.977 7.86,5.016 7.723,5.052 7.579,5.087 7.429,5.121 7.273,5.153 7.111,5.185 6.942,5.215 6.767,5.244 6.586,5.271 6.398,5.297 6.205,5.322 6.004,5.346 5.797,5.368 5.585,5.389 5.366,5.409 5.14,5.427 4.908,5.445 4.67,5.461 4.426,5.475 4.175,5.489 3.918,5.501 3.655,5.511 3.385,5.521 3.109,5.529 2.827,5.536 2.538,5.542 2.244,5.547 1.943,5.55 1.635,5.551 1.322,5.552 H 0 Z M 20.923,-12.109 H 10.798 L 0,-2.247 v -9.862 H -8.776 V 8.995 H 3.791 L 4.255,8.994 4.712,8.99 5.161,8.982 5.603,8.972 6.037,8.959 6.465,8.943 6.885,8.924 7.298,8.902 7.703,8.878 8.101,8.85 8.492,8.819 8.875,8.786 9.251,8.749 9.62,8.71 9.981,8.668 10.336,8.623 10.682,8.575 11.022,8.523 11.354,8.469 11.678,8.413 11.996,8.354 12.306,8.29 12.608,8.225 12.904,8.157 13.191,8.085 13.472,8.011 13.745,7.934 14.01,7.854 14.269,7.771 14.52,7.685 14.763,7.596 14.999,7.504 15.229,7.409 15.451,7.312 15.666,7.212 15.874,7.108 16.075,7.001 16.268,6.892 16.454,6.78 16.632,6.664 16.804,6.546 16.967,6.424 17.124,6.3 17.274,6.173 17.416,6.043 17.551,5.91 17.678,5.774 17.799,5.634 17.912,5.493 18.017,5.348 18.116,5.2 18.207,5.049 18.291,4.896 18.367,4.739 18.436,4.58 18.498,4.417 18.553,4.251 18.6,4.083 18.641,3.912 18.673,3.738 18.699,3.561 18.717,3.381 18.728,3.198 18.732,3.012 18.729,2.877 18.722,2.743 18.709,2.61 18.692,2.478 18.669,2.348 18.642,2.218 18.61,2.09 18.572,1.963 18.53,1.838 18.482,1.714 18.43,1.591 18.373,1.469 18.31,1.349 18.243,1.229 18.17,1.111 18.093,0.994 18.011,0.878 17.923,0.764 17.831,0.651 17.734,0.539 17.632,0.428 17.524,0.319 17.412,0.211 17.295,0.104 17.172,-0.002 17.045,-0.106 16.913,-0.21 l -0.137,-0.102 -0.143,-0.1 -0.147,-0.1 -0.152,-0.098 -0.157,-0.097 -0.161,-0.095 -0.163,-0.093 -0.166,-0.09 -0.169,-0.088 -0.173,-0.085 -0.175,-0.083 -0.178,-0.08 -0.181,-0.077 -0.184,-0.076 -0.187,-0.072 -0.19,-0.07 -0.192,-0.068 -0.196,-0.064 -0.199,-0.063 -0.201,-0.06 -0.205,-0.058 -0.207,-0.055 -0.21,-0.052 -0.213,-0.05 -0.217,-0.047 -0.219,-0.046 -0.222,-0.042 -0.224,-0.04 -0.228,-0.038 -0.231,-0.034 -0.233,-0.033 -0.237,-0.03 L 10.577,-2.424 10.335,-2.448 10.09,-2.471 9.842,-2.49 9.59,-2.508 Z"
     style="fill:#000000;fill-opacity:1;fill-rule:evenodd;stroke:none"
     transform="matrix(7.5524706,0,0,-7.5524706,841.36949,472.30613)"
     clip-path="url(#clipPath2495)" />
  <path
     id="path2496"
     d="m 0,0 v 21.104 h 10.097 l 0.5,-0.002 0.492,-0.004 0.484,-0.008 0.476,-0.011 0.467,-0.014 0.459,-0.017 0.451,-0.02 0.443,-0.023 0.435,-0.026 0.426,-0.03 0.418,-0.032 0.41,-0.035 0.402,-0.039 0.393,-0.042 0.386,-0.045 0.377,-0.048 0.368,-0.051 0.361,-0.054 0.352,-0.057 0.344,-0.06 0.335,-0.064 0.328,-0.066 0.319,-0.07 0.311,-0.072 0.303,-0.076 0.294,-0.08 0.286,-0.082 0.278,-0.085 0.269,-0.088 0.262,-0.091 0.253,-0.095 0.244,-0.097 0.238,-0.101 0.23,-0.105 0.222,-0.107 0.215,-0.111 0.207,-0.114 0.2,-0.118 0.192,-0.121 0.185,-0.125 0.177,-0.128 0.17,-0.131 0.162,-0.135 0.154,-0.137 0.147,-0.142 0.139,-0.145 0.132,-0.148 0.124,-0.151 0.117,-0.155 0.109,-0.158 0.102,-0.162 0.094,-0.165 0.086,-0.168 0.079,-0.172 0.072,-0.174 0.064,-0.179 0.056,-0.182 0.049,-0.185 0.041,-0.189 0.034,-0.192 0.026,-0.195 0.019,-0.199 0.011,-0.202 0.004,-0.205 -0.004,-0.19 L 25.865,14.241 25.846,14.055 25.82,13.872 25.785,13.692 25.744,13.514 25.695,13.34 25.638,13.167 25.573,12.997 25.501,12.83 25.422,12.665 25.335,12.503 25.24,12.344 25.137,12.187 25.027,12.032 24.91,11.881 24.785,11.731 24.652,11.585 24.512,11.441 24.364,11.299 24.208,11.16 24.045,11.024 23.874,10.89 23.696,10.759 23.51,10.63 23.316,10.505 23.115,10.381 22.906,10.26 22.689,10.142 22.465,10.026 22.234,9.913 21.994,9.802 21.749,9.695 21.498,9.591 21.241,9.491 20.978,9.394 20.709,9.301 20.435,9.21 20.154,9.123 19.868,9.04 19.576,8.96 19.278,8.884 18.974,8.811 18.664,8.741 18.349,8.675 18.027,8.612 17.7,8.552 17.367,8.496 17.028,8.443 16.683,8.394 16.332,8.348 15.976,8.305 15.614,8.266 15.246,8.23 14.872,8.198 14.492,8.169 14.106,8.144 13.715,8.121 13.318,8.103 12.915,8.088 12.506,8.076 12.092,8.067 11.672,8.062 11.246,8.06 H 8.833 V 0 Z m 8.833,11.577 h 1.264 l 0.222,10e-4 0.219,0.002 0.215,0.004 0.211,0.005 0.207,0.007 0.203,0.008 0.199,0.01 0.195,0.011 0.192,0.013 0.187,0.014 0.184,0.016 0.18,0.017 0.176,0.019 0.173,0.02 0.168,0.021 0.164,0.023 0.161,0.025 0.157,0.026 0.153,0.028 0.149,0.029 0.146,0.03 0.141,0.032 0.138,0.034 0.134,0.035 0.13,0.036 0.126,0.038 0.123,0.04 0.118,0.04 0.115,0.043 0.111,0.044 0.107,0.045 0.103,0.047 0.1,0.049 0.097,0.051 0.093,0.052 0.091,0.054 0.087,0.057 0.084,0.057 0.081,0.06 0.078,0.061 0.075,0.063 0.071,0.065 0.069,0.067 0.065,0.069 0.062,0.07 0.059,0.072 0.055,0.074 0.053,0.075 0.049,0.078 0.046,0.079 0.044,0.082 0.039,0.082 0.037,0.085 0.034,0.087 0.03,0.088 0.027,0.09 0.024,0.092 0.021,0.093 0.017,0.095 0.015,0.098 0.011,0.099 0.008,0.101 0.005,0.102 10e-4,0.104 -10e-4,0.097 -0.005,0.095 -0.008,0.093 -0.011,0.091 -0.015,0.09 -0.017,0.088 -0.021,0.087 -0.024,0.085 -0.027,0.083 -0.03,0.082 -0.034,0.08 -0.037,0.078 -0.04,0.076 -0.043,0.075 -0.046,0.074 -0.049,0.071 -0.053,0.07 -0.055,0.069 -0.059,0.067 -0.062,0.064 -0.065,0.064 -0.069,0.062 -0.071,0.06 -0.075,0.059 -0.078,0.057 -0.081,0.055 -0.084,0.054 -0.087,0.052 -0.091,0.05 -0.093,0.049 -0.097,0.047 -0.1,0.045 -0.103,0.045 -0.107,0.042 -0.111,0.042 -0.115,0.039 -0.118,0.039 -0.123,0.037 -0.126,0.035 -0.13,0.034 -0.134,0.033 -0.138,0.032 -0.141,0.03 -0.146,0.028 -0.149,0.027 -0.153,0.026 -0.157,0.024 -0.161,0.023 -0.164,0.022 -0.169,0.02 -0.172,0.019 -0.176,0.017 -0.18,0.016 -0.184,0.015 -0.187,0.013 -0.192,0.012 -0.195,0.01 -0.199,0.009 -0.203,0.008 -0.207,0.006 -0.211,0.005 -0.215,0.003 -0.219,0.002 -0.222,0.001 H 8.833 Z"
     style="fill:#000000;fill-opacity:1;fill-rule:evenodd;stroke:none"
     transform="matrix(7.5524706,0,0,-7.5524706,533.93333,563.75672)"
     clip-path="url(#clipPath2497)" />
  <path
     id="path2498"
     d="M 0,0 V 21.104 H 22.913 V 18.192 H 6.67 V 12.93 H 22.913 V 9.92 H 6.67 V 0 Z"
     style="fill:#000000;fill-opacity:1;fill-rule:evenodd;stroke:none"
     transform="matrix(7.5524706,0,0,-7.5524706,307.08505,563.75672)"
     clip-path="url(#clipPath2499)" />
  <path
     id="path2500"
     d="m 0,0 h 6.584 v -12.813 l 0.002,-0.177 0.008,-0.175 0.012,-0.171 0.018,-0.169 0.022,-0.166 0.028,-0.163 0.032,-0.16 0.038,-0.158 0.042,-0.155 0.048,-0.152 0.052,-0.149 0.058,-0.147 0.062,-0.143 0.068,-0.142 0.073,-0.138 0.077,-0.135 0.083,-0.133 0.087,-0.13 0.093,-0.127 0.098,-0.124 0.103,-0.122 0.107,-0.118 0.113,-0.117 0.118,-0.113 0.122,-0.111 0.128,-0.107 0.133,-0.106 0.138,-0.102 0.143,-0.099 0.148,-0.097 0.154,-0.094 0.157,-0.092 0.164,-0.088 0.168,-0.085 0.173,-0.082 0.178,-0.08 0.182,-0.077 0.188,-0.074 0.193,-0.071 0.198,-0.069 0.202,-0.066 0.208,-0.063 0.212,-0.06 0.218,-0.057 0.222,-0.055 0.227,-0.051 0.232,-0.049 0.238,-0.047 0.242,-0.043 0.247,-0.04 0.251,-0.038 0.257,-0.035 0.262,-0.033 0.267,-0.029 0.272,-0.027 0.276,-0.023 0.282,-0.021 0.286,-0.018 0.292,-0.016 0.296,-0.012 0.301,-0.01 0.306,-0.007 0.312,-0.004 0.316,-0.002 0.315,0.002 0.31,0.004 0.306,0.007 0.3,0.01 0.296,0.012 0.29,0.016 0.286,0.018 0.28,0.021 0.276,0.023 0.271,0.027 0.266,0.029 0.261,0.033 0.256,0.035 0.251,0.038 0.247,0.04 0.241,0.043 0.236,0.047 0.232,0.049 0.227,0.051 0.221,0.055 0.217,0.057 0.212,0.06 0.207,0.063 0.203,0.066 0.197,0.069 0.192,0.071 0.188,0.074 0.182,0.077 0.178,0.08 0.173,0.082 0.168,0.085 0.163,0.088 0.158,0.092 0.153,0.094 0.148,0.097 0.143,0.099 0.138,0.102 0.133,0.106 0.128,0.107 0.123,0.111 0.118,0.113 0.113,0.117 0.107,0.118 0.103,0.122 0.098,0.124 0.092,0.127 0.088,0.13 0.082,0.133 0.078,0.135 0.073,0.138 0.067,0.142 0.063,0.143 0.057,0.147 0.053,0.149 0.047,0.152 0.043,0.155 0.037,0.158 0.033,0.16 0.027,0.163 0.023,0.166 0.017,0.169 0.013,0.171 0.007,0.175 0.003,0.177 V 0 h 6.67 v -13.133 l -0.004,-0.265 -0.013,-0.261 -0.02,-0.258 -0.029,-0.253 -0.037,-0.248 -0.045,-0.244 -0.053,-0.24 -0.062,-0.236 -0.069,-0.232 -0.078,-0.228 -0.086,-0.223 -0.094,-0.219 -0.103,-0.215 -0.11,-0.211 -0.12,-0.206 -0.127,-0.203 -0.135,-0.198 -0.143,-0.193 -0.152,-0.19 -0.16,-0.186 -0.168,-0.181 -0.177,-0.177 -0.185,-0.173 -0.192,-0.169 -0.201,-0.164 -0.21,-0.16 -0.217,-0.156 -0.226,-0.152 -0.234,-0.147 -0.242,-0.144 -0.251,-0.139 -0.259,-0.135 -0.267,-0.131 -0.275,-0.126 -0.284,-0.123 -0.292,-0.118 -0.301,-0.115 -0.309,-0.11 -0.317,-0.105 -0.325,-0.102 -0.334,-0.097 -0.342,-0.094 -0.351,-0.089 -0.359,-0.085 -0.367,-0.081 -0.375,-0.077 -0.384,-0.073 -0.392,-0.068 -0.4,-0.065 -0.409,-0.06 -0.417,-0.056 -0.425,-0.052 -0.433,-0.047 -0.442,-0.044 -0.45,-0.04 -0.459,-0.035 -0.466,-0.031 -0.475,-0.027 -0.483,-0.023 -0.491,-0.019 -0.5,-0.014 -0.508,-0.01 -0.516,-0.007 -0.525,-0.002 -0.525,0.002 -0.517,0.007 -0.508,0.01 -0.501,0.014 -0.491,0.019 -0.484,0.023 -0.475,0.027 -0.467,0.031 -0.458,0.035 -0.45,0.039 -0.441,0.044 -0.434,0.048 -0.424,0.052 -0.417,0.056 -0.408,0.06 -0.4,0.064 -0.391,0.068 -0.383,0.073 -0.374,0.077 -0.367,0.081 -0.357,0.084 -0.35,0.089 -0.341,0.094 -0.332,0.097 -0.324,0.101 -0.316,0.106 -0.307,0.11 -0.299,0.113 -0.291,0.119 -0.282,0.121 -0.274,0.127 -0.265,0.13 -0.257,0.134 -0.249,0.139 -0.241,0.143 -0.232,0.147 -0.224,0.152 -0.216,0.156 -0.208,0.16 -0.2,0.164 -0.192,0.169 -0.183,0.172 -0.175,0.177 -0.167,0.181 -0.159,0.186 -0.151,0.189 -0.143,0.194 -0.134,0.198 -0.126,0.203 -0.118,0.207 -0.11,0.21 -0.102,0.216 -0.094,0.219 -0.085,0.224 -0.077,0.228 -0.07,0.232 -0.061,0.236 -0.052,0.241 -0.045,0.245 -0.037,0.25 -0.028,0.253 -0.021,0.258 -0.012,0.262 L 0,-13.133 Z"
     style="fill:#000000;fill-opacity:1;fill-rule:evenodd;stroke:none"
     transform="matrix(7.5524706,0,0,-7.5524706,0.50159997,404.37088)"
     clip-path="url(#clipPath2501)" />
  <path
     id="path2502"
     d="m 260.194,1803.91 h 132.407 v -1.135 H 260.194 Z"
     style="fill:#00548e;fill-opacity:1;fill-rule:evenodd;stroke:none"
     transform="matrix(7.5524706,0,0,-7.5524706,-1965.1075,14214.911)"
     clip-path="url(#clipPath2503)" />
  <path
     id="path2504"
     d="M 0,0 0.708,0.804 H 1.547 L 0.458,0 Z m 2.229,-4.757 -0.62,1.116 h -2.16 l -0.634,-1.116 h -0.932 l 2.642,4.502 2.639,-4.502 z m -2.453,1.702 h 1.52 L 0.738,-2.068 C 0.706,-2.004 0.672,-1.932 0.637,-1.85 0.603,-1.768 0.567,-1.677 0.533,-1.576 0.503,-1.671 0.472,-1.76 0.437,-1.842 0.404,-1.924 0.37,-1.998 0.336,-2.068 Z m -7.282,-1.702 v 4.502 l 3.465,-2.647 c 0.096,-0.075 0.191,-0.155 0.288,-0.239 0.097,-0.085 0.198,-0.181 0.305,-0.288 v 3.002 h 0.821 v -4.498 l -3.537,2.694 c -0.094,0.073 -0.186,0.15 -0.273,0.231 -0.089,0.082 -0.173,0.165 -0.252,0.254 v -3.011 z m -1.45,0 -0.62,1.116 h -2.16 l -0.634,-1.116 h -0.932 l 2.642,4.502 2.639,-4.502 z m -2.453,1.702 h 1.52 l -0.558,0.987 c -0.032,0.064 -0.067,0.136 -0.101,0.218 -0.034,0.082 -0.07,0.173 -0.104,0.274 -0.031,-0.095 -0.061,-0.184 -0.096,-0.266 -0.033,-0.082 -0.067,-0.156 -0.101,-0.226 z m -4.595,0.236 v -1.938 h -0.831 v 4.33 h 1.236 c 0.363,0 0.646,-0.018 0.845,-0.056 0.2,-0.037 0.37,-0.099 0.513,-0.186 0.169,-0.105 0.299,-0.24 0.392,-0.406 0.091,-0.165 0.137,-0.346 0.137,-0.544 0,-0.346 -0.105,-0.617 -0.317,-0.814 -0.211,-0.197 -0.524,-0.315 -0.936,-0.354 l 1.879,-1.97 h -1.002 l -1.816,1.938 z m 0.056,0.547 h 0.16 c 0.469,0 0.781,0.044 0.935,0.13 0.154,0.087 0.232,0.241 0.232,0.462 0,0.238 -0.083,0.406 -0.249,0.503 -0.165,0.099 -0.471,0.147 -0.918,0.147 h -0.16 z m -2.337,-2.485 -0.62,1.116 h -2.16 l -0.634,-1.116 h -0.932 l 2.642,4.502 2.639,-4.502 z m -2.453,1.702 h 1.52 l -0.558,0.987 c -0.032,0.064 -0.066,0.136 -0.101,0.218 -0.034,0.082 -0.07,0.173 -0.104,0.274 -0.031,-0.095 -0.061,-0.184 -0.096,-0.266 -0.033,-0.082 -0.067,-0.156 -0.101,-0.226 z m -3.966,0.242 v -1.944 h -0.83 v 4.33 h 1.342 c 0.397,0 0.689,-0.016 0.878,-0.051 0.187,-0.034 0.351,-0.091 0.489,-0.171 0.172,-0.099 0.307,-0.236 0.404,-0.405 0.096,-0.171 0.145,-0.359 0.145,-0.565 0,-0.204 -0.049,-0.393 -0.145,-0.567 -0.097,-0.174 -0.232,-0.31 -0.404,-0.408 -0.138,-0.079 -0.302,-0.135 -0.489,-0.169 -0.189,-0.033 -0.481,-0.05 -0.878,-0.05 h -0.176 z m 0.056,0.577 h 0.228 c 0.493,0 0.821,0.042 0.985,0.127 0.164,0.084 0.245,0.234 0.245,0.449 0,0.231 -0.087,0.394 -0.263,0.487 -0.174,0.096 -0.497,0.143 -0.967,0.143 h -0.228 z M -28.855,-2.6 c 0,-0.308 -0.072,-0.599 -0.218,-0.872 -0.146,-0.275 -0.357,-0.519 -0.635,-0.735 -0.282,-0.214 -0.598,-0.379 -0.951,-0.493 -0.352,-0.114 -0.723,-0.172 -1.11,-0.172 -0.394,0 -0.768,0.058 -1.124,0.173 -0.357,0.116 -0.671,0.279 -0.945,0.492 -0.279,0.216 -0.49,0.459 -0.634,0.732 -0.143,0.271 -0.216,0.563 -0.216,0.875 0,0.31 0.073,0.602 0.216,0.875 0.144,0.275 0.355,0.521 0.634,0.737 0.278,0.215 0.594,0.379 0.947,0.491 0.352,0.112 0.726,0.169 1.122,0.169 0.393,0 0.764,-0.057 1.115,-0.169 0.353,-0.112 0.667,-0.276 0.946,-0.491 0.278,-0.219 0.489,-0.466 0.635,-0.741 0.146,-0.275 0.218,-0.565 0.218,-0.871 m -0.925,0 c 0,0.218 -0.051,0.426 -0.151,0.624 -0.101,0.197 -0.244,0.372 -0.434,0.526 -0.183,0.152 -0.397,0.269 -0.639,0.35 -0.242,0.082 -0.497,0.124 -0.765,0.124 -0.269,0 -0.525,-0.041 -0.766,-0.122 -0.242,-0.081 -0.458,-0.198 -0.647,-0.352 -0.188,-0.151 -0.333,-0.326 -0.432,-0.523 -0.099,-0.198 -0.149,-0.407 -0.149,-0.627 0,-0.219 0.05,-0.426 0.149,-0.622 0.099,-0.195 0.244,-0.369 0.432,-0.523 0.189,-0.154 0.404,-0.272 0.645,-0.352 0.241,-0.081 0.497,-0.122 0.768,-0.122 0.265,0 0.519,0.041 0.758,0.122 0.239,0.08 0.455,0.198 0.646,0.352 0.19,0.154 0.333,0.328 0.434,0.525 0.1,0.196 0.151,0.403 0.151,0.62 M -40.1,-4.757 v 4.33 h 1.196 c 0.779,0 1.326,-0.031 1.643,-0.092 0.316,-0.063 0.594,-0.167 0.833,-0.312 0.315,-0.192 0.555,-0.437 0.717,-0.737 0.163,-0.3 0.245,-0.642 0.245,-1.026 0,-0.385 -0.082,-0.726 -0.245,-1.023 -0.162,-0.297 -0.402,-0.541 -0.717,-0.735 -0.239,-0.145 -0.51,-0.249 -0.814,-0.312 -0.306,-0.061 -0.779,-0.093 -1.423,-0.093 h -0.239 z m 0.887,0.637 h 0.745 c 0.41,0 0.718,0.021 0.923,0.064 0.205,0.044 0.383,0.117 0.535,0.219 0.207,0.14 0.36,0.314 0.463,0.522 0.103,0.208 0.156,0.45 0.156,0.727 0,0.275 -0.053,0.518 -0.156,0.726 -0.103,0.208 -0.256,0.381 -0.463,0.522 -0.153,0.102 -0.339,0.176 -0.553,0.219 -0.215,0.044 -0.552,0.065 -1.009,0.065 h -0.32 -0.321 z m -6.78,-0.637 v 4.33 h 0.887 v -3.7 h 1.983 v -0.63 z m -1.45,0 -0.619,1.116 h -2.161 l -0.633,-1.116 h -0.933 l 2.643,4.502 2.638,-4.502 z m -2.453,1.702 h 1.521 l -0.559,0.987 c -0.032,0.064 -0.066,0.136 -0.1,0.218 -0.035,0.082 -0.07,0.173 -0.105,0.274 -0.03,-0.095 -0.061,-0.184 -0.095,-0.266 -0.033,-0.082 -0.067,-0.156 -0.102,-0.226 z m -4.595,0.236 v -1.938 h -0.831 v 4.33 h 1.237 c 0.363,0 0.645,-0.018 0.845,-0.056 0.199,-0.037 0.37,-0.099 0.512,-0.186 0.17,-0.105 0.299,-0.24 0.392,-0.406 0.092,-0.165 0.138,-0.346 0.138,-0.544 0,-0.346 -0.106,-0.617 -0.317,-0.814 -0.211,-0.197 -0.524,-0.315 -0.937,-0.354 l 1.88,-1.97 h -1.003 l -1.815,1.938 z m 0.056,0.547 h 0.16 c 0.47,0 0.781,0.044 0.936,0.13 0.153,0.087 0.231,0.241 0.231,0.462 0,0.238 -0.083,0.406 -0.248,0.503 -0.166,0.099 -0.472,0.147 -0.919,0.147 h -0.16 z m -4.949,-2.485 v 4.33 h 3.046 v -0.597 h -2.159 v -1.085 h 2.159 v -0.618 h -2.159 v -1.4 h 2.159 v -0.63 z m -5.65,0 v 4.33 h 1.196 c 0.779,0 1.326,-0.031 1.643,-0.092 0.316,-0.063 0.594,-0.167 0.833,-0.312 0.315,-0.192 0.555,-0.437 0.718,-0.737 0.162,-0.3 0.244,-0.642 0.244,-1.026 0,-0.385 -0.082,-0.726 -0.244,-1.023 -0.163,-0.297 -0.403,-0.541 -0.718,-0.735 -0.239,-0.145 -0.51,-0.249 -0.814,-0.312 -0.306,-0.061 -0.779,-0.093 -1.422,-0.093 h -0.24 z m 0.887,0.637 h 0.746 c 0.409,0 0.717,0.021 0.922,0.064 0.205,0.044 0.383,0.117 0.536,0.219 0.206,0.14 0.36,0.314 0.463,0.522 0.103,0.208 0.155,0.45 0.155,0.727 0,0.275 -0.052,0.518 -0.155,0.726 -0.103,0.208 -0.257,0.381 -0.463,0.522 -0.154,0.102 -0.34,0.176 -0.554,0.219 -0.215,0.044 -0.552,0.065 -1.009,0.065 h -0.32 -0.321 z m -4.949,-0.637 v 4.33 h 3.046 v -0.597 h -2.159 v -1.085 h 2.159 v -0.618 h -2.159 v -1.4 h 2.159 v -0.63 z m -4.006,0 v 4.33 h 3.046 v -0.597 h -2.159 v -1.079 h 2.159 v -0.618 h -2.159 v -2.036 z m -6.366,0 v 4.33 h 3.046 v -0.597 h -2.159 v -1.085 h 2.159 v -0.618 h -2.159 v -1.4 h 2.159 v -0.63 z m -5.65,0 v 4.33 h 1.196 c 0.779,0 1.326,-0.031 1.642,-0.092 0.317,-0.063 0.595,-0.167 0.834,-0.312 0.315,-0.192 0.554,-0.437 0.717,-0.737 0.163,-0.3 0.245,-0.642 0.245,-1.026 0,-0.385 -0.082,-0.726 -0.245,-1.023 -0.163,-0.297 -0.402,-0.541 -0.717,-0.735 -0.239,-0.145 -0.51,-0.249 -0.814,-0.312 -0.306,-0.061 -0.779,-0.093 -1.423,-0.093 h -0.239 z m 0.887,0.637 h 0.745 c 0.41,0 0.718,0.021 0.923,0.064 0.205,0.044 0.383,0.117 0.535,0.219 0.207,0.14 0.36,0.314 0.463,0.522 0.103,0.208 0.156,0.45 0.156,0.727 0,0.275 -0.053,0.518 -0.156,0.726 -0.103,0.208 -0.256,0.381 -0.463,0.522 -0.153,0.102 -0.339,0.176 -0.553,0.219 -0.215,0.044 -0.552,0.065 -1.009,0.065 h -0.32 -0.321 z m -2.337,-0.637 -0.62,1.116 h -2.16 l -0.633,-1.116 h -0.933 l 2.642,4.502 2.639,-4.502 z m -2.453,1.702 h 1.52 l -0.558,0.987 c -0.032,0.064 -0.066,0.136 -0.101,0.218 -0.034,0.082 -0.07,0.173 -0.104,0.274 -0.03,-0.095 -0.061,-0.184 -0.095,-0.266 -0.033,-0.082 -0.068,-0.156 -0.102,-0.226 z m -6.667,-1.702 v 4.33 h 1.195 c 0.779,0 1.326,-0.031 1.643,-0.092 0.317,-0.063 0.594,-0.167 0.833,-0.312 0.315,-0.192 0.555,-0.437 0.718,-0.737 0.162,-0.3 0.244,-0.642 0.244,-1.026 0,-0.385 -0.082,-0.726 -0.244,-1.023 -0.163,-0.297 -0.403,-0.541 -0.718,-0.735 -0.239,-0.145 -0.51,-0.249 -0.814,-0.312 -0.305,-0.061 -0.779,-0.093 -1.422,-0.093 h -0.24 z m 0.886,0.637 h 0.746 c 0.409,0 0.717,0.021 0.922,0.064 0.205,0.044 0.383,0.117 0.536,0.219 0.206,0.14 0.36,0.314 0.463,0.522 0.103,0.208 0.155,0.45 0.155,0.727 0,0.275 -0.052,0.518 -0.155,0.726 -0.103,0.208 -0.257,0.381 -0.463,0.522 -0.154,0.102 -0.34,0.176 -0.554,0.219 -0.215,0.044 -0.552,0.065 -1.009,0.065 h -0.32 -0.321 z m -3.048,3.693 h 0.887 v -4.33 h -0.887 z m -4.517,-3.462 0.707,0.259 c 0.067,-0.193 0.191,-0.34 0.369,-0.441 0.179,-0.102 0.408,-0.152 0.686,-0.152 0.263,0 0.473,0.058 0.628,0.174 0.155,0.116 0.233,0.272 0.233,0.467 0,0.254 -0.266,0.481 -0.798,0.68 -0.075,0.029 -0.131,0.051 -0.172,0.065 -0.6,0.233 -1.001,0.443 -1.201,0.632 -0.199,0.187 -0.3,0.419 -0.3,0.69 0,0.354 0.151,0.639 0.453,0.858 0.302,0.22 0.697,0.329 1.187,0.329 0.402,0 0.739,-0.062 1.01,-0.185 0.271,-0.123 0.458,-0.301 0.563,-0.531 l -0.694,-0.284 c -0.109,0.136 -0.229,0.236 -0.36,0.298 -0.13,0.064 -0.28,0.095 -0.449,0.095 -0.238,0 -0.427,-0.049 -0.567,-0.148 -0.142,-0.098 -0.212,-0.231 -0.212,-0.396 0,-0.261 0.308,-0.503 0.925,-0.727 0.047,-0.019 0.084,-0.033 0.111,-0.042 0.539,-0.198 0.91,-0.39 1.112,-0.578 0.201,-0.189 0.301,-0.424 0.301,-0.706 0,-0.41 -0.162,-0.736 -0.488,-0.977 -0.326,-0.242 -0.765,-0.363 -1.319,-0.363 -0.465,0 -0.845,0.085 -1.143,0.255 -0.296,0.169 -0.491,0.411 -0.582,0.728 m -3.131,1.07 v -1.938 h -0.831 v 4.33 h 1.237 c 0.362,0 0.644,-0.018 0.844,-0.056 0.2,-0.037 0.37,-0.099 0.513,-0.186 0.169,-0.105 0.299,-0.24 0.392,-0.406 0.091,-0.165 0.137,-0.346 0.137,-0.544 0,-0.346 -0.105,-0.617 -0.317,-0.814 -0.211,-0.197 -0.524,-0.315 -0.936,-0.354 l 1.879,-1.97 h -1.002 l -1.816,1.938 z m 0.056,0.547 h 0.16 c 0.469,0 0.781,0.044 0.935,0.13 0.154,0.087 0.232,0.241 0.232,0.462 0,0.238 -0.083,0.406 -0.249,0.503 -0.165,0.099 -0.472,0.147 -0.918,0.147 h -0.16 z m -4.949,-2.485 v 4.33 h 3.045 v -0.597 h -2.158 v -1.085 h 2.158 v -0.618 h -2.158 v -1.4 h 2.158 v -0.63 z m -2.986,-0.168 -2.434,4.498 h 0.921 l 1.223,-2.307 c 0.071,-0.134 0.131,-0.257 0.178,-0.371 0.047,-0.113 0.085,-0.221 0.112,-0.324 0.033,0.109 0.074,0.221 0.123,0.337 0.05,0.117 0.108,0.237 0.176,0.358 l 1.217,2.307 h 0.917 z m -3.894,4.498 h 0.887 v -4.33 h -0.887 z m -6.146,-4.33 v 4.502 l 3.465,-2.647 c 0.095,-0.075 0.191,-0.155 0.288,-0.239 0.096,-0.085 0.198,-0.181 0.305,-0.288 v 3.002 h 0.821 v -4.498 l -3.537,2.694 c -0.094,0.073 -0.186,0.15 -0.274,0.231 -0.089,0.082 -0.173,0.165 -0.252,0.254 v -3.011 z m -5.702,4.33 h 0.875 v -2.628 c 0,-0.391 0.113,-0.684 0.341,-0.881 0.228,-0.196 0.567,-0.294 1.019,-0.294 0.45,0 0.789,0.098 1.016,0.294 0.228,0.197 0.341,0.49 0.341,0.881 v 2.628 h 0.887 v -2.694 c 0,-0.586 -0.186,-1.024 -0.558,-1.315 -0.373,-0.29 -0.935,-0.436 -1.685,-0.436 -0.75,0 -1.311,0.146 -1.682,0.436 -0.37,0.289 -0.554,0.728 -0.554,1.315 z"
     style="fill:#000000;fill-opacity:1;fill-rule:evenodd;stroke:none"
     transform="matrix(7.5524706,0,0,-7.5524706,975.60033,612.47168)"
     clip-path="url(#clipPath2505)" />
  <path
     id="path2506"
     d="m 263.662,1867.057 h 3.4 v -0.612 h -3.4 z"
     style="fill:#00548e;fill-opacity:1;fill-rule:nonzero;stroke:none"
     transform="matrix(7.5524706,0,0,-7.5524706,-1965.1075,14214.911)"
     clip-path="url(#clipPath2507)" />
  <path
     id="path2508"
     d="m 389.066,1867.057 h -3.4 v -0.612 h 3.4 z"
     style="fill:#00548e;fill-opacity:1;fill-rule:nonzero;stroke:none"
     transform="matrix(7.5524706,0,0,-7.5524706,-1965.1075,14214.911)"
     clip-path="url(#clipPath2509)" />
  <path
     id="path2510"
     d="m 263.662,1848.831 h 3.4 v -0.611 h -3.4 z"
     style="fill:#00548e;fill-opacity:1;fill-rule:nonzero;stroke:none"
     transform="matrix(7.5524706,0,0,-7.5524706,-1965.1075,14214.911)"
     clip-path="url(#clipPath2511)" />
  <path
     id="path2512"
     d="m 389.066,1848.831 h -3.4 v -0.611 h 3.4 z"
     style="fill:#00548e;fill-opacity:1;fill-rule:nonzero;stroke:none"
     transform="matrix(7.5524706,0,0,-7.5524706,-1965.1075,14214.911)"
     clip-path="url(#clipPath2513)" />
  <path
     id="path2514"
     d="m 269.51,1867.057 h 3.401 v -0.612 h -3.401 z"
     style="fill:#00548e;fill-opacity:1;fill-rule:nonzero;stroke:none"
     transform="matrix(7.5524706,0,0,-7.5524706,-1965.1075,14214.911)"
     clip-path="url(#clipPath2515)" />
  <path
     id="path2516"
     d="m 383.217,1867.057 h -3.401 v -0.612 h 3.401 z"
     style="fill:#00548e;fill-opacity:1;fill-rule:nonzero;stroke:none"
     transform="matrix(7.5524706,0,0,-7.5524706,-1965.1075,14214.911)"
     clip-path="url(#clipPath2517)" />
  <path
     id="path2518"
     d="m 269.51,1848.831 h 3.401 v -0.611 h -3.401 z"
     style="fill:#00548e;fill-opacity:1;fill-rule:nonzero;stroke:none"
     transform="matrix(7.5524706,0,0,-7.5524706,-1965.1075,14214.911)"
     clip-path="url(#clipPath2519)" />
  <path
     id="path2520"
     d="m 383.217,1848.831 h -3.401 v -0.611 h 3.401 z"
     style="fill:#00548e;fill-opacity:1;fill-rule:nonzero;stroke:none"
     transform="matrix(7.5524706,0,0,-7.5524706,-1965.1075,14214.911)"
     clip-path="url(#clipPath2521)" />
  <path
     id="path2522"
     d="m 275.359,1867.057 h 3.401 v -0.612 h -3.401 z"
     style="fill:#00548e;fill-opacity:1;fill-rule:nonzero;stroke:none"
     transform="matrix(7.5524706,0,0,-7.5524706,-1965.1075,14214.911)"
     clip-path="url(#clipPath2523)" />
  <path
     id="path2524"
     d="m 377.369,1867.057 h -3.4 v -0.612 h 3.4 z"
     style="fill:#00548e;fill-opacity:1;fill-rule:nonzero;stroke:none"
     transform="matrix(7.5524706,0,0,-7.5524706,-1965.1075,14214.911)"
     clip-path="url(#clipPath2525)" />
  <path
     id="path2526"
     d="m 275.359,1848.831 h 3.401 v -0.611 h -3.401 z"
     style="fill:#00548e;fill-opacity:1;fill-rule:nonzero;stroke:none"
     transform="matrix(7.5524706,0,0,-7.5524706,-1965.1075,14214.911)"
     clip-path="url(#clipPath2527)" />
  <path
     id="path2528"
     d="m 377.369,1848.831 h -3.4 v -0.611 h 3.4 z"
     style="fill:#00548e;fill-opacity:1;fill-rule:nonzero;stroke:none"
     transform="matrix(7.5524706,0,0,-7.5524706,-1965.1075,14214.911)"
     clip-path="url(#clipPath2529)" />
  <path
     id="path2530"
     d="m 281.208,1867.057 h 3.4 v -0.612 h -3.4 z"
     style="fill:#00548e;fill-opacity:1;fill-rule:nonzero;stroke:none"
     transform="matrix(7.5524706,0,0,-7.5524706,-1965.1075,14214.911)"
     clip-path="url(#clipPath2531)" />
  <path
     id="path2532"
     d="m 371.52,1867.057 h -3.4 v -0.612 h 3.4 z"
     style="fill:#00548e;fill-opacity:1;fill-rule:nonzero;stroke:none"
     transform="matrix(7.5524706,0,0,-7.5524706,-1965.1075,14214.911)"
     clip-path="url(#clipPath2533)" />
  <path
     id="path2534"
     d="m 281.208,1848.831 h 3.4 v -0.611 h -3.4 z"
     style="fill:#00548e;fill-opacity:1;fill-rule:nonzero;stroke:none"
     transform="matrix(7.5524706,0,0,-7.5524706,-1965.1075,14214.911)"
     clip-path="url(#clipPath2535)" />
  <path
     id="path2536"
     d="m 371.52,1848.831 h -3.4 v -0.611 h 3.4 z"
     style="fill:#00548e;fill-opacity:1;fill-rule:nonzero;stroke:none"
     transform="matrix(7.5524706,0,0,-7.5524706,-1965.1075,14214.911)"
     clip-path="url(#clipPath2537)" />
  <path
     id="path2538"
     d="m 287.056,1867.057 h 3.468 v -0.612 h -3.468 z"
     style="fill:#00548e;fill-opacity:1;fill-rule:nonzero;stroke:none"
     transform="matrix(7.5524706,0,0,-7.5524706,-1965.1075,14214.911)"
     clip-path="url(#clipPath2539)" />
  <path
     id="path2540"
     d="m 365.671,1867.057 h -3.467 v -0.612 h 3.467 z"
     style="fill:#00548e;fill-opacity:1;fill-rule:nonzero;stroke:none"
     transform="matrix(7.5524706,0,0,-7.5524706,-1965.1075,14214.911)"
     clip-path="url(#clipPath2541)" />
  <path
     id="path2542"
     d="m 287.056,1848.831 h 3.468 v -0.611 h -3.468 z"
     style="fill:#00548e;fill-opacity:1;fill-rule:nonzero;stroke:none"
     transform="matrix(7.5524706,0,0,-7.5524706,-1965.1075,14214.911)"
     clip-path="url(#clipPath2543)" />
  <path
     id="path2544"
     d="m 365.671,1848.831 h -3.467 v -0.611 h 3.467 z"
     style="fill:#00548e;fill-opacity:1;fill-rule:nonzero;stroke:none"
     transform="matrix(7.5524706,0,0,-7.5524706,-1965.1075,14214.911)"
     clip-path="url(#clipPath2545)" />
  <path
     id="path2546"
     d="m 292.905,1867.057 h 3.4 v -0.612 h -3.4 z"
     style="fill:#00548e;fill-opacity:1;fill-rule:nonzero;stroke:none"
     transform="matrix(7.5524706,0,0,-7.5524706,-1965.1075,14214.911)"
     clip-path="url(#clipPath2547)" />
  <path
     id="path2548"
     d="m 359.823,1867.057 h -3.4 v -0.612 h 3.4 z"
     style="fill:#00548e;fill-opacity:1;fill-rule:nonzero;stroke:none"
     transform="matrix(7.5524706,0,0,-7.5524706,-1965.1075,14214.911)"
     clip-path="url(#clipPath2549)" />
  <path
     id="path2550"
     d="m 292.905,1848.831 h 3.4 v -0.611 h -3.4 z"
     style="fill:#00548e;fill-opacity:1;fill-rule:nonzero;stroke:none"
     transform="matrix(7.5524706,0,0,-7.5524706,-1965.1075,14214.911)"
     clip-path="url(#clipPath2551)" />
  <path
     id="path2552"
     d="m 359.823,1848.831 h -3.4 v -0.611 h 3.4 z"
     style="fill:#00548e;fill-opacity:1;fill-rule:nonzero;stroke:none"
     transform="matrix(7.5524706,0,0,-7.5524706,-1965.1075,14214.911)"
     clip-path="url(#clipPath2553)" />
  <path
     id="path2554"
     d="m 328.074,1866.989 h 3.74 v -0.612 h -3.74 z"
     style="fill:#00548e;fill-opacity:1;fill-rule:nonzero;stroke:none"
     transform="matrix(7.5524706,0,0,-7.5524706,-1965.1075,14214.911)"
     clip-path="url(#clipPath2555)" />
  <path
     id="path2556"
     d="m 328.754,1866.104 h 2.447 v -0.476 h -2.447 z"
     style="fill:#00548e;fill-opacity:1;fill-rule:nonzero;stroke:none"
     transform="matrix(7.5524706,0,0,-7.5524706,-1965.1075,14214.911)"
     clip-path="url(#clipPath2557)" />
  <path
     id="path2558"
     d="m 304.058,1872.429 h 44.681 v -0.68 h -44.681 z"
     style="fill:#00548e;fill-opacity:1;fill-rule:nonzero;stroke:none"
     transform="matrix(7.5524706,0,0,-7.5524706,-1965.1075,14214.911)"
     clip-path="url(#clipPath2559)" />
  <path
     id="path2560"
     d="m 0,0 z m 32.507,-4.965 h 5.236 l -5.236,1.837 -12.65,4.42 H 19.79 L 1.835,-4.965 Z m 0,-3.06 h 4.42 v 2.381 H 32.507 2.652 v -2.381 z m 12.377,2.381 h -7.277 v -2.38 h 7.277 z M 66.238,-8.706 Z M 87.932,-2.041 66.306,5.577 66.238,5.508 44.476,-2.041 Z m -21.75,-5.984 v 0.003 h 20.741 v 2.378 H 45.497 v -2.381 z m 0.056,-0.677 V -8.706 H 32.507 0 v 0.681 h 2.04 v 2.381 H 0 v 0.679 l 12.445,4.352 H 0 V 0 h 14.213 l 5.577,1.972 h 0.067 L 25.434,0 h 7.073 8.705 7.344 l 17.682,6.256 h 0.068 L 83.919,0 h 15.983 7.003 l 5.646,2.04 5.575,-2.04 h 14.214 v -0.613 h -12.377 l 12.377,-4.352 v -0.679 h -1.971 v -2.381 h 2.038 v -0.681 h -19.856 z m 29.238,3.064 v -2.381 l 17.075,-0.006 h 17.136 v 2.381 z m -0.818,0.68 35.777,-0.007 -17.884,6.257 z m -1.903,0 12.315,4.345 H 85.687 l 4.148,-1.428 V -2.72 H 42.572 v 0.679 l 4.148,1.428 h -5.508 -8.705 -5.236 l 5.236,-1.835 7.14,-2.517 z m 2.041,-3.061 v 2.381 l -7.26,-0.006 v -2.378 z"
     style="fill:#00548e;fill-opacity:1;fill-rule:nonzero;stroke:none"
     transform="matrix(7.5524706,0,0,-7.5524706,7.8143531e-5,47.248543)"
     clip-path="url(#clipPath2561)" />
  <path
     id="path2562"
     d="m 306.878,1866.99 h 3.74 v -0.612 h -3.74 z"
     style="fill:#00548e;fill-opacity:1;fill-rule:nonzero;stroke:none"
     transform="matrix(7.5524706,0,0,-7.5524706,-1965.1075,14214.911)"
     clip-path="url(#clipPath2563)" />
  <path
     id="path2564"
     d="m 307.491,1866.106 h 2.516 v -0.476 h -2.516 z"
     style="fill:#00548e;fill-opacity:1;fill-rule:nonzero;stroke:none"
     transform="matrix(7.5524706,0,0,-7.5524706,-1965.1075,14214.911)"
     clip-path="url(#clipPath2565)" />
  <path
     id="path2566"
     d="m 328.053,1866.99 h 3.741 v -0.612 h -3.741 z"
     style="fill:#00548e;fill-opacity:1;fill-rule:nonzero;stroke:none"
     transform="matrix(7.5524706,0,0,-7.5524706,-1965.1075,14214.911)"
     clip-path="url(#clipPath2567)" />
  <path
     id="path2568"
     d="m 328.666,1866.106 h 2.517 v -0.476 h -2.517 z"
     style="fill:#00548e;fill-opacity:1;fill-rule:nonzero;stroke:none"
     transform="matrix(7.5524706,0,0,-7.5524706,-1965.1075,14214.911)"
     clip-path="url(#clipPath2569)" />
  <path
     id="path2570"
     d="m 335.179,1866.99 h 3.741 v -0.612 h -3.741 z"
     style="fill:#00548e;fill-opacity:1;fill-rule:nonzero;stroke:none"
     transform="matrix(7.5524706,0,0,-7.5524706,-1965.1075,14214.911)"
     clip-path="url(#clipPath2571)" />
  <path
     id="path2572"
     d="m 335.792,1866.106 h 2.516 v -0.476 h -2.516 z"
     style="fill:#00548e;fill-opacity:1;fill-rule:nonzero;stroke:none"
     transform="matrix(7.5524706,0,0,-7.5524706,-1965.1075,14214.911)"
     clip-path="url(#clipPath2573)" />
  <path
     id="path2574"
     d="m 321.029,1866.938 h 3.671 v -0.612 h -3.671 z"
     style="fill:#00548e;fill-opacity:1;fill-rule:nonzero;stroke:none"
     transform="matrix(7.5524706,0,0,-7.5524706,-1965.1075,14214.911)"
     clip-path="url(#clipPath2575)" />
  <path
     id="path2576"
     d="m 321.64,1866.054 h 2.448 v -0.476 h -2.448 z"
     style="fill:#00548e;fill-opacity:1;fill-rule:nonzero;stroke:none"
     transform="matrix(7.5524706,0,0,-7.5524706,-1965.1075,14214.911)"
     clip-path="url(#clipPath2577)" />
  <path
     id="path2578"
     d="m 313.95,1866.968 h 3.672 v -0.612 h -3.672 z"
     style="fill:#00548e;fill-opacity:1;fill-rule:nonzero;stroke:none"
     transform="matrix(7.5524706,0,0,-7.5524706,-1965.1075,14214.911)"
     clip-path="url(#clipPath2579)" />
  <path
     id="path2580"
     d="m 314.561,1866.084 h 2.448 v -0.476 h -2.448 z"
     style="fill:#00548e;fill-opacity:1;fill-rule:nonzero;stroke:none"
     transform="matrix(7.5524706,0,0,-7.5524706,-1965.1075,14214.911)"
     clip-path="url(#clipPath2581)" />
  <path
     id="path2582"
     d="m 342.243,1866.99 h 3.672 v -0.612 h -3.672 z"
     style="fill:#00548e;fill-opacity:1;fill-rule:nonzero;stroke:none"
     transform="matrix(7.5524706,0,0,-7.5524706,-1965.1075,14214.911)"
     clip-path="url(#clipPath2583)" />
  <path
     id="path2584"
     d="m 342.855,1866.106 h 2.448 v -0.476 h -2.448 z"
     style="fill:#00548e;fill-opacity:1;fill-rule:nonzero;stroke:none"
     transform="matrix(7.5524706,0,0,-7.5524706,-1965.1075,14214.911)"
     clip-path="url(#clipPath2585)" />
  <path
     id="path2586"
     d="m 306.377,1842.44 h 4.76 v -0.613 h -4.76 z"
     style="fill:#00548e;fill-opacity:1;fill-rule:nonzero;stroke:none"
     transform="matrix(7.5524706,0,0,-7.5524706,-1965.1075,14214.911)"
     clip-path="url(#clipPath2587)" />
  <path
     id="path2588"
     d="m 327.551,1842.44 h 4.76 v -0.613 h -4.76 z"
     style="fill:#00548e;fill-opacity:1;fill-rule:nonzero;stroke:none"
     transform="matrix(7.5524706,0,0,-7.5524706,-1965.1075,14214.911)"
     clip-path="url(#clipPath2589)" />
  <path
     id="path2590"
     d="m 334.677,1842.44 h 4.76 v -0.613 h -4.76 z"
     style="fill:#00548e;fill-opacity:1;fill-rule:nonzero;stroke:none"
     transform="matrix(7.5524706,0,0,-7.5524706,-1965.1075,14214.911)"
     clip-path="url(#clipPath2591)" />
  <path
     id="path2592"
     d="m 320.484,1842.388 h 4.761 v -0.613 h -4.761 z"
     style="fill:#00548e;fill-opacity:1;fill-rule:nonzero;stroke:none"
     transform="matrix(7.5524706,0,0,-7.5524706,-1965.1075,14214.911)"
     clip-path="url(#clipPath2593)" />
  <path
     id="path2594"
     d="m 313.405,1842.418 h 4.761 v -0.612 h -4.761 z"
     style="fill:#00548e;fill-opacity:1;fill-rule:nonzero;stroke:none"
     transform="matrix(7.5524706,0,0,-7.5524706,-1965.1075,14214.911)"
     clip-path="url(#clipPath2595)" />
  <path
     id="path2596"
     d="m 341.698,1842.44 h 4.76 v -0.613 h -4.76 z"
     style="fill:#00548e;fill-opacity:1;fill-rule:nonzero;stroke:none"
     transform="matrix(7.5524706,0,0,-7.5524706,-1965.1075,14214.911)"
     clip-path="url(#clipPath2597)" />
  <path
     id="path2598"
     d="m 338.176,1857.321 h 4.782 v -9.239 h -4.782 z m -7.126,0 h 4.782 v -9.239 h -4.782 z m -7.058,0 h 4.782 v -9.239 h -4.782 z m -7.063,0 h 4.767 v -9.239 h -4.767 z m -7.053,0 h 4.797 v -9.239 h -4.797 z m 33.764,6.859 h 0.825 v -20.515 h -0.825 z m -7.126,0 h 0.982 v -20.515 h -0.982 z m -7.058,0 h 0.913 v -20.515 h -0.913 z m -7.079,0 h 0.934 v -20.515 h -0.934 z m -7.046,0 h 0.901 v -20.515 h -0.901 z m -7.03,0 h 0.894 v -20.515 h -0.894 z m -43.618,1.38 h 1.359 v -15.914 h -1.359 z m 7.208,-15.913 h -1.36 v 15.914 h 1.36 z m 5.848,0 h -1.359 v 15.914 h 1.359 z m 4.489,15.913 h 1.359 v -15.914 h -1.359 z m 7.209,-15.913 h -1.36 v 15.914 h 1.36 z m 5.848,0 h -1.359 v 15.914 h 1.359 z m 12.335,7.684 v 0.613 z m 49.823,-7.684 h 1.36 v 15.914 h -1.36 z m 6.527,15.913 h -0.679 v -15.913 h 0.679 0.682 v 15.913 z m 5.169,-15.913 h 1.361 v 15.914 h -1.361 z m 6.53,15.913 h -0.681 v -15.913 h 0.681 0.68 v 15.913 z m 11.696,-15.913 v 0 h -0.679 v 15.913 h 0.679 0.681 v -15.913 z m -5.848,15.913 h -0.68 v -15.913 h 0.68 0.679 v 15.913 z m -26.522,-32.507 h -57.194 v 1.496 h 57.194 z m -2.041,2.176 h -53.113 v 1.428 h 53.113 z m -7.808,12.173 v -4.349 h -2.187 v 4.345 h -4.783 v -4.345 h -2.343 v 4.345 h -4.783 v -4.345 h -2.275 v 4.345 h -4.783 v -4.345 h -2.296 v 4.345 h -4.767 v -4.345 h -2.256 v 4.345 h -4.797 v -4.345 h -2.256 v 4.349 h -9.819 v -12.173 h 1.429 v 2.108 h 2.107 v 2.041 h 4.294 45.827 v -2.041 h 2.175 v -2.108 h 1.362 v 12.173 z m -37.526,17.503 h 2.256 v -6.972 h 4.797 v 6.972 h 2.256 v -6.972 h 4.767 v 6.972 h 2.296 v -6.972 h 4.783 v 6.972 h 2.275 v -6.972 h 4.783 v 6.972 h 2.343 v -6.972 h 4.783 v 6.972 h 2.187 v -6.961 0 h 11.616 v 8.301 h 2.652 v -8.296 h 3.196 v 8.296 h 1.36 1.294 v -8.296 h 3.195 v 8.296 h 2.721 v -8.296 h 3.196 v 8.296 h 1.293 1.292 v -8.296 h 3.196 v 8.296 h 1.36 1.359 v -8.296 h 3.197 v 8.296 h 1.292 1.362 v -8.296 h 3.807 v -0.613 h -3.807 v -8.296 h -1.362 -1.292 v 8.296 h -3.197 v -8.296 h -1.359 -1.36 v 8.296 h -3.196 v -8.296 h -1.292 -1.293 v 8.296 h -3.196 v -8.296 h -2.721 v 8.296 h -3.195 v -8.296 h -1.294 -1.36 v 8.296 h -3.196 v -8.296 h -2.652 v 8.296 h -11.616 v -0.01 -9.239 h 47.388 v -0.68 h -36.928 v -3.536 h 36.928 v -0.612 h -36.928 v -3.876 h 36.928 v -0.612 h -36.928 v -3.537 h 36.928 v -0.68 h -36.928 v -1.496 h 36.928 v -1.087 h -132.34 v 1.087 h 36.927 v 1.496 h -36.927 v 0.68 h 36.927 v 3.537 h -36.927 v 0.612 h 36.927 v 3.876 h -36.927 v 0.612 h 36.927 v 3.536 h -36.927 v 0.68 h 47.426 v 9.249 h -11.654 v -8.296 h -2.653 v 8.296 h -3.196 v -8.296 h -2.652 v 8.296 h -3.198 v -8.296 h -2.651 v 8.296 h -3.265 v -8.296 h -2.584 v 8.296 h -3.196 v -8.296 h -2.721 v 8.296 h -3.195 v -8.296 h -2.654 v 8.296 h -3.807 v 0.613 h 3.807 v 8.296 h 2.654 v -8.296 h 3.195 v 8.296 h 2.721 v -8.296 h 3.196 v 8.296 h 2.584 v -8.296 h 3.265 v 8.296 h 2.651 v -8.296 h 3.198 v 8.296 h 2.652 v -8.296 h 3.196 v 8.296 h 2.653 v -8.296 h 11.654 v 6.961 z m 43.227,-27.568 H 301.95 v 1.429 h 48.897 z"
     style="fill:#00548e;fill-opacity:1;fill-rule:evenodd;stroke:none"
     transform="matrix(7.5524706,0,0,-7.5524706,-1965.1075,14214.911)"
     clip-path="url(#clipPath2599)" />
  <path
     id="path2600"
     d="m 306.413,1839.99 h 4.685 v 0.642 h -4.685 z m -0.612,1.254 h 5.91 v -1.866 h -5.91 z"
     style="fill:#00548e;fill-opacity:1;fill-rule:evenodd;stroke:none"
     transform="matrix(7.5524706,0,0,-7.5524706,-1965.1075,14214.911)"
     clip-path="url(#clipPath2601)" />
  <path
     id="path2602"
     d="m 313.443,1839.99 h 4.685 v 0.642 h -4.685 z m -0.612,1.254 h 5.909 v -1.866 h -5.909 z"
     style="fill:#00548e;fill-opacity:1;fill-rule:evenodd;stroke:none"
     transform="matrix(7.5524706,0,0,-7.5524706,-1965.1075,14214.911)"
     clip-path="url(#clipPath2603)" />
  <path
     id="path2604"
     d="m 320.522,1839.975 h 4.685 v 0.642 h -4.685 z m -0.612,1.254 h 5.909 v -1.867 h -5.909 z"
     style="fill:#00548e;fill-opacity:1;fill-rule:evenodd;stroke:none"
     transform="matrix(7.5524706,0,0,-7.5524706,-1965.1075,14214.911)"
     clip-path="url(#clipPath2605)" />
  <path
     id="path2606"
     d="m 327.589,1839.99 h 4.685 v 0.642 h -4.685 z m -0.613,1.254 h 5.91 v -1.866 h -5.91 z"
     style="fill:#00548e;fill-opacity:1;fill-rule:evenodd;stroke:none"
     transform="matrix(7.5524706,0,0,-7.5524706,-1965.1075,14214.911)"
     clip-path="url(#clipPath2607)" />
  <path
     id="path2608"
     d="m 334.714,1839.99 h 4.685 v 0.642 h -4.685 z m -0.612,1.254 h 5.909 v -1.866 h -5.909 z"
     style="fill:#00548e;fill-opacity:1;fill-rule:evenodd;stroke:none"
     transform="matrix(7.5524706,0,0,-7.5524706,-1965.1075,14214.911)"
     clip-path="url(#clipPath2609)" />
  <path
     id="path2610"
     d="m 341.735,1839.99 h 4.685 v 0.642 h -4.685 z m -0.612,1.254 h 5.91 v -1.866 h -5.91 z"
     style="fill:#00548e;fill-opacity:1;fill-rule:evenodd;stroke:none"
     transform="matrix(7.5524706,0,0,-7.5524706,-1965.1075,14214.911)"
     clip-path="url(#clipPath2611)" />
</svg>
