<?xml version="1.0" encoding="UTF-8" standalone="no"?>
<!-- Created with Inkscape (http://www.inkscape.org/) -->

<svg
   width="1100"
   height="440"
   viewBox="0 0 1100 440"
   version="1.1"
   id="svg1"
   inkscape:version="1.4.3 (0d15f75042, 2025-12-25)"
   sodipodi:docname="cover-animation.svg"
   inkscape:export-filename="cover.png"
   inkscape:export-xdpi="96"
   inkscape:export-ydpi="96"
   xmlns:inkscape="http://www.inkscape.org/namespaces/inkscape"
   xmlns:sodipodi="http://sodipodi.sourceforge.net/DTD/sodipodi-0.dtd"
   xmlns="http://www.w3.org/2000/svg"
   xmlns:svg="http://www.w3.org/2000/svg"
   xmlns:rdf="http://www.w3.org/1999/02/22-rdf-syntax-ns#"
   xmlns:cc="http://creativecommons.org/ns#"
   xmlns:dc="http://purl.org/dc/elements/1.1/">
  <sodipodi:namedview
     id="namedview1"
     pagecolor="#ffffff"
     bordercolor="#000000"
     borderopacity="0.25"
     inkscape:showpageshadow="2"
     inkscape:pageopacity="0.0"
     inkscape:pagecheckerboard="0"
     inkscape:deskcolor="#d1d1d1"
     inkscape:document-units="px"
     showguides="true"
     inkscape:zoom="0.70644641"
     inkscape:cx="445.18593"
     inkscape:cy="272.49059"
     inkscape:window-width="1920"
     inkscape:window-height="1011"
     inkscape:window-x="0"
     inkscape:window-y="0"
     inkscape:window-maximized="1"
     inkscape:current-layer="g28">
    <sodipodi:guide
       position="55,495"
       orientation="-1,0"
       id="guide24"
       inkscape:locked="false"
       inkscape:label=""
       inkscape:color="rgb(0,134,229)" />
    <sodipodi:guide
       position="-55,385"
       orientation="0,1"
       id="guide25"
       inkscape:locked="false"
       inkscape:label=""
       inkscape:color="rgb(0,134,229)" />
    <sodipodi:guide
       position="1045,495"
       orientation="-1,0"
       id="guide26"
       inkscape:locked="false"
       inkscape:label=""
       inkscape:color="rgb(0,134,229)" />
    <sodipodi:guide
       position="-55,55"
       orientation="0,1"
       id="guide27"
       inkscape:locked="false"
       inkscape:label=""
       inkscape:color="rgb(0,134,229)" />
    <sodipodi:guide
       position="-55,219.17646"
       orientation="0,1"
       id="guide28"
       inkscape:locked="false"
       inkscape:label=""
       inkscape:color="rgb(0,134,229)" />
    <sodipodi:guide
       position="-55,412.5"
       orientation="0,1"
       id="guide29"
       inkscape:locked="false"
       inkscape:label=""
       inkscape:color="rgb(0,134,229)" />
    <sodipodi:guide
       position="-55,27.5"
       orientation="0,1"
       id="guide30"
       inkscape:locked="false"
       inkscape:label=""
       inkscape:color="rgb(0,134,229)" />
    <sodipodi:guide
       position="1072.5,495"
       orientation="-1,0"
       id="guide32"
       inkscape:locked="false"
       inkscape:label=""
       inkscape:color="rgb(0,134,229)" />
  </sodipodi:namedview>
  <defs
     id="defs1">
    <rect
       x="450"
       y="400"
       width="503.55011"
       height="84.995087"
       id="rect10" />
    <rect
       x="450"
       y="400"
       width="503.55011"
       height="84.995087"
       id="rect24" />
    <rect
       x="450"
       y="400"
       width="503.55011"
       height="84.995087"
       id="rect10-7" />
  </defs>
  <g
     inkscape:groupmode="layer"
     id="layer2"
     inkscape:label="Background"
     sodipodi:insensitive="true">
    <rect
       style="fill:#ffd000;stroke-width:0.944882;stroke-linecap:square;stroke-miterlimit:5"
       id="rect1"
       width="1100"
       height="440"
       x="0"
       y="0" />
  </g>
  <g
     inkscape:label="Logo"
     inkscape:groupmode="layer"
     id="layer1"
     transform="matrix(0.66027147,0,0,0.66027147,-54.556423,10.133342)"
     style="stroke-width:1.51453">
    <g
       id="g1"
       style="display:none"
       sodipodi:insensitive="true">
      <text
         xml:space="preserve"
         id="text9"
         style="font-style:normal;font-variant:normal;font-weight:bold;font-stretch:normal;font-size:27.4682px;line-height:1.25;font-family:'Inter 28pt';-inkscape-font-specification:'Inter 28pt Bold';text-align:center;letter-spacing:0px;word-spacing:0px;writing-mode:lr-tb;direction:ltr;white-space:pre;shape-inside:url(#rect10);display:inline;fill:#000000;fill-opacity:1;stroke:none;stroke-width:3.78632;stroke-linecap:round;stroke-miterlimit:0;stroke-dasharray:none"
         x="-1647.1147"
         y="0"
         transform="matrix(1.1427478,0,0,1.1427478,351.47653,-97.39281)"
         inkscape:label="Simpósio Interdisciplinar Brasileieo de Modelos Baseados em Agentes"><tspan
           x="450"
           y="425.42582"
           id="tspan8"><tspan
             style="font-weight:500;font-family:Montserrat;-inkscape-font-specification:'Montserrat Medium';text-align:start"
             id="tspan6">Simpósio Interdisciplinar Brasileiro</tspan><tspan
             style="font-weight:500;font-family:Montserrat;-inkscape-font-specification:'Montserrat Medium';text-align:start"
             id="tspan7">
</tspan></tspan><tspan
           x="450"
           y="459.94105"
           id="tspan13"><tspan
             dx="0 0 -0.16626526 0.16626288 0 0 0 0 0 0 -0.16625668 0.16626669 0 0 0 0 0 0 0 -0.16627194 0.16626669 0 -0.16625763 0.16626669"
             style="letter-spacing:0.131263px;word-spacing:0.166266px"
             id="tspan9">de Modelos Baseados em Agentes</tspan></tspan></text>
      <text
         xml:space="preserve"
         style="font-weight:bold;font-size:130.085px;font-family:Oswald;-inkscape-font-specification:'Oswald Bold';text-align:start;letter-spacing:0px;word-spacing:0px;writing-mode:lr-tb;direction:ltr;text-anchor:start;display:inline;fill:#000000;fill-opacity:1;stroke:none;stroke-width:3.69406;stroke-linecap:round;stroke-miterlimit:0;stroke-dasharray:none"
         x="864.26819"
         y="334.98926"
         id="text1"
         inkscape:label="SIMBRA"><tspan
           sodipodi:role="line"
           id="tspan1"
           x="864.26819"
           y="334.98926"
           style="font-style:normal;font-variant:normal;font-weight:800;font-stretch:normal;font-size:130.085px;font-family:Montserrat;-inkscape-font-specification:'Montserrat Ultra-Bold';letter-spacing:0px;fill:#000000;stroke:none;stroke-width:3.69406;stroke-linecap:round;stroke-dasharray:none"><tspan
   style="fill:#000000;stroke-width:3.69406"
   id="tspan21">S</tspan><tspan
   style="fill:#000000;stroke-width:3.69406"
   id="tspan19">I</tspan><tspan
   style="fill:#000000;stroke-width:3.69406"
   id="tspan20">M</tspan><tspan
   style="fill:#000000;stroke-width:3.69406"
   id="tspan22">B</tspan>RA</tspan></text>
      <circle
         style="display:inline;fill:#ffd000;fill-opacity:1;stroke-width:2.03253;stroke-linecap:square;stroke-miterlimit:3"
         id="circle4-9-3"
         cx="617"
         cy="335"
         r="200"
         inkscape:label="Background" />
      <path
         d="m 595.02826,466.75151 5.84526,6.22863 11.68415,6.43634 8.0299,6.32632 4.28935,4.71326 2.30465,3.72157 8.7649,-10.24688 8.60275,-10.29977 6.94838,-9.50504 7.74089,-8.43998 1.06351,-13.08229 3.80919,-12.2048 10.2264,-7.53734 11.16645,-5.85943 12.80476,-4.03364 13.67664,-2.79718 6.94892,-10.5339 6.20516,-11.31972 3.85508,-11.26778 4.89592,-11.43888 -0.62036,-13.13851 -0.52924,-10.34002 7.38136,-11.01451 8.19368,-10.84509 6.5704,-8.23215 6.43816,-8.34768 3.15688,-10.25944 -1.30052,-11.89485 -6.58816,-9.37451 -9.9004,-1.97264 -7.83716,-5.64797 -7.94476,-7.48043 -7.77752,-1.92077 -10.37676,-0.37352 -9.06584,-2.30042 -8.37184,-1.46968 -7.29193,-7.23355 -10.36992,-4.08534 -12.96689,-3.54455 -11.16126,-4.18447 -3.40878,-11.42779 -5.91294,-5.57506 -1.9435,-6.33067 -3.51301,-8.54317 -4.73178,3.10848 -7.36792,9.09054 -12.0509,1.36978 -11.84283,-0.0622 -11.56556,3.97259 -9.21654,2.38263 -7.17353,-3.99335 -0.23283,-11.6334 -1.24688,-11.1906 -7.95788,3.19582 -9.11468,2.1792 -10.42619,2.90202 -8.04532,-0.76854 3.77252,7.88431 3.74041,7.50799 -12.1607,8.29221 -11.52898,-1.61363 -4.70869,-6.17521 -6.45237,0.70029 -9.5468,2.19284 0.65098,6.63645 -4.75095,4.93621 2.45219,6.24813 1.74203,13.68998 -4.58243,12.07475 -12.34713,4.50139 -10.31993,7.37603 -4.19789,12.81657 2.33146,12.23159 4.88455,7.08386 8.82256,4.38946 6.51405,-0.60392 0.48042,6.97822 12.11461,0.38167 12.26037,-3.2625 11.07371,-4.7811 3.55132,8.02727 6.29197,10.47397 13.36587,5.40042 11.41365,4.7557 7.22997,9.16031 2.34443,10.8541 10.76326,2.77843 4.56917,7.61055 3.06709,7.33099 -2.80279,12.81428 2.37933,14.08041 8.82311,3.12115 7.72619,8.81835 5.48894,5.82999 4.02737,6.58575 2.36375,8.42094 0.85889,9.43987 -8.36502,4.96388 -7.78735,4.0035 -6.35362,8.02543 z"
         style="display:inline;fill:#183eff;fill-rule:nonzero;stroke:#000000;stroke-width:4.52511;stroke-linecap:square;stroke-linejoin:miter;stroke-dasharray:none"
         id="path24-9-0"
         inkscape:label="Brazil"
         inkscape:linked-fill="path7" />
      <path
         style="baseline-shift:baseline;display:inline;overflow:visible;vector-effect:none;fill:#ffffff;stroke-width:0.603349;stroke-linecap:square;stroke-miterlimit:0;enable-background:accumulate;stop-color:#000000"
         d="m 713.5422,292.75791 v 1.4939 c 0,24.79873 -2.50368,48.58451 -8.6296,65.98213 -3.06296,8.6988 -7.02824,15.78188 -11.93407,20.62826 -4.90584,4.84637 -10.69202,7.50529 -17.77973,7.50529 h -1.49391 v 2.98779 h 1.49391 c 7.85126,0 14.51425,-3.06769 19.87897,-8.36738 5.36471,-5.29969 9.49139,-12.78214 12.65303,-21.76114 6.32324,-17.95802 8.7992,-41.97703 8.7992,-66.97495 v -1.4939 z"
         id="path12-8"
         inkscape:label="Link Segment 3" />
      <path
         style="baseline-shift:baseline;display:inline;overflow:visible;vector-effect:none;fill:#ffffff;stroke-width:0.603349;stroke-linecap:square;stroke-miterlimit:0;enable-background:accumulate;stop-color:#000000"
         d="m 535.76816,270.84739 -1.4939,1.49389 c 0,5.14566 3.19898,11.23742 8.14408,17.7992 4.9451,6.56177 11.73288,13.53067 19.27287,19.93966 14.63583,12.44047 31.89641,22.84935 44.62402,23.45345 12.68932,47.27614 23.56861,82.80532 23.56861,120.06752 v 1.49389 h 2.98779 v -1.49389 c 0,-38.13738 -11.15119,-74.11366 -23.95297,-121.89054 l -1.44332,-1.1072 c -11.07975,0 -29.05182,-10.22155 -43.84984,-22.79987 -7.39902,-6.28916 -14.05634,-13.13882 -18.82158,-19.46193 -4.16876,-5.53161 -6.81534,-10.70826 -7.4127,-14.4737 54.48134,0.35016 88.39151,17.95939 108.80258,41.04333 20.61708,23.31694 27.51109,52.34683 27.51109,74.95018 v 1.4939 h 2.9878 v -1.4939 c 0,-23.20956 -7.04906,-52.93972 -28.26116,-76.9296 -21.21209,-23.98988 -56.57099,-42.08439 -112.66337,-42.08439 z"
         id="path11-6"
         inkscape:label="Link Segment 2" />
      <path
         style="baseline-shift:baseline;display:inline;overflow:visible;vector-effect:none;fill:#ffffff;stroke-width:0.603349;stroke-linecap:square;stroke-miterlimit:3;enable-background:accumulate;stop-color:#000000"
         d="m 617.05963,244.85976 c -26.09634,0.1141 -52.99416,9.41888 -82.03843,26.18759 l -1.29392,0.74695 1.49389,2.58787 1.29394,-0.74694 c 32.87679,-18.98143 62.61952,-28.11262 91.39087,-25.2827 28.61498,2.81454 56.42768,17.46572 85.59654,46.49218 -0.21248,11.5734 -6.40768,19.42817 -16.02516,25.03838 -9.78668,5.70888 -23.06752,8.87738 -36.39982,10.48219 -26.66457,3.20963 -53.43725,0.24744 -53.43725,0.24744 l -1.65885,-0.18442 v 1.66897 c 0,1.95036 0.79752,4.09913 2.09768,6.60195 1.30016,2.5028 3.14591,5.32767 5.42161,8.36195 4.55142,6.06854 10.82526,12.96534 17.85678,19.49461 7.03151,6.52926 14.81393,12.68552 22.40693,17.24131 4.57047,2.74228 9.0625,4.90461 13.32527,6.20513 -3.44642,1.35964 -6.73445,3.48628 -9.80527,6.17323 -5.403,4.72762 -10.20882,11.13382 -14.25118,18.08163 -8.08472,13.89563 -13.14942,29.82733 -13.14942,39.34403 v 1.49389 h 2.98779 v -1.49389 c 0,-8.41011 4.89464,-24.34825 12.74483,-37.84079 3.9251,-6.74627 8.58066,-12.91373 13.63496,-17.33624 5.05428,-4.42251 10.44899,-7.0688 15.94738,-7.0688 v -2.98779 c -5.49839,0 -12.55088,-2.72421 -19.89688,-7.13181 -7.346,-4.4076 -15.00055,-10.45154 -21.91209,-16.8694 -6.91154,-6.41787 -13.08687,-13.21516 -17.49886,-19.0978 -2.20598,-2.94131 -3.97051,-5.65634 -5.16017,-7.94646 -0.72747,-1.40036 -1.14796,-2.55989 -1.42387,-3.55968 4.90466,0.48238 27.92582,2.48206 52.12698,-0.43105 13.5579,-1.63197 27.16725,-4.81254 37.54821,-10.86812 10.381,-6.05557 17.54788,-15.22439 17.54788,-28.21136 v -0.61857 l -0.43728,-0.43805 c -29.66036,-29.66039 -58.30002,-44.90561 -87.89419,-47.81646 -3.69927,-0.36386 -7.41084,-0.53528 -11.1389,-0.51897 z"
         id="path2-8"
         inkscape:label="Link Segment 1" />
      <path
         id="path1-2-6-4"
         d="m 627.75272,459.39442 4.22539,14.78885 11.6198,-30.63405 -30.63404,11.61982 z"
         style="display:inline;fill:#ff0000;fill-opacity:1;fill-rule:nonzero;stroke:none;stroke-width:0.0603346"
         sodipodi:nodetypes="ccccc"
         inkscape:transform-center-x="-3.9968068"
         inkscape:transform-center-y="9.3258861"
         inkscape:label="South" />
      <path
         id="path1-2-1-3"
         d="m 679.92048,393.47343 14.78885,-4.22539 -30.63405,-11.6198 11.61982,30.63404 z"
         style="display:inline;fill:#ff0000;fill-opacity:1;fill-rule:nonzero;stroke:none;stroke-width:0.0603346"
         sodipodi:nodetypes="ccccc"
         inkscape:transform-center-x="-9.325883"
         inkscape:transform-center-y="-3.9968024"
         inkscape:label="Southeast" />
      <path
         id="path1-2-1-4-1-1"
         d="m 602.00028,332.55654 -3.73512,14.9202 25.38006,-20.71995 -32.33977,-5.25398 z"
         style="display:inline;fill:#ff0000;fill-opacity:1;fill-rule:nonzero;stroke:none;stroke-width:0.0603346"
         sodipodi:nodetypes="ccccc"
         inkscape:transform-center-x="-10.028899"
         inkscape:transform-center-y="15.098993"
         inkscape:label="Central-West" />
      <path
         id="path1-2-1-4-4"
         d="m 718.85468,293.85197 3.73512,-14.92021 -25.38008,20.71995 32.3398,5.25397 z"
         style="display:inline;fill:#ff0000;fill-opacity:1;fill-rule:nonzero;stroke:none;stroke-width:0.603349;stroke-dasharray:none"
         sodipodi:nodetypes="ccccc"
         inkscape:transform-center-x="10.0289"
         inkscape:transform-center-y="-15.098989"
         inkscape:label="Northeast" />
      <path
         id="path1-2-9"
         d="m 529.72183,270.14333 -10.69483,11.05372 32.33977,-5.25397 -25.38008,-20.71996 z"
         style="display:inline;fill:#ff0000;fill-opacity:1;fill-rule:nonzero;stroke:none;stroke-width:0.0603346"
         sodipodi:nodetypes="ccccc"
         inkscape:transform-center-x="-5.1524728"
         inkscape:transform-center-y="3.1001452"
         inkscape:label="North" />
    </g>
  </g>
  <g
     inkscape:groupmode="layer"
     id="layer3"
     inkscape:label="Name">
    <g
       id="g28"
       transform="translate(17.942136)">
      <g
         id="g27"
         transform="matrix(0.43381307,0,0,0.43385816,15.856181,41.795614)"
         style="stroke-width:2.30503">
        <path
           d="m 578.53718,717.00444 14.56276,15.51788 29.10964,16.03535 20.00552,15.76125 10.68639,11.7425 5.74175,9.2719 21.83669,-25.5289 21.4327,-25.66061 17.31109,-23.68065 19.2854,-21.02719 2.6496,-32.59293 9.4902,-30.40677 25.4778,-18.77837 27.8199,-14.59806 31.9015,-10.04932 34.0736,-6.96883 17.3124,-26.24393 15.4594,-28.20171 9.6045,-28.0723 12.1976,-28.49858 -1.5456,-32.733 -1.3185,-25.7609 18.3898,-27.44131 20.4135,-27.01922 16.3694,-20.5094 16.0399,-20.79723 7.86488,-25.56015 -3.23998,-29.63457 -16.4136,-23.35545 -24.6657,-4.91459 -19.5253,-14.07123 -19.7934,-18.63658 -19.3768,-4.78537 -25.8524,-0.93058 -22.5864,-5.73121 -20.8575,-3.66153 -18.1669,-18.02151 -25.8354,-10.17813 -32.3054,-8.83081 -27.807,-10.4251 -8.49252,-28.47095 -14.73137,-13.889583 -4.84199,-15.7721 -8.75224,-21.284259 -11.78865,7.74439 -18.35628,22.647979 -30.02335,3.41264 -29.50497,-0.15496 -28.81418,9.89722 -22.96189,5.936033 -17.87198,-9.948943 -0.58007,-28.983199 -3.10645,-27.88002 -19.82609,7.962 -22.70811,5.42921 -25.97558,7.23003 -20.04394,-1.91473 9.39877,19.642799 9.31878,18.70524 -30.2969,20.659043 -28.72305,-4.02017 -11.73113,-15.384783 -16.0753,1.74469 -23.78469,5.463193 1.62184,16.53391 -11.83641,12.29797 6.10933,15.56645 4.34006,34.10692 -11.41657,30.08277 -30.76137,11.21467 -25.71085,18.37648 -10.45853,31.93092 5.80854,30.47352 12.16927,17.64857 21.98033,10.93581 16.22896,-1.50459 1.19691,17.38538 30.18208,0.95089 30.54522,-8.12813 27.5888,-11.91152 8.84768,19.99896 15.67568,26.09462 33.29944,13.45449 28.43572,11.84825 18.01259,22.8218 5.84086,27.04167 26.81535,6.92212 11.38353,18.96076 7.64128,18.26427 -6.98281,31.92522 5.92781,35.07962 21.98171,7.77597 19.24886,21.96984 13.67503,14.52471 10.0337,16.4076 5.88899,20.97975 2.13982,23.51828 -20.84042,12.36691 -19.40124,9.97423 -15.82927,19.99438 z"
           style="display:inline;fill:#183eff;fill-rule:nonzero;stroke:#000000;stroke-width:6.88695;stroke-linecap:square;stroke-linejoin:miter;stroke-dasharray:none"
           id="path16"
           inkscape:label="Brazil"
           inkscape:linked-fill="path7" />
        <path
           style="baseline-shift:baseline;display:inline;overflow:visible;vector-effect:none;fill:#ffffff;stroke-width:0.918262;stroke-linecap:square;stroke-miterlimit:0;enable-background:accumulate;stop-color:#000000"
           d="m 873.80022,283.52056 v 3.72187 c 0,61.78302 -6.2376,121.0424 -21.4996,164.38645 -7.631,21.672 -17.51,39.31863 -29.7323,51.3928 -12.2223,12.07414 -26.6378,18.69852 -44.296,18.69852 h -3.7219 v 7.44371 h 3.7219 c 19.5605,0 36.1605,-7.64277 49.526,-20.84631 13.3656,-13.20353 23.6467,-31.84514 31.5235,-54.21523 15.7536,-44.74022 21.9222,-104.58066 21.9222,-166.85994 v -3.72187 z"
           id="path17"
           inkscape:label="Link Segment 3" />
        <path
           style="baseline-shift:baseline;display:inline;overflow:visible;vector-effect:none;fill:#ffffff;stroke-width:0.918262;stroke-linecap:square;stroke-miterlimit:0;enable-background:accumulate;stop-color:#000000"
           d="m 430.89786,228.93317 -3.72187,3.72185 c 0,12.81978 7.96987,27.99666 20.28998,44.34454 12.32012,16.34785 29.23104,33.71001 48.01601,49.67723 36.46339,30.99392 79.46603,56.92638 111.17532,58.43142 31.61389,117.78275 58.71832,206.29938 58.71832,299.13361 v 3.72185 h 7.44372 v -3.72185 c 0,-95.01464 -27.78184,-184.64516 -59.67591,-303.67544 l -3.59586,-2.75846 c -27.60385,0 -72.37907,-25.46575 -109.24654,-56.8031 -18.43376,-15.66868 -35.01966,-32.73377 -46.89168,-48.48703 -10.38595,-13.78133 -16.97959,-26.67833 -18.46784,-36.05946 135.73363,0.87238 220.21669,44.74363 271.06839,102.25446 51.36492,58.09132 68.54052,130.41576 68.54052,186.72925 v 3.72187 h 7.4438 v -3.72187 c 0,-57.82379 -17.5619,-131.89287 -70.40929,-191.66073 C 658.73759,274.01344 570.6452,228.93317 430.89786,228.93317 Z"
           id="path18"
           inkscape:label="Link Segment 2" />
        <path
           style="baseline-shift:baseline;display:inline;overflow:visible;vector-effect:none;fill:#ffffff;stroke-width:0.918262;stroke-linecap:square;stroke-miterlimit:3;enable-background:accumulate;stop-color:#000000"
           d="m 633.42566,164.18815 c -65.01585,0.28427 -132.0285,23.466 -204.38876,65.2432 l -3.22365,1.86093 3.72185,6.44736 3.22369,-1.86091 c 81.90852,-47.28992 156.00892,-70.03917 227.68923,-62.98877 71.2907,7.01209 140.5827,43.51372 213.2534,115.82961 -0.5294,28.83372 -15.964,48.40292 -39.9248,62.38008 -24.3823,14.22298 -57.4699,22.11691 -90.6857,26.1151 -66.43152,7.9964 -133.1324,0.61647 -133.1324,0.61647 l -4.13282,-0.45946 v 4.15803 c 0,4.85909 1.98692,10.21249 5.22611,16.44796 3.23919,6.23542 7.83766,13.27324 13.50729,20.83278 11.3393,15.11903 26.96981,32.30156 44.48799,48.56845 17.51815,16.26685 36.9071,31.60443 55.82413,42.95462 11.3868,6.83206 22.5781,12.21924 33.1983,15.45933 -8.5863,3.38738 -16.7781,8.68564 -24.4286,15.37985 -13.461,11.77829 -25.43407,27.73856 -35.50512,45.04818 -20.1421,34.61927 -32.76018,74.31116 -32.76018,98.02086 v 3.72185 h 7.44372 v -3.72185 c 0,-20.95276 12.1944,-60.6607 31.75219,-94.27572 9.77891,-16.80751 21.37769,-32.17299 33.96989,-43.19113 12.5921,-11.01815 26.0323,-17.61106 39.7309,-17.61106 v -7.44371 c -13.6986,0 -31.269,-6.78704 -49.5706,-17.76804 -18.30171,-10.981 -37.37209,-26.03874 -54.59135,-42.02806 -17.21926,-15.98934 -32.60435,-32.92396 -43.59628,-47.57984 -5.49593,-7.32792 -9.89204,-14.09208 -12.85594,-19.79764 -1.8124,-3.48883 -2.86,-6.37765 -3.5474,-8.86851 12.21937,1.20179 69.57379,6.18375 129.86807,-1.07391 33.7778,-4.06585 67.6839,-11.98986 93.5468,-27.0766 25.863,-15.08671 43.7184,-37.92971 43.7184,-70.28517 v -1.54109 l -1.0895,-1.09135 C 806.25942,210.71474 734.90712,172.73313 661.17688,165.4811 c -9.21629,-0.90651 -18.46321,-1.33358 -27.75122,-1.29295 z"
           id="path19"
           inkscape:label="Link Segment 1" />
        <path
           id="path20"
           d="m 660.06619,698.67515 10.52705,36.84462 28.94932,-76.32101 -76.32099,28.94937 z"
           style="display:inline;fill:#ff0000;fill-opacity:1;fill-rule:nonzero;stroke:none;stroke-width:0.0918256"
           sodipodi:nodetypes="ccccc"
           inkscape:transform-center-x="-9.9575775"
           inkscape:transform-center-y="23.234326"
           inkscape:label="South" />
        <path
           id="path21"
           d="m 790.03582,534.44103 36.8446,-10.52705 -76.321,-28.94932 28.9494,76.32099 z"
           style="display:inline;fill:#ff0000;fill-opacity:1;fill-rule:nonzero;stroke:none;stroke-width:0.0918256"
           sodipodi:nodetypes="ccccc"
           inkscape:transform-center-x="-23.234314"
           inkscape:transform-center-y="-9.957531"
           inkscape:label="Southeast" />
        <path
           id="path22"
           d="m 595.90712,382.67401 -9.30559,37.17186 63.23133,-51.62123 -80.5706,-13.08966 z"
           style="display:inline;fill:#ff0000;fill-opacity:1;fill-rule:nonzero;stroke:none;stroke-width:0.0918256"
           sodipodi:nodetypes="ccccc"
           inkscape:transform-center-x="-24.985802"
           inkscape:transform-center-y="37.617315"
           inkscape:label="Central-West" />
        <path
           id="path23"
           d="m 887.03562,286.24628 9.3056,-37.17189 -63.2314,51.62124 80.5707,13.08962 z"
           style="display:inline;fill:#ff0000;fill-opacity:1;fill-rule:nonzero;stroke:none;stroke-width:0.918262;stroke-dasharray:none"
           sodipodi:nodetypes="ccccc"
           inkscape:transform-center-x="24.985777"
           inkscape:transform-center-y="-37.617284"
           inkscape:label="Northeast" />
        <path
           id="path24"
           d="m 415.83416,227.17909 -26.64487,27.539 80.57061,-13.08963 -63.23138,-51.62126 z"
           style="display:inline;fill:#ff0000;fill-opacity:1;fill-rule:nonzero;stroke:none;stroke-width:0.0918256"
           sodipodi:nodetypes="ccccc"
           inkscape:transform-center-x="-12.836776"
           inkscape:transform-center-y="7.7236449"
           inkscape:label="North" />
      </g>
      <g
         id="g30"
         transform="matrix(0.72553155,0,0,0.72553155,-64.28876,29.271687)"
         style="stroke-width:1.3783">
        <text
           xml:space="preserve"
           id="text9-9"
           style="font-style:normal;font-variant:normal;font-weight:bold;font-stretch:normal;font-size:27.4682px;line-height:1.25;font-family:'Inter 28pt';-inkscape-font-specification:'Inter 28pt Bold';text-align:center;letter-spacing:0px;word-spacing:0px;writing-mode:lr-tb;direction:ltr;white-space:pre;shape-inside:url(#rect10-7);display:inline;fill:#000000;fill-opacity:1;stroke:none;stroke-width:3.44575;stroke-linecap:round;stroke-miterlimit:0;stroke-dasharray:none"
           x="-1647.1147"
           y="0"
           transform="matrix(1.1427478,0,0,1.1427478,261.47654,-169.50128)"
           inkscape:label="Simpósio Interdisciplinar Brasileieo de Modelos Baseados em Agentes"><tspan
             x="450"
             y="425.42582"
             id="tspan15"><tspan
               style="font-weight:500;font-family:Montserrat;-inkscape-font-specification:'Montserrat Medium';text-align:start"
               id="tspan14">Simpósio Interdisciplinar Brasileiro
</tspan></tspan><tspan
             x="450"
             y="459.94105"
             id="tspan23"><tspan
               dx="0 0 -0.16626717 0.16626669 0 0 0 0 0 0 -0.1662605 0.16626288 0 0 0 0 0 0 0 -0.16629101 0.16627814 0 -0.16626526 0.16624762"
               style="font-weight:500;font-family:Montserrat;-inkscape-font-specification:'Montserrat Medium';letter-spacing:0.131263px;word-spacing:0.166266px"
               id="tspan16">de Modelos Baseados em Agentes</tspan></tspan></text>
        <text
           xml:space="preserve"
           style="font-weight:bold;font-size:130.085px;font-family:Oswald;-inkscape-font-specification:'Oswald Bold';text-align:start;letter-spacing:0px;word-spacing:0px;writing-mode:lr-tb;direction:ltr;text-anchor:start;display:inline;fill:#000000;fill-opacity:1;stroke:none;stroke-width:3.36177;stroke-linecap:round;stroke-miterlimit:0;stroke-dasharray:none"
           x="774.26825"
           y="262.8808"
           id="text1-9"
           inkscape:label="SIMBRA"><tspan
             sodipodi:role="line"
             id="tspan1-7"
             x="774.26825"
             y="262.8808"
             style="font-style:normal;font-variant:normal;font-weight:800;font-stretch:normal;font-size:130.085px;font-family:Montserrat;-inkscape-font-specification:'Montserrat Ultra-Bold';letter-spacing:0px;fill:#000000;stroke:none;stroke-width:3.36177;stroke-linecap:round;stroke-dasharray:none"><tspan
   style="fill:#000000;stroke-width:3.36177"
   id="tspan21-3">S</tspan><tspan
   style="fill:#000000;stroke-width:3.36177"
   id="tspan19-6">I</tspan><tspan
   style="fill:#000000;stroke-width:3.36177"
   id="tspan20-1">M</tspan><tspan
   style="fill:#000000;stroke-width:3.36177"
   id="tspan22-2">B</tspan>RA</tspan></text>
      </g>
    </g>
  </g>
  <metadata
     id="metadata1">
    <rdf:RDF>
      <cc:Work
         rdf:about="">
        <cc:license
           rdf:resource="http://creativecommons.org/licenses/by-nc-sa/4.0/" />
        <dc:creator>
          <cc:Agent>
            <dc:title>Daniel Vartanian</dc:title>
          </cc:Agent>
        </dc:creator>
        <dc:publisher>
          <cc:Agent>
            <dc:title>SIMBRA</dc:title>
          </cc:Agent>
        </dc:publisher>
      </cc:Work>
      <cc:License
         rdf:about="http://creativecommons.org/licenses/by-nc-sa/4.0/">
        <cc:permits
           rdf:resource="http://creativecommons.org/ns#Reproduction" />
        <cc:permits
           rdf:resource="http://creativecommons.org/ns#Distribution" />
        <cc:requires
           rdf:resource="http://creativecommons.org/ns#Notice" />
        <cc:requires
           rdf:resource="http://creativecommons.org/ns#Attribution" />
        <cc:prohibits
           rdf:resource="http://creativecommons.org/ns#CommercialUse" />
        <cc:permits
           rdf:resource="http://creativecommons.org/ns#DerivativeWorks" />
        <cc:requires
           rdf:resource="http://creativecommons.org/ns#ShareAlike" />
      </cc:License>
    </rdf:RDF>
  </metadata>
</svg>
