<?xml version="1.0" encoding="UTF-8" standalone="no"?>
<!-- Created with Inkscape (http://www.inkscape.org/) -->

<svg
   width="1000"
   height="529.98602"
   viewBox="0 0 1000 529.98602"
   version="1.1"
   id="svg1"
   inkscape:version="1.4.2 (ebf0e940d0, 2025-05-08)"
   sodipodi:docname="logo.svg"
   xmlns:inkscape="http://www.inkscape.org/namespaces/inkscape"
   xmlns:sodipodi="http://sodipodi.sourceforge.net/DTD/sodipodi-0.dtd"
   xmlns="http://www.w3.org/2000/svg"
   xmlns:svg="http://www.w3.org/2000/svg">
  <sodipodi:namedview
     id="namedview1"
     pagecolor="#ffffff"
     bordercolor="#000000"
     borderopacity="0.25"
     inkscape:showpageshadow="2"
     inkscape:pageopacity="0.0"
     inkscape:pagecheckerboard="0"
     inkscape:deskcolor="#d1d1d1"
     inkscape:document-units="px"
     inkscape:zoom="0.49953305"
     inkscape:cx="166.15517"
     inkscape:cy="249.23276"
     inkscape:window-width="1920"
     inkscape:window-height="1011"
     inkscape:window-x="0"
     inkscape:window-y="0"
     inkscape:window-maximized="1"
     inkscape:current-layer="svg1" />
  <defs
     id="defs1" />
  <path
     id="path1001"
     d="M 0,409.78593 H 87.924527 V 119.76618 H 0 Z M 0,77.90732 H 87.924527 V 0 H 0 Z m 151.92038,452.07879 h 87.92453 V 366.84498 h 1.11278 c 10.57358,26.1545 33.94584,47.39293 74.56943,47.39293 72.89963,0 101.83449,-64.64431 101.83449,-142.55162 0,-92.37587 -36.72561,-156.37188 -101.83449,-156.37188 -50.64033,0 -70.11677,32.83292 -79.02119,50.64047 h -1.113 c 0,-20.03354 -1.113,-35.05893 -2.22599,-46.1887 H 149.6944 c 1.113,13.35578 2.22598,28.38115 2.22598,65.10902 z M 326.10005,264.45235 c 0,46.18781 -3.33899,89.59304 -42.29276,89.59304 -35.61501,0 -43.96238,-43.40523 -43.96238,-89.59304 0,-33.38911 7.7912,-85.69875 43.96238,-85.69875 40.06677,0 42.29276,55.64864 42.29276,85.69875 z m 210.34954,-24.48533 c 0,-15.58154 0,-71.2302 45.07558,-71.2302 36.17162,0 45.63153,34.50211 45.63153,71.2302 z m 170.84132,26.71066 c 0,-151.36327 -99.61088,-151.36327 -125.76574,-151.36327 -82.91636,0 -128.54812,70.67379 -128.54812,148.5811 0,88.48092 45.07494,150.3424 146.91223,150.3424 30.05025,0 63.43927,-6.21306 91.82012,-16.78666 l -1.66982,-66.22137 c -21.7031,11.68661 -51.75311,22.81551 -81.80337,22.81551 -49.52735,0 -71.78662,-31.71928 -71.78662,-66.22137 h 170.84132 z m 75.68004,-67.89054 c 34.50203,-20.58971 58.43045,-25.59832 80.69038,-25.59832 12.79869,0 53.97869,0 53.97869,55.64843 h -26.71125 c -30.60644,0 -143.57349,0.55617 -143.57349,97.38468 0,52.86561 35.61567,88.01598 89.59414,88.01598 41.73661,0 75.68245,-26.80344 79.5776,-44.61075 h 1.113 l 2.22579,40.06686 H 1000 c -1.66961,-19.47672 -2.22578,-38.95409 -2.22578,-81.80313 V 222.15947 c 0,-64.5522 -23.37228,-106.84506 -125.20913,-106.84506 -31.71985,0 -70.67385,11.12976 -93.48994,18.36437 z m 134.66907,87.92387 c 0,70.67337 -44.51875,71.78636 -52.30952,71.78636 -7.23393,0 -37.84101,0 -37.84101,-37.84043 0,-48.41448 55.09234,-50.64047 90.15053,-50.64047 z"
     style="fill:#3c6175;fill-opacity:1;fill-rule:evenodd;stroke:none;stroke-width:2.17765" />
</svg>
