<?xml version="1.0" encoding="UTF-8" standalone="no"?>
<svg
   id="Camada_1"
   viewBox="0 0 1000 331.85198"
   version="1.1"
   sodipodi:docname="logo.svg"
   width="1000"
   height="331.85199"
   inkscape:version="1.4.2 (ebf0e940d0, 2025-05-08)"
   xmlns:inkscape="http://www.inkscape.org/namespaces/inkscape"
   xmlns:sodipodi="http://sodipodi.sourceforge.net/DTD/sodipodi-0.dtd"
   xmlns="http://www.w3.org/2000/svg"
   xmlns:svg="http://www.w3.org/2000/svg">
  <sodipodi:namedview
     id="namedview21"
     pagecolor="#ffffff"
     bordercolor="#000000"
     borderopacity="0.25"
     inkscape:showpageshadow="2"
     inkscape:pageopacity="0.0"
     inkscape:pagecheckerboard="0"
     inkscape:deskcolor="#d1d1d1"
     inkscape:zoom="0.63420958"
     inkscape:cx="365.80967"
     inkscape:cy="125.35288"
     inkscape:window-width="1920"
     inkscape:window-height="1011"
     inkscape:window-x="0"
     inkscape:window-y="0"
     inkscape:window-maximized="1"
     inkscape:current-layer="Camada_1" />
  <defs
     id="defs1">
    <style
       id="style1">.cls-1{fill:#4e2214;}</style>
  </defs>
  <path
     class="cls-1"
     d="m 592.49276,158.29176 h -7.87456 l -7.93193,20.4391 c -0.91273,2.44553 -1.99706,6.0554 -1.99706,6.0554 h -0.11422 c 0,0 -1.14118,-3.60987 -2.05392,-6.0554 l -7.93193,-20.4391 h -7.87455 l -3.30932,41.34352 h 7.36082 l 1.71177,-23.1173 c 0.17107,-2.73714 0.0574,-6.46387 0.0574,-6.46387 h 0.1137 c 0,0 1.2554,4.07624 2.22551,6.46387 l 6.50546,16.01335 h 6.44807 l 6.56179,-16.01335 c 0.97011,-2.38763 2.16866,-6.40491 2.16866,-6.40491 h 0.1137 c 0,0 -0.1137,3.66777 0.0574,6.40491 l 1.71177,23.1173 h 7.30397 z"
     id="path1"
     style="stroke-width:1.07801" />
  <path
     class="cls-1"
     d="m 624.04416,200.33431 c 9.75791,0 16.3197,-6.28912 16.3197,-15.54805 v -26.4945 h -7.36082 v 26.4366 c 0,5.5901 -3.59514,8.73466 -9.01574,8.73466 -5.42112,0 -8.95888,-3.14456 -8.95888,-8.67676 v -26.4945 h -7.36135 v 26.4945 c 0,9.25893 6.56231,15.54805 16.37709,15.54805 z"
     id="path2"
     style="stroke-width:1.07801" />
  <path
     class="cls-1"
     d="m 658.73431,169.47194 c 0,-2.9119 2.68188,-4.94897 6.10542,-4.94897 5.07846,0 8.95889,3.60987 8.95889,3.60987 l 3.19561,-6.11436 c 0,0 -4.10887,-4.42575 -12.09766,-4.42575 -7.76033,0 -13.58044,5.12477 -13.58044,11.99607 0,12.69403 19.1158,11.41283 19.1158,18.80839 0,3.37722 -2.7961,5.00793 -5.8775,5.00793 -5.70642,0 -10.10006,-4.36786 -10.10006,-4.36786 l -3.99413,5.648 c 0,0 4.96423,5.64905 13.97997,5.64905 8.44515,0 13.35253,-5.5322 13.35253,-12.11188 0,-13.21829 -19.05843,-11.41284 -19.05843,-18.75049 z"
     id="path3"
     style="stroke-width:1.07801" />
  <polygon
     class="cls-1"
     points="662.13989,179.19189 645.62476,179.19189 645.62476,168.87549 658.27563,168.87549 658.27563,162.87939 645.62476,162.87939 645.62476,152.83252 661.29272,152.83252 661.29272,146.83643 638.79663,146.83643 638.79663,185.18799 662.13989,185.18799 "
     id="polygon3"
     transform="scale(1.0780142)" />
  <path
     class="cls-1"
     d="m 740.72709,200.33431 c 9.75791,0 16.3197,-6.28912 16.3197,-15.54805 v -26.4945 h -7.36082 v 26.4366 c 0,5.5901 -3.59513,8.73466 -9.01573,8.73466 -5.42113,0 -8.95888,-3.14456 -8.95888,-8.67676 v -26.4945 h -7.36083 v 26.4945 c 0,9.25893 6.56178,15.54805 16.37656,15.54805 z"
     id="path4"
     style="stroke-width:1.07801" />
  <path
     class="cls-1"
     d="m 822.0361,178.90562 c 0,-13.04355 -8.15986,-20.61386 -20.6565,-20.61386 h -13.8089 v 41.34352 h 13.8089 c 12.49664,0 20.6565,-7.68611 20.6565,-20.72966 z m -27.10459,14.26578 v -28.41577 h 6.04856 c 8.10302,0 13.46676,4.94897 13.46676,14.14999 0,9.31681 -5.24953,14.26578 -13.46676,14.26578 z"
     id="path5"
     style="stroke-width:1.07801" />
  <polygon
     class="cls-1"
     points="796.26196,179.19189 779.74683,179.19189 779.74683,168.87549 792.39771,168.87549 792.39771,162.87939 779.74683,162.87939 779.74683,152.83252 795.41479,152.83252 795.41479,146.83643 772.9187,146.83643 772.9187,185.18799 796.26196,185.18799 "
     id="polygon5"
     transform="scale(1.0780142)" />
  <path
     class="cls-1"
     d="m 563.84748,224.05062 -14.26578,41.34346 h 7.58926 l 3.42405,-10.59802 h 14.20842 l 3.42354,10.59802 h 7.58926 l -14.26526,-41.34346 z m -1.48384,24.63109 3.59513,-11.06328 c 0.79904,-2.32972 1.71177,-6.40491 1.71177,-6.40491 h 0.11422 c 0,0 0.85588,4.07519 1.59755,6.40491 l 3.59513,11.06328 z"
     id="path6"
     style="stroke-width:1.07801" />
  <path
     class="cls-1"
     d="m 616.96969,265.39408 h 8.2167 l -8.33093,-15.43119 c -0.79903,-1.45594 -1.36962,-2.03811 -1.36962,-2.03811 v -0.1158 c 4.27995,-1.74757 6.8476,-6.34696 6.8476,-11.29698 0,-5.47324 -2.56765,-9.43368 -6.61915,-11.29705 -1.76915,-0.81482 -3.76622,-1.16433 -8.15986,-1.16433 H 594.4872 v 41.34346 h 7.36081 v -15.43119 h 7.07552 z m -15.12168,-21.95296 v -12.92663 h 5.5922 c 5.76327,0 7.41819,2.44553 7.41819,6.40493 0,4.13414 -2.45396,6.5217 -6.39123,6.5217 z"
     id="path7"
     style="stroke-width:1.07801" />
  <path
     class="cls-1"
     d="m 674.37132,244.48966 c 0,-11.87914 -9.01575,-21.13806 -20.99918,-21.13806 -11.86868,0 -20.88441,9.25892 -20.88441,21.13806 0,12.05291 9.01573,21.60344 20.88441,21.60344 4.73632,0 9.01626,-1.45594 12.38243,-4.07624 l 4.50839,4.54157 4.22257,-4.77423 -4.56524,-4.19308 c 2.68188,-3.60989 4.45103,-8.09354 4.45103,-13.10146 z m -9.81478,7.97773 -4.39364,-4.48366 -4.22258,4.71632 4.50787,4.3668 c -1.94022,1.33909 -4.62209,2.15497 -7.07605,2.15497 -7.41767,0 -13.29515,-6.28912 -13.29515,-14.73216 0,-8.21031 5.87748,-14.26678 13.29515,-14.26678 7.53242,0 13.40991,6.05647 13.40991,14.26678 0,2.91085 -0.85589,5.70589 -2.22551,7.97773 z"
     id="path8"
     style="stroke-width:1.07801" />
  <path
     class="cls-1"
     d="m 710.65849,250.48716 c 0,5.5901 -3.59513,8.73466 -9.01573,8.73466 -5.42113,0 -8.95889,-3.14456 -8.95889,-8.67676 v -26.49444 h -7.36082 v 26.49444 c 0,9.25893 6.56178,15.54804 16.37655,15.54804 9.75793,0 16.3197,-6.28911 16.3197,-15.54804 v -26.49444 h -7.36081 z"
     id="path9"
     style="stroke-width:1.07801" />
  <polygon
     class="cls-1"
     points="700.77808,213.83252 700.77808,207.83643 678.28198,207.83643 678.28198,246.18793 701.62524,246.18793 701.62524,240.19183 685.11011,240.19183 685.11011,229.87543 697.76099,229.87543 697.76099,223.87939 685.11011,223.87939 685.11011,213.83252 "
     id="polygon9"
     transform="scale(1.0780142)" />
  <path
     class="cls-1"
     d="m 785.40414,223.3516 c -11.92605,0 -20.9418,9.25892 -20.9418,21.08015 0,12.16978 9.01575,21.66135 20.9418,21.66135 11.92606,0 20.94179,-9.49157 20.94179,-21.66135 0,-11.82123 -9.01573,-21.08015 -20.94179,-21.08015 z m 0,35.87022 c -7.41818,0 -13.35253,-6.28912 -13.35253,-14.79007 0,-8.1524 5.93435,-14.20887 13.35253,-14.20887 7.41819,0 13.35253,6.05647 13.35253,14.20887 0,8.50095 -5.93434,14.79007 -13.35253,14.79007 z"
     id="path10"
     style="stroke-width:1.07801" />
  <polygon
     class="cls-1"
     points="758.1521,207.83643 758.1521,246.18793 781.23071,246.18793 781.23071,240.19183 764.98022,240.19183 764.98022,207.83643 "
     id="polygon10"
     transform="scale(1.0780142)" />
  <path
     class="cls-1"
     d="m 889.93625,244.43175 c 0,-11.82123 -9.01573,-21.08015 -20.94179,-21.08015 -11.92606,0 -20.9418,9.25892 -20.9418,21.08015 0,12.16978 9.01574,21.66135 20.9418,21.66135 11.92606,0 20.94179,-9.49157 20.94179,-21.66135 z m -34.29432,0 c 0,-8.1524 5.93434,-14.20887 13.35253,-14.20887 7.41819,0 13.35253,6.05647 13.35253,14.20887 0,8.50095 -5.93434,14.79007 -13.35253,14.79007 -7.41819,0 -13.35253,-6.28912 -13.35253,-14.79007 z"
     id="path11"
     style="stroke-width:1.07801" />
  <path
     class="cls-1"
     d="m 929.76172,261.66736 h 0.11423 c 0,0 -0.0568,0.87377 -0.0568,1.7465 v 1.98022 h 6.27648 v -21.7782 h -12.83879 v 6.46387 h 6.21964 v 4.83317 c 0,0 -4.0515,4.3089 -10.15692,4.3089 -7.58926,0 -13.58098,-5.82276 -13.58098,-14.79007 0,-7.8029 4.85054,-14.20887 13.92313,-14.20887 6.44807,0 10.78487,3.95938 10.78487,3.95938 l 3.65199,-5.59008 c 0,0 -5.13583,-5.24058 -15.0643,-5.24058 -12.04029,0 -20.88495,9.31682 -20.88495,21.31282 0,12.9846 9.1868,21.42868 19.85746,21.42868 7.53242,0 11.75499,-4.42574 11.75499,-4.42574 z"
     id="path12"
     style="stroke-width:1.07801" />
  <rect
     class="cls-1"
     x="947.7337"
     y="224.05061"
     width="7.3608155"
     height="41.343464"
     id="rect12"
     style="stroke-width:1.07801" />
  <path
     class="cls-1"
     d="m 985.73476,224.05062 h -7.70348 l -14.26579,41.34346 h 7.58926 l 3.42407,-10.59802 h 14.20841 l 3.42353,10.59802 H 1000 Z m -9.18733,24.63109 3.59513,-11.06328 c 0.79904,-2.32972 1.71177,-6.40491 1.71177,-6.40491 h 0.11423 c 0,0 0.85588,4.07519 1.59754,6.40491 l 3.59513,11.06328 z"
     id="path13"
     style="stroke-width:1.07801" />
  <polygon
     class="cls-1"
     points="521.34888,290.87543 533.99976,290.87543 533.99976,284.87933 521.34888,284.87933 521.34888,274.83246 537.01685,274.83246 537.01685,268.83636 514.52075,268.83636 514.52075,307.18793 537.86401,307.18793 537.86401,301.19183 521.34888,301.19183 "
     id="polygon13"
     transform="scale(1.0780142)" />
  <polygon
     class="cls-1"
     points="571.10229,290.87543 583.75317,290.87543 583.75317,284.87933 571.10229,284.87933 571.10229,274.83246 586.77026,274.83246 586.77026,268.83636 564.27417,268.83636 564.27417,307.18793 587.61743,307.18793 587.61743,301.19183 571.10229,301.19183 "
     id="polygon14"
     transform="scale(1.0780142)" />
  <polygon
     class="cls-1"
     points="612.54614,274.83246 624.87915,274.83246 624.87915,268.83636 593.38452,268.83636 593.38452,274.83246 605.71753,274.83246 605.71753,307.18793 612.54614,307.18793 "
     id="polygon15"
     transform="scale(1.0780142)" />
  <path
     class="cls-1"
     d="m 708.26296,313.68364 c 0,2.44553 0.39952,6.40597 0.39952,6.40597 h -0.11422 c 0,0 -1.826,-4.01834 -3.36669,-6.40597 l -15.3496,-23.87423 h -7.36081 v 41.34354 h 7.36081 v -23.81633 c 0,-2.44553 -0.39951,-6.40491 -0.39951,-6.40491 h 0.11421 c 0,0 1.826,4.01728 3.3667,6.40491 l 15.34959,23.81633 h 7.30397 v -41.34354 h -7.30397 z"
     id="path15"
     style="stroke-width:1.07801" />
  <path
     class="cls-1"
     d="m 747.46152,289.1104 c -11.92606,0 -20.94179,9.25891 -20.94179,21.08022 0,12.16978 9.01573,21.66135 20.94179,21.66135 11.92605,0 20.94179,-9.49157 20.94179,-21.66135 0,-11.82131 -9.01574,-21.08022 -20.94179,-21.08022 z m 0,35.87028 c -7.41819,0 -13.35253,-6.28911 -13.35253,-14.79006 0,-8.15248 5.93434,-14.20894 13.35253,-14.20894 7.41818,0 13.35253,6.05646 13.35253,14.20894 0,8.50095 -5.93435,14.79006 -13.35253,14.79006 z"
     id="path16"
     style="stroke-width:1.07801" />
  <polygon
     class="cls-1"
     points="729.78345,268.83636 722.95532,268.83636 722.95532,307.18793 746.03394,307.18793 746.03394,301.19183 729.78345,301.19183 "
     id="polygon16"
     transform="scale(1.0780142)" />
  <path
     class="cls-1"
     d="m 831.05183,289.1104 c -11.92606,0 -20.9418,9.25891 -20.9418,21.08022 0,12.16978 9.01574,21.66135 20.9418,21.66135 11.92606,0 20.94179,-9.49157 20.94179,-21.66135 0,-11.82131 -9.01573,-21.08022 -20.94179,-21.08022 z m 0,35.87028 c -7.41819,0 -13.35253,-6.28911 -13.35253,-14.79006 0,-8.15248 5.93434,-14.20894 13.35253,-14.20894 7.41819,0 13.35253,6.05646 13.35253,14.20894 0,8.50095 -5.93434,14.79006 -13.35253,14.79006 z"
     id="path17"
     style="stroke-width:1.07801" />
  <path
     class="cls-1"
     d="m 885.31416,315.83862 h 6.21964 v 4.83317 c 0,0 -4.05151,4.30889 -10.15691,4.30889 -7.58927,0 -13.58099,-5.82275 -13.58099,-14.79006 0,-7.80297 4.85054,-14.20894 13.92313,-14.20894 6.44808,0 10.78487,3.95939 10.78487,3.95939 l 3.65199,-5.59009 c 0,0 -5.13583,-5.24058 -15.0643,-5.24058 -12.04029,0 -20.88495,9.31682 -20.88495,21.31288 0,12.9846 9.18681,21.42869 19.85746,21.42869 7.53242,0 11.75499,-4.42575 11.75499,-4.42575 h 0.11423 c 0,0 -0.0568,0.87378 -0.0568,1.7465 v 1.98023 h 6.27649 v -21.7782 h -12.8388 z"
     id="path18"
     style="stroke-width:1.07801" />
  <rect
     class="cls-1"
     x="909.79053"
     y="289.80942"
     width="7.3608155"
     height="41.343529"
     id="rect18"
     style="stroke-width:1.07801" />
  <path
     class="cls-1"
     d="m 940.08865,289.80941 -14.26579,41.34354 h 7.58926 l 3.42407,-10.59802 h 14.20841 l 3.42355,10.59802 h 7.58925 l -14.26527,-41.34354 z m -1.48385,24.63116 3.59513,-11.06333 c 0.79905,-2.32973 1.71177,-6.40492 1.71177,-6.40492 h 0.11423 c 0,0 0.85589,4.07519 1.59755,6.40492 l 3.59514,11.06333 z"
     id="path19"
     style="stroke-width:1.07801" />
  <path
     class="cls-1"
     d="M 0,331.85197 H 515.24394 V 0 H 0 Z m 465.62397,-293.649776 26.09289,13.21153 -26.09289,10.734348 z m -59.86401,-2.653386 8.64491,27.836966 -23.76763,-2.918218 z M 385.77459,141.47541 h 88.11293 V 160.335 H 407.0509 v 48.4665 h 54.37181 v 18.85965 H 407.0509 v 49.78183 h 70.49044 v 18.86025 H 385.77459 Z M 342.92194,38.202194 V 62.148072 L 316.82905,51.413724 Z m -74.03819,0.590263 -11.97292,26.575972 -11.9729,-26.575972 z m 4.49681,102.682953 h 22.35037 l 54.5871,154.82782 h -22.13534 l -15.2588,-44.51862 h -57.16608 l -15.0435,44.51862 H 218.79346 Z M 170.29887,38.202194 196.87471,50.175165 170.29887,62.148072 Z m -67.07848,0.689287 15.12246,24.918748 -23.76737,2.918284 z m -0.0455,186.357819 c 3.43854,8.5526 7.52136,20.83356 7.52136,20.83356 h 0.42978 c 0,0 4.08362,-12.28096 7.52216,-20.83356 l 34.81491,-83.77389 h 22.35037 l 12.25031,154.82782 H 167.00246 L 159.4803,198.7134 c -0.64428,-9.43006 -0.21449,-22.80753 -0.21449,-22.80753 h -0.42979 c 0,0 -4.51339,14.25494 -8.16669,22.80753 l -30.30178,69.73851 h -18.9121 L 71.368172,198.7134 c -3.438539,-8.33362 -8.167221,-23.24593 -8.167221,-23.24593 h -0.428995 c 0,0 0.214498,13.81587 -0.430574,23.24593 l -7.306336,97.58983 H 33.758741 L 46.008256,141.47541 H 68.358891 Z M 47.313928,38.202194 V 62.148072 L 21.221036,51.413724 Z"
     id="path20"
     style="stroke-width:1.07801" />
  <path
     class="cls-1"
     d="m 290.57325,184.67803 c -2.57896,-7.89521 -5.803,-21.93066 -5.803,-21.93066 h -0.429 c 0,0 -3.43854,14.03545 -6.01752,21.93066 l -16.97819,49.12387 h 45.99063 z"
     id="path21"
     style="stroke-width:1.07801" />
</svg>
