<?xml version="1.0" encoding="UTF-8" standalone="no"?>
<!-- Created with Inkscape (http://www.inkscape.org/) -->

<svg
   width="1000"
   height="449.991"
   viewBox="0 0 1000 449.991"
   version="1.1"
   id="svg1"
   inkscape:version="1.4.2 (ebf0e940d0, 2025-05-08)"
   sodipodi:docname="logo.svg"
   xmlns:inkscape="http://www.inkscape.org/namespaces/inkscape"
   xmlns:sodipodi="http://sodipodi.sourceforge.net/DTD/sodipodi-0.dtd"
   xmlns="http://www.w3.org/2000/svg"
   xmlns:svg="http://www.w3.org/2000/svg">
  <sodipodi:namedview
     id="namedview1"
     pagecolor="#ffffff"
     bordercolor="#000000"
     borderopacity="0.25"
     inkscape:showpageshadow="2"
     inkscape:pageopacity="0.0"
     inkscape:pagecheckerboard="0"
     inkscape:deskcolor="#d1d1d1"
     inkscape:document-units="px"
     inkscape:zoom="0.70644641"
     inkscape:cx="496.14521"
     inkscape:cy="239.93327"
     inkscape:window-width="1920"
     inkscape:window-height="1011"
     inkscape:window-x="0"
     inkscape:window-y="0"
     inkscape:window-maximized="1"
     inkscape:current-layer="layer1" />
  <defs
     id="defs1">
    <clipPath
       clipPathUnits="userSpaceOnUse"
       id="clipPath3">
      <path
         d="M 0,595.276 H 841.89 V 0 H 0 Z"
         transform="translate(-283.66911,-406.99871)"
         id="path3" />
    </clipPath>
    <clipPath
       clipPathUnits="userSpaceOnUse"
       id="clipPath5">
      <path
         d="M 0,595.276 H 841.89 V 0 H 0 Z"
         transform="translate(-548.06572,-507.83972)"
         id="path5" />
    </clipPath>
    <clipPath
       clipPathUnits="userSpaceOnUse"
       id="clipPath7">
      <path
         d="M 0,595.276 H 841.89 V 0 H 0 Z"
         transform="translate(-467.56711,-431.37961)"
         id="path7" />
    </clipPath>
    <clipPath
       clipPathUnits="userSpaceOnUse"
       id="clipPath9">
      <path
         d="M 0,595.276 H 841.89 V 0 H 0 Z"
         transform="translate(-515.00381,-477.83931)"
         id="path9" />
    </clipPath>
    <clipPath
       clipPathUnits="userSpaceOnUse"
       id="clipPath11">
      <path
         d="M 0,595.276 H 841.89 V 0 H 0 Z"
         id="path11" />
    </clipPath>
    <clipPath
       clipPathUnits="userSpaceOnUse"
       id="clipPath13">
      <path
         d="M 0,595.276 H 841.89 V 0 H 0 Z"
         transform="translate(-220.29001,-414.30061)"
         id="path13" />
    </clipPath>
    <clipPath
       clipPathUnits="userSpaceOnUse"
       id="clipPath15">
      <path
         d="M 0,595.276 H 841.89 V 0 H 0 Z"
         transform="translate(-243.30751,-429.13351)"
         id="path15" />
    </clipPath>
    <clipPath
       clipPathUnits="userSpaceOnUse"
       id="clipPath17">
      <path
         d="M 0,595.276 H 841.89 V 0 H 0 Z"
         transform="translate(-409.58291,-424.02141)"
         id="path17" />
    </clipPath>
    <clipPath
       clipPathUnits="userSpaceOnUse"
       id="clipPath19">
      <path
         d="M 0,595.276 H 841.89 V 0 H 0 Z"
         transform="translate(-447.41531,-406.99871)"
         id="path19" />
    </clipPath>
    <clipPath
       clipPathUnits="userSpaceOnUse"
       id="clipPath21">
      <path
         d="M 0,595.276 H 841.89 V 0 H 0 Z"
         transform="translate(-477.33271,-414.30061)"
         id="path21" />
    </clipPath>
    <clipPath
       clipPathUnits="userSpaceOnUse"
       id="clipPath23">
      <path
         d="M 0,595.276 H 841.89 V 0 H 0 Z"
         transform="translate(-403.74321,-520.75901)"
         id="path23" />
    </clipPath>
    <clipPath
       clipPathUnits="userSpaceOnUse"
       id="clipPath25">
      <path
         d="M 0,595.276 H 841.89 V 0 H 0 Z"
         transform="translate(-349.85131,-411.15611)"
         id="path25" />
    </clipPath>
    <clipPath
       clipPathUnits="userSpaceOnUse"
       id="clipPath27">
      <path
         d="M 0,595.276 H 841.89 V 0 H 0 Z"
         transform="translate(-382.52241,-413.57061)"
         id="path27" />
    </clipPath>
    <clipPath
       clipPathUnits="userSpaceOnUse"
       id="clipPath29">
      <path
         d="M 0,595.276 H 841.89 V 0 H 0 Z"
         transform="translate(-275.81011,-506.82911)"
         id="path29" />
    </clipPath>
    <clipPath
       clipPathUnits="userSpaceOnUse"
       id="clipPath31">
      <path
         d="M 0,595.276 H 841.89 V 0 H 0 Z"
         transform="translate(-326.16451,-424.41241)"
         id="path31" />
    </clipPath>
    <clipPath
       clipPathUnits="userSpaceOnUse"
       id="clipPath33">
      <path
         d="M 0,595.276 H 841.89 V 0 H 0 Z"
         transform="translate(-646.07891,-349.01231)"
         id="path33" />
    </clipPath>
  </defs>
  <g
     inkscape:label="Layer 1"
     inkscape:groupmode="layer"
     id="layer1">
    <path
       id="path1"
       d="m 81.955354,248.03787 9.458254,-23.05212 9.469352,23.05212 z m 4.854477,-28.54337 -19.803976,47.11598 h 7.346071 l 5.360338,-13.21004 h 23.411556 l 5.35813,13.21004 h 7.7188 L 96.39678,219.4945 Z"
       style="fill:#647b98;fill-opacity:1;fill-rule:nonzero;stroke:none;stroke-width:2.21868" />
    <path
       id="path2"
       d="m 0,0 c -1.46,-1.462 -3.423,-2.19 -5.84,-2.19 -2.412,0 -4.375,0.728 -5.781,2.19 -1.46,1.516 -2.188,3.65 -2.188,6.404 0,2.753 0.728,4.887 2.132,6.405 1.404,1.46 3.369,2.246 5.837,2.246 2.471,0 4.436,-0.786 5.84,-2.246 C 1.402,11.291 2.134,9.157 2.134,6.404 2.134,3.65 1.402,1.516 0,0 m 2.414,14.606 c -0.954,0.899 -2.133,1.631 -3.537,2.134 -1.401,0.449 -2.974,0.732 -4.717,0.732 -1.682,0 -3.254,-0.283 -4.658,-0.732 -1.46,-0.503 -2.637,-1.235 -3.594,-2.134 -1.008,-1.011 -1.794,-2.19 -2.3,-3.54 -0.505,-1.406 -0.786,-2.92 -0.786,-4.662 0,-1.741 0.281,-3.316 0.786,-4.663 0.562,-1.404 1.292,-2.529 2.3,-3.482 0.957,-0.957 2.134,-1.63 3.54,-2.136 1.458,-0.505 2.974,-0.73 4.712,-0.73 1.743,0 3.316,0.225 4.717,0.674 1.348,0.505 2.525,1.235 3.537,2.192 1.009,0.899 1.741,2.078 2.303,3.482 0.503,1.347 0.784,2.922 0.784,4.663 0,1.742 -0.225,3.315 -0.784,4.721 -0.508,1.347 -1.294,2.524 -2.303,3.481"
       style="fill:#647b98;fill-opacity:1;fill-rule:nonzero;stroke:none"
       transform="matrix(2.2186848,0,0,-2.2186848,174.86368,257.26184)"
       clip-path="url(#clipPath3)" />
    <path
       id="path4"
       d="m 0,0 5.669,-6.123 13.418,-14.496 2.246,1.968 L 3.032,1.065 c 0,0 0.112,3.539 0.337,4.721 0.279,1.235 1.235,3.203 2.583,4.101 1.402,0.842 2.749,1.741 5.611,1.797 2.807,0.056 20.771,0.056 20.771,0.056 0,0 3.144,-0.337 4.434,-1.404 1.294,-1.069 2.246,-1.855 2.807,-3.315 0.562,-1.516 0.787,-3.144 0.787,-3.144 h 3.144 c 0,0 0.615,3.144 1.46,4.379 0.898,1.236 2.915,2.866 5.053,3.203 2.188,0.337 11.676,0.281 11.676,0.281 h 9.15 c 0,0 3.872,-0.225 5.332,-1.74 1.514,-1.461 2.471,-2.471 2.92,-4.495 0.391,-1.965 0.278,-6.125 0.278,-6.125 l 0.283,-12.582 H 63.208 L 62.984,4.155 H 59.898 V -28.709 H 43.506 v -2.92 h 20.098 l -0.396,15.28 19.2,0.168 V 1.741 c 0,0 0.84,3.259 -0.787,6.066 -1.626,2.866 -2.133,3.989 -4.829,5.337 -2.69,1.294 -3.706,1.518 -6.792,1.518 H 51.587 c 0,0 -2.578,0 -4.209,-0.617 -1.684,-0.677 -2.807,-1.35 -3.76,-2.305 -0.957,-1.011 -1.626,-2.361 -1.626,-2.361 0,0 -1.235,1.519 -2.08,2.361 -0.786,0.842 -2.134,1.687 -3.198,2.248 -1.069,0.562 -3.765,0.786 -5.054,0.786 H 11.679 c 0,0 -3.481,0.169 -6.908,-1.742 C 1.348,11.066 0.674,8.09 0.337,6.067 0,4.043 0,3.764 0,3.088 Z"
       style="fill:#647b98;fill-opacity:1;fill-rule:nonzero;stroke:none"
       transform="matrix(2.2186848,0,0,-2.2186848,761.47646,33.527435)"
       clip-path="url(#clipPath5)" />
    <path
       id="path6"
       d="m 0,0 c 7.353,0 13.921,1.235 19.595,3.652 0.781,0.281 2.353,0.674 3.139,1.011 -0.39,2.358 -0.615,3.034 -0.39,7.47 0.224,4.497 2.133,12.026 4.77,15.956 C 22.456,23.538 17.348,20.394 13.472,18.651 9.487,16.854 5.053,15.956 0.224,15.956 c -5.61,0 -10.718,1.235 -15.38,3.818 -4.605,2.585 -8.194,6.123 -10.723,10.619 -2.525,4.493 -3.76,9.663 -3.76,15.449 0,8.371 2.862,15.394 8.53,21.068 5.728,5.673 12.745,8.539 21.055,8.539 9.878,0 18.75,-4.159 26.665,-12.528 l 11.617,11.122 c -4.829,5.562 -10.552,9.888 -17.232,12.978 -6.626,3.032 -13.53,4.55 -20.772,4.55 -8.418,0 -16.333,-2.079 -23.633,-6.181 -7.353,-4.101 -12.964,-9.55 -16.894,-16.29 -3.931,-6.741 -5.894,-14.494 -5.894,-23.202 0,-13.427 4.321,-24.437 12.967,-33.033 C -24.585,4.27 -13.53,0 0,0"
       style="fill:#647b98;fill-opacity:1;fill-rule:nonzero;stroke:none"
       transform="matrix(2.2186848,0,0,-2.2186848,582.87538,203.16829)"
       clip-path="url(#clipPath7)" />
    <path
       id="path8"
       d="m 0,0 c 2.691,-1.348 3.701,-1.516 6.792,-1.516 h 18.413 c 0,0 2.579,0 4.209,0.617 1.685,0.618 2.808,1.292 3.76,2.303 0.957,0.956 1.631,2.304 1.631,2.304 0,0 1.231,-1.518 2.075,-2.304 0.786,-0.843 2.134,-1.685 3.198,-2.246 1.065,-0.562 3.765,-0.786 5.054,-0.786 h 19.986 c 0,0 3.481,-0.225 6.904,1.74 3.423,1.911 4.097,4.944 4.433,6.911 0.337,2.022 0.337,2.359 0.337,2.976 v 3.147 L 71.123,19.269 57.706,33.706 55.459,31.797 73.76,12.023 c 0,0 -0.112,-3.54 -0.337,-4.719 C 73.145,6.125 72.188,4.101 70.84,3.259 69.439,2.36 68.091,1.46 65.284,1.404 62.422,1.35 44.458,1.35 44.458,1.35 c 0,0 -3.144,0.334 -4.433,1.404 -1.294,1.066 -2.247,1.909 -2.808,3.371 -0.561,1.46 -0.786,3.088 -0.786,3.088 h -3.145 c 0,0 -0.615,-3.088 -1.46,-4.324 C 30.928,3.596 28.907,1.965 26.773,1.628 24.585,1.35 15.098,1.35 15.098,1.35 H 5.947 c 0,0 -3.872,0.278 -5.332,1.74 -1.514,1.46 -2.47,2.527 -2.915,4.495 -0.395,1.965 -0.283,6.123 -0.283,6.123 v 20.394 7.751 H 13.809 V 11.012 h 3.086 v 30.841 h 16.391 v 2.866 H -5.615 v -33.37 c 0,0 -0.84,-3.259 0.786,-6.069 C -3.199,2.473 -2.695,1.291 0,0"
       style="fill:#647b98;fill-opacity:1;fill-rule:nonzero;stroke:none"
       transform="matrix(2.2186848,0,0,-2.2186848,688.12241,100.08887)"
       clip-path="url(#clipPath9)" />
    <path
       id="path10"
       d="m 221.303,520.759 h -16.448 v -87.187 h 16.448 z"
       style="fill:#647b98;fill-opacity:1;fill-rule:nonzero;stroke:none"
       transform="matrix(2.2186848,0,0,-2.2186848,-454.50868,1160.2637)"
       clip-path="url(#clipPath11)" />
    <path
       id="path12"
       d="m 0,0 c -0.896,0.224 -2.019,0.393 -3.311,0.561 -1.289,0.227 -2.3,0.396 -2.973,0.508 -1.348,0.281 -2.247,0.674 -2.752,1.177 -0.561,0.508 -0.786,1.181 -0.786,2.08 0,0.957 0.505,1.797 1.572,2.417 1.011,0.617 2.415,0.898 4.153,0.898 1.631,0 3.145,-0.171 4.658,-0.674 C 2.08,6.518 3.315,5.956 4.267,5.283 H 4.492 V 8.596 C 3.369,9.047 2.08,9.384 0.674,9.663 c -1.458,0.282 -3.028,0.449 -4.712,0.449 -2.696,0 -4.886,-0.562 -6.626,-1.685 -1.685,-1.181 -2.583,-2.639 -2.583,-4.382 0,-1.574 0.561,-2.81 1.572,-3.764 1.069,-0.955 2.639,-1.687 4.829,-2.078 1.067,-0.168 2.075,-0.337 3.032,-0.449 0.952,-0.112 1.851,-0.283 2.693,-0.449 1.067,-0.281 1.853,-0.618 2.415,-1.069 0.505,-0.45 0.786,-1.123 0.786,-2.08 0,-1.065 -0.562,-1.966 -1.685,-2.639 -1.123,-0.618 -2.695,-0.953 -4.716,-0.953 -1.402,0 -2.918,0.223 -4.546,0.73 -1.627,0.503 -3.032,1.179 -4.268,2.078 h -0.225 v -3.54 c 1.461,-0.562 2.866,-1.011 4.268,-1.291 1.404,-0.281 2.974,-0.396 4.771,-0.396 1.63,0 3.032,0.171 4.209,0.508 1.125,0.337 2.192,0.786 3.032,1.404 0.786,0.563 1.406,1.237 1.853,2.077 0.449,0.789 0.674,1.573 0.674,2.417 0,1.518 -0.45,2.695 -1.346,3.54 C 3.145,-1.065 1.799,-0.391 0,0"
       style="fill:#647b98;fill-opacity:1;fill-rule:nonzero;stroke:none"
       transform="matrix(2.2186848,0,0,-2.2186848,34.24542,241.06122)"
       clip-path="url(#clipPath13)" />
    <path
       id="path14"
       d="m 0,0 c 0.393,0 0.786,-0.115 1.179,-0.283 0.337,-0.225 0.786,-0.503 1.292,-0.952 0.449,-0.34 0.898,-0.62 1.401,-0.789 0.508,-0.168 1.069,-0.281 1.685,-0.281 1.179,0 2.133,0.396 2.863,1.124 0.73,0.732 1.18,1.797 1.292,3.259 H 7.578 C 7.578,1.404 7.354,0.84 7.073,0.391 6.736,-0.058 6.343,-0.225 5.781,-0.225 5.39,-0.225 4.995,-0.171 4.604,0.054 4.209,0.225 3.76,0.505 3.257,0.898 2.808,1.291 2.3,1.516 1.797,1.684 1.291,1.909 0.786,1.965 0.225,1.965 -0.898,1.965 -1.851,1.628 -2.637,0.898 -3.423,0.166 -3.872,-0.898 -3.931,-2.361 h 2.134 c 0.058,0.73 0.225,1.292 0.508,1.741 C -1.011,-0.225 -0.561,0 0,0"
       style="fill:#647b98;fill-opacity:1;fill-rule:nonzero;stroke:none"
       transform="matrix(2.2186848,0,0,-2.2186848,85.314,208.15168)"
       clip-path="url(#clipPath15)" />
    <path
       id="path16"
       d="m 0,0 h -3.259 v -21.236 h 15.437 v 2.526 H 0 Z"
       style="fill:#647b98;fill-opacity:1;fill-rule:nonzero;stroke:none"
       transform="matrix(2.2186848,0,0,-2.2186848,454.22672,219.49383)"
       clip-path="url(#clipPath17)" />
    <path
       id="path18"
       d="m 0,0 c -1.46,-1.462 -3.369,-2.19 -5.781,-2.19 -2.413,0 -4.38,0.728 -5.838,2.19 -1.404,1.516 -2.134,3.65 -2.134,6.404 0,2.753 0.674,4.887 2.134,6.405 1.4,1.46 3.367,2.246 5.838,2.246 2.47,0 4.38,-0.786 5.781,-2.246 C 1.46,11.291 2.134,9.157 2.134,6.404 2.134,3.65 1.46,1.516 0,0 m 2.471,14.606 c -1.011,0.899 -2.192,1.631 -3.536,2.134 -1.406,0.449 -2.978,0.732 -4.716,0.732 -1.743,0 -3.257,-0.283 -4.717,-0.732 -1.402,-0.503 -2.581,-1.235 -3.591,-2.134 -1.011,-1.011 -1.741,-2.19 -2.244,-3.54 -0.562,-1.406 -0.845,-2.92 -0.845,-4.662 0,-1.741 0.283,-3.316 0.845,-4.663 0.503,-1.404 1.289,-2.529 2.244,-3.482 1.01,-0.957 2.189,-1.63 3.591,-2.136 1.406,-0.505 2.974,-0.73 4.717,-0.73 1.738,0 3.31,0.225 4.658,0.674 1.402,0.505 2.583,1.235 3.594,2.192 0.952,0.899 1.738,2.078 2.246,3.482 0.557,1.347 0.84,2.922 0.84,4.663 0,1.742 -0.283,3.315 -0.786,4.721 -0.562,1.347 -1.29,2.524 -2.3,3.481"
       style="fill:#647b98;fill-opacity:1;fill-rule:nonzero;stroke:none"
       transform="matrix(2.2186848,0,0,-2.2186848,538.16489,257.26184)"
       clip-path="url(#clipPath19)" />
    <path
       id="path20"
       d="m 0,0 c -0.894,0.224 -1.963,0.393 -3.252,0.561 -1.29,0.227 -2.305,0.396 -2.974,0.508 -1.348,0.281 -2.246,0.674 -2.808,1.177 -0.507,0.508 -0.786,1.181 -0.786,2.08 0,0.957 0.557,1.797 1.626,2.417 1.011,0.617 2.417,0.898 4.156,0.898 1.572,0 3.144,-0.171 4.658,-0.674 C 2.134,6.518 3.369,5.956 4.272,5.283 H 4.497 V 8.596 C 3.428,9.047 2.134,9.384 0.732,9.663 c -1.46,0.282 -3.032,0.449 -4.77,0.449 -2.637,0 -4.829,-0.562 -6.568,-1.685 -1.743,-1.181 -2.583,-2.639 -2.583,-4.382 0,-1.574 0.503,-2.81 1.573,-3.764 1.064,-0.955 2.636,-1.687 4.829,-2.078 1.064,-0.168 2.075,-0.337 3.027,-0.449 0.957,-0.112 1.855,-0.283 2.642,-0.449 1.118,-0.281 1.909,-0.618 2.466,-1.069 0.507,-0.45 0.786,-1.123 0.786,-2.08 0,-1.065 -0.562,-1.966 -1.685,-2.639 -1.118,-0.618 -2.691,-0.953 -4.712,-0.953 -1.401,0 -2.92,0.223 -4.546,0.73 -1.631,0.503 -3.032,1.179 -4.267,2.078 h -0.283 v -3.54 c 1.46,-0.562 2.919,-1.011 4.325,-1.291 1.402,-0.281 2.974,-0.396 4.713,-0.396 1.684,0 3.09,0.171 4.267,0.508 1.123,0.337 2.134,0.786 3.032,1.404 0.787,0.563 1.406,1.237 1.856,2.077 0.449,0.789 0.669,1.573 0.669,2.417 0,1.518 -0.449,2.695 -1.402,3.54 C 3.203,-1.065 1.855,-0.391 0,0"
       style="fill:#647b98;fill-opacity:1;fill-rule:nonzero;stroke:none"
       transform="matrix(2.2186848,0,0,-2.2186848,604.54217,241.06122)"
       clip-path="url(#clipPath21)" />
    <path
       id="path22"
       d="M 0,0 H -15.943 L -36.377,-60.841 -56.529,0 h -16.223 l -15.044,-87.187 h 16.167 l 9.543,55.055 18.299,-55.055 h 14.595 l 18.525,55.055 9.375,-55.055 h 15.999 z"
       style="fill:#647b98;fill-opacity:1;fill-rule:nonzero;stroke:none"
       transform="matrix(2.2186848,0,0,-2.2186848,441.27027,4.8635851)"
       clip-path="url(#clipPath23)" />
    <path
       id="path24"
       d="M 0,0 4.324,10.39 8.589,0 Z M 2.192,12.865 -6.68,-8.371 h 3.313 l 2.356,5.954 H 9.6 l 2.414,-5.954 h 3.425 L 6.57,12.865 Z"
       style="fill:#647b98;fill-opacity:1;fill-rule:nonzero;stroke:none"
       transform="matrix(2.2186848,0,0,-2.2186848,321.70112,248.03787)"
       clip-path="url(#clipPath25)" />
    <path
       id="path26"
       d="m 0,0 h -3.311 v 8.034 h 3.819 c 0.898,0 1.684,-0.058 2.3,-0.168 C 3.425,7.753 3.987,7.585 4.492,7.304 5.054,6.965 5.447,6.574 5.727,6.125 5.952,5.617 6.064,5.112 6.064,4.494 6.064,3.708 5.952,3.034 5.727,2.529 5.503,1.965 5.108,1.518 4.604,1.123 4.099,0.73 3.425,0.393 2.695,0.281 1.909,0.115 1.011,0 0,0 m 8.14,0.842 c 0.898,1.013 1.347,2.305 1.347,3.821 0,1.125 -0.28,2.078 -0.786,2.81 C 8.198,8.2 7.524,8.82 6.626,9.326 5.84,9.719 4.995,10.056 3.987,10.224 2.976,10.393 1.797,10.451 0.283,10.451 h -6.851 v -21.237 h 3.257 v 8.484 h 4.605 l 8.137,-8.484 h 4.211 l -9.15,9.326 c 1.516,0.506 2.749,1.292 3.648,2.302"
       style="fill:#647b98;fill-opacity:1;fill-rule:nonzero;stroke:none"
       transform="matrix(2.2186848,0,0,-2.2186848,394.18801,242.68087)"
       clip-path="url(#clipPath27)" />
    <path
       id="path28"
       d="m 0,0 c 9.88,0 18.748,-4.16 26.609,-12.529 l 11.619,11.123 c -4.827,5.561 -10.554,9.887 -17.176,12.978 -6.682,3.032 -13.586,4.55 -20.771,4.55 -8.477,0 -16.336,-2.08 -23.692,-6.181 -7.295,-4.101 -12.91,-9.55 -16.838,-16.291 -3.929,-6.74 -5.894,-14.493 -5.894,-23.201 0,-13.427 4.324,-24.438 12.91,-33.033 8.646,-8.596 19.761,-12.865 33.289,-12.865 7.354,0 13.865,1.235 19.59,3.652 5.728,2.414 11.79,6.74 18.245,13.031 l -11.282,11.742 c -4.773,-4.718 -9.15,-7.977 -13.137,-9.774 -3.985,-1.797 -8.362,-2.695 -13.191,-2.695 -5.669,0 -10.779,1.235 -15.437,3.818 -4.602,2.585 -8.142,6.122 -10.667,10.619 -2.524,4.492 -3.818,9.663 -3.818,15.448 0,8.372 2.866,15.395 8.589,21.069 C -15.381,-2.866 -8.364,0 0,0"
       style="fill:#647b98;fill-opacity:1;fill-rule:nonzero;stroke:none"
       transform="matrix(2.2186848,0,0,-2.2186848,157.42702,35.769636)"
       clip-path="url(#clipPath29)" />
    <path
       id="path30"
       d="m 0,0 c -1.797,0 -3.425,-0.225 -4.885,-0.728 -1.458,-0.507 -2.749,-1.181 -3.76,-2.138 -1.067,-0.899 -1.909,-2.075 -2.471,-3.481 -0.561,-1.348 -0.842,-2.92 -0.842,-4.663 0,-1.856 0.281,-3.482 0.898,-4.888 0.562,-1.347 1.402,-2.529 2.471,-3.427 1.067,-0.899 2.3,-1.572 3.76,-2.022 1.46,-0.449 3.032,-0.619 4.829,-0.619 0.952,0 1.795,0.058 2.581,0.17 0.786,0.112 1.516,0.281 2.19,0.449 0.786,0.225 1.403,0.45 1.909,0.618 0.449,0.225 1.01,0.449 1.626,0.674 v 3.315 H 8.081 c -1.177,-0.955 -2.468,-1.63 -3.816,-2.136 -1.404,-0.449 -2.863,-0.672 -4.436,-0.672 -1.12,0 -2.187,0.169 -3.254,0.506 -1.011,0.337 -1.907,0.84 -2.639,1.572 -0.728,0.674 -1.348,1.514 -1.795,2.583 -0.505,1.069 -0.73,2.361 -0.73,3.877 0,1.404 0.225,2.697 0.618,3.764 0.449,1.067 1.008,1.965 1.794,2.698 0.786,0.73 1.629,1.291 2.639,1.628 1.011,0.337 2.134,0.505 3.367,0.505 1.46,0 2.92,-0.227 4.214,-0.673 1.345,-0.45 2.693,-1.18 4.038,-2.136 h 0.225 v 3.371 C 6.736,-1.177 5.276,-0.674 3.931,-0.391 2.637,-0.166 1.348,0 0,0"
       style="fill:#647b98;fill-opacity:1;fill-rule:nonzero;stroke:none"
       transform="matrix(2.2186848,0,0,-2.2186848,269.14758,218.62631)"
       clip-path="url(#clipPath31)" />
    <path
       id="path32"
       d="m 0,0 c -7.996,-10.478 -21.432,-14.673 -37.979,-11.981 1.246,1.383 2.392,2.831 3.432,4.342 2.164,-0.247 4.26,-0.375 6.274,-0.375 12.126,0 21.425,4.425 26.573,12.789 6.807,11.06 4.577,25.812 -0.908,33.96 -10.731,18.212 -26.281,36.555 -42.858,50.626 1.135,0.799 2.278,1.584 3.429,2.354 C -23.601,76.801 -8.591,58.83 3.778,36.847 9.35,25.663 7.76,10.166 0,0 m -53.899,-20.904 c -19.356,-9.448 -43.139,-6.419 -55.425,6.707 1.381,0.563 2.709,1.191 3.99,1.877 8.65,-6.967 18.432,-9.907 27.901,-9.907 12.169,0.002 23.815,4.843 31.838,12.176 11.77,10.757 19.197,29.783 4.85,50.978 0.673,1.101 1.375,2.22 2.102,3.35 2.768,-3.056 4.582,-7.082 6.479,-11.334 0.427,-0.955 0.856,-1.916 1.296,-2.869 2.895,-12.44 1.506,-23.856 -3.676,-33.189 -0.05,0.006 -0.097,0.009 -0.146,0.015 l -0.046,-0.366 c -4.136,-7.272 -10.6,-13.257 -19.163,-17.438 m -76.132,5.4 c -9.595,0.312 -18.372,5.657 -23.48,14.3 -6.779,11.468 -6.363,26.499 1.132,41.229 3.805,7.25 8.247,12.892 12.953,18.866 1.901,2.412 3.85,4.898 5.756,7.493 0.975,-1.001 1.966,-2.006 2.965,-3.019 0.18,-0.182 0.36,-0.364 0.54,-0.547 -11.222,-12.628 -19.266,-25.468 -22.162,-35.461 -2.732,-9.739 -1.508,-19.121 3.443,-26.418 4.505,-6.642 11.872,-11.1 19.707,-11.929 l 0.141,-0.016 0.144,0.005 c 15.123,0.332 26.652,6.064 32.467,16.142 5.55,9.617 5.263,22.411 -0.732,33.417 0.815,1.063 1.642,2.12 2.482,3.171 7.59,-13.235 8.301,-27.738 1.832,-38.991 -6.797,-11.821 -20.399,-18.447 -37.188,-18.242 m -15.392,101.945 c -2.56,11.635 0.409,20.75 8.144,25.01 9.71,5.347 24.031,1.771 35.285,-8.665 -0.891,-0.792 -1.772,-1.597 -2.646,-2.41 -13.374,11.706 -25.178,10.801 -31.264,6.406 -6.199,-4.477 -7.803,-12.911 -4.055,-21.558 2.581,-5.444 8.722,-11.868 15.222,-18.665 5.228,-5.465 10.603,-11.103 14.322,-16.42 -1.002,-1.282 -1.986,-2.581 -2.941,-3.908 -3.669,6.61 -9.76,12.79 -15.678,18.783 -7.227,7.322 -14.055,14.236 -16.389,21.427 m 60.035,25.83 c 14.013,4.932 23.512,-1.526 30.329,-8.465 -1.158,-0.853 -2.328,-1.735 -3.51,-2.646 l -0.581,0.458 c -6.994,5.559 -14.925,11.859 -29.347,3.839 l -0.348,-0.238 c -11.471,-9.575 -20.39,-17.277 -29.686,-28.161 -0.905,1.026 -1.807,2.063 -2.704,3.11 1.269,1.322 2.542,2.655 3.825,4.001 9.824,10.318 19.981,20.991 32.022,28.102 M -28.556,0.795 c 7.8,0 14.498,3.207 18.651,9.022 4.099,5.739 5.035,13.259 2.34,19.249 -11.564,20.695 -27.311,40.352 -44.422,55.507 0.912,0.696 1.837,1.388 2.768,2.076 16.521,-13.847 32.068,-32.093 42.806,-50.31 4.773,-7.098 6.705,-19.748 0.881,-29.206 -4.846,-7.876 -13.964,-11.481 -26.449,-10.506 0.715,1.364 1.358,2.768 1.921,4.21 0.505,-0.026 1.007,-0.042 1.504,-0.042 m -19.752,31.663 c -3.237,-6.25 -3.572,-17.762 2.927,-22.99 -0.672,-1.84 -1.569,-3.608 -2.685,-5.286 -15.716,16.117 -1.867,35.616 8.304,49.916 2.302,3.241 4.341,6.115 5.831,8.654 1.046,-1.226 2.081,-2.464 3.103,-3.717 -7.376,-8.859 -13.535,-19.247 -17.48,-26.577 m 3.679,-20.529 c -4.179,4.211 -4.563,12.745 -2.011,18.554 2.803,-6.464 3.443,-12.805 2.011,-18.554 m -31.928,-24.372 c 8.443,0 16.924,2.931 23.175,7.681 12.171,9.256 15.187,23.397 8.11,37.888 0.611,1.109 1.268,2.276 1.964,3.483 11.154,-18.095 4.727,-34.155 -5.321,-43.338 -12.572,-11.491 -34.972,-16.219 -52.613,-3.082 1.775,1.252 3.411,2.651 4.916,4.173 5.682,-4.752 12.709,-6.807 19.769,-6.805 m -3.85,70.923 3.657,4.17 c 4.948,-4.861 9.719,-9.83 14.422,-14.733 l 3.517,-3.659 c -1.874,-3.267 -3.591,-6.723 -5.083,-10.522 -2.834,-10.686 -4.484,-24.564 7.53,-37.735 -10.792,-7.233 -27.337,-9.055 -38.366,0.086 1.466,1.693 2.79,3.511 3.922,5.481 7.022,12.214 6.163,27.942 -2.276,42.118 4.018,4.925 8.275,9.784 12.677,14.794 m -23.72,-25.519 c -5.82,-6.834 -7.315,-17.305 -3.648,-25.092 -1.112,-1.247 -2.518,-2.472 -4.293,-3.571 -3.716,10.178 -2.817,20.064 2.627,28.625 6.841,10.295 15.548,20.87 28.111,34.138 0.973,-0.918 1.939,-1.84 2.898,-2.769 l -3.738,-4.264 c -7.996,-9.101 -15.549,-17.697 -21.957,-27.067 m -0.701,-5.232 c 1.833,-4.148 2.646,-10.625 -0.653,-16.631 -0.198,-0.359 -0.424,-0.727 -0.665,-1.098 -2.127,5.494 -1.584,12.222 1.318,17.729 m -35.144,5.755 c -6.399,-12.007 -4.393,-20.432 -1.583,-25.385 3.784,-6.666 10.695,-9.907 16.021,-10.157 1.2,0.099 2.32,0.249 3.404,0.423 0.019,-0.053 0.034,-0.105 0.052,-0.157 l 0.852,0.304 c 10.43,1.906 15.429,7.136 17.802,11.456 4.009,7.3 2.623,15.228 0.218,19.801 l -0.596,-0.313 c 0.472,0.722 0.977,1.423 1.537,2.081 0.689,1.006 1.396,1.998 2.11,2.987 4.315,-9.178 4.296,-19.399 -0.167,-27.134 -3.527,-6.112 -11.334,-13.472 -28.523,-13.89 -6.482,0.728 -12.571,4.445 -16.317,9.963 -2.968,4.376 -5.867,11.86 -2.839,22.661 2.695,9.294 10.309,21.41 20.99,33.473 0.893,-0.924 1.774,-1.853 2.639,-2.787 -6.494,-7.98 -11.338,-15.219 -15.6,-23.326 m 21.605,5.105 c -7.483,-9.7 -9.078,-23.435 -4.505,-37.987 -0.866,-0.128 -1.756,-0.241 -2.701,-0.319 -4.53,0.22 -10.596,3.082 -13.941,8.975 -2.517,4.438 -4.285,12.057 1.615,23.128 4.14,7.874 8.845,14.919 15.125,22.664 3.186,-3.58 6.009,-7.236 7.921,-10.988 -1.213,-1.775 -2.398,-3.583 -3.514,-5.473 m 35.845,59.905 c -12.164,-8.593 -22.591,-18.189 -30.287,-27.842 -0.455,0.507 -0.913,1.02 -1.365,1.523 -0.445,0.495 -0.892,0.994 -1.34,1.493 9.174,10.816 18.004,18.453 29.387,27.957 11.515,6.326 17.314,1.92 23.917,-3.319 -0.959,-0.765 -1.925,-1.543 -2.898,-2.336 -4.31,3.393 -9.669,6.67 -17.414,2.524 m -3.444,-5.417 c 1.527,1.158 3.085,2.3 4.672,3.422 5.838,3.12 9.832,1.345 14.312,-2.063 -3.337,-2.745 -6.755,-5.626 -10.248,-8.575 -2.813,2.351 -5.721,4.747 -8.736,7.216 m 35.802,-35.77 c -0.836,-1.157 -1.663,-2.311 -2.475,-3.469 -2.236,2.184 -4.464,4.383 -6.697,6.594 -9.876,9.771 -20.087,19.848 -31.533,28.779 0.983,0.805 1.98,1.604 2.994,2.395 14.729,-12.054 26.91,-22.309 37.711,-34.299 m 1.867,2.575 c -0.154,-0.212 -0.307,-0.422 -0.46,-0.633 -4.874,5.379 -10.017,10.413 -15.535,15.412 3.181,2.672 6.689,5.558 10.414,8.455 4.45,-3.922 8.806,-8.156 13.022,-12.634 -2.416,-3.685 -4.971,-7.2 -7.441,-10.6 m 1.898,-1.381 c 2.381,3.277 4.836,6.665 7.187,10.22 0.718,-0.781 1.429,-1.574 2.138,-2.368 -1.357,-2.613 -3.673,-5.875 -6.354,-9.645 -10.56,-14.848 -26.47,-37.227 -7.464,-56.084 -1.066,-1.138 -2.255,-2.218 -3.559,-3.237 -11.443,12.403 -9.869,25.59 -7.217,35.617 3.857,9.801 9.4,17.427 15.269,25.497 m -42.824,15.684 c -2.289,-2.577 -4.59,-5.101 -6.879,-7.594 -2.313,-2.521 -4.583,-5.004 -6.799,-7.501 -2.709,3.396 -5.516,6.645 -8.317,9.787 3.503,4.43 7.596,8.851 12.173,13.164 3.386,-2.504 6.653,-5.134 9.822,-7.856 m -8.072,9.478 c 0.953,0.869 1.92,1.735 2.91,2.593 11.544,-8.91 21.884,-19.127 31.884,-29.022 2.431,-2.405 4.854,-4.802 7.287,-7.174 -0.805,-1.217 -1.591,-2.449 -2.355,-3.706 l -3.066,3.189 c -11.296,11.777 -22.973,23.937 -36.66,34.12 m -15.279,8.928 c -2.207,-2.26 -4.381,-4.54 -6.537,-6.805 -1.222,-1.284 -2.436,-2.554 -3.647,-3.816 -2.215,2.649 -4.377,5.376 -6.408,8.225 -1.083,3.654 -0.773,6.284 0.874,7.414 2.149,1.479 7.495,0.938 15.718,-5.018 m -17.048,6.954 c -1.498,-1.029 -3.717,-3.726 -1.736,-10.215 l 0.166,-0.337 c 2.156,-3.036 4.45,-5.925 6.797,-8.724 -0.056,-0.058 -0.113,-0.117 -0.169,-0.175 l 1.684,-1.635 c 0.004,0.003 0.007,0.007 0.011,0.011 2.304,-2.687 4.644,-5.296 6.95,-7.863 3.817,-4.246 7.744,-8.642 11.444,-13.306 -1.016,-1.166 -2.017,-2.339 -3.002,-3.523 -3.85,5.264 -9.003,10.655 -14.008,15.89 -6.244,6.527 -12.139,12.695 -14.377,17.416 -2.888,6.662 -1.895,12.812 2.59,16.05 4.699,3.392 14.109,3.821 25.359,-5.873 -1.008,-0.984 -2.005,-1.978 -2.996,-2.977 -8.028,5.876 -14.946,7.848 -18.713,5.261 m 17.473,-55.695 c 1.858,2.642 3.806,5.186 5.839,7.661 l 0.289,0.193 c -0.019,0.029 -0.041,0.058 -0.061,0.087 3.701,4.486 7.649,8.789 11.71,13.212 2.302,2.507 4.618,5.049 6.92,7.643 0.949,-0.835 1.891,-1.676 2.824,-2.525 -12.731,-13.449 -21.579,-24.199 -28.584,-34.746 -6.333,-9.957 -7.325,-21.373 -2.914,-33.067 -1.324,-0.504 -2.799,-0.934 -4.415,-1.282 -4.446,13.915 -3.017,26.995 4.115,36.249 1.312,2.22 2.709,4.334 4.154,6.396 l 0.172,0.077 c -0.016,0.034 -0.034,0.068 -0.049,0.102 m 83.541,-13.124 -0.079,0.227 c -0.456,0.979 -0.896,1.965 -1.334,2.947 -1.977,4.431 -4.034,8.991 -7.305,12.397 2.435,3.669 5.123,7.391 8.001,10.879 7.349,-9.208 14.022,-19.069 19.665,-29.163 2.313,-5.153 1.469,-11.761 -2.154,-16.832 -3.817,-5.344 -10.103,-8.217 -17.423,-8.026 2.678,8.241 2.969,17.594 0.629,27.571 m -1.008,53.222 c -3.33,3.159 -6.783,6.196 -10.364,9.117 2.327,1.501 4.674,2.924 7.019,4.221 4.032,2.142 7.54,2.246 9.395,0.28 1.494,-1.581 1.514,-4.153 0.167,-6.399 z m 8.108,5.842 c 2.028,3.331 1.889,7.015 -0.351,9.387 -2.623,2.783 -7.187,2.85 -12.22,0.17 -11.544,-6.382 -23.082,-15.62 -31.974,-23.099 -1.021,0.91 -2.058,1.822 -3.106,2.735 4.27,3.226 8.162,6.216 11.635,8.887 8.65,6.653 14.898,11.46 18.214,13.099 l 0.222,0.126 c 9.134,5.891 17.113,6.23 20.827,0.885 3.799,-5.472 2.256,-15.551 -6.686,-22.61 -0.978,0.997 -1.965,1.986 -2.966,2.96 z m -0.485,24.148 c 6.798,-1.986 12.014,-7.25 13.608,-13.746 2.054,-8.353 -1.834,-17.86 -10.928,-26.841 -0.825,0.921 -1.655,1.838 -2.498,2.741 10.697,8.68 12.166,21.365 7.245,28.453 -4.101,5.902 -13.305,9.096 -26.856,0.397 -3.721,-1.875 -9.757,-6.515 -18.844,-13.505 -3.677,-2.826 -7.807,-6.004 -12.378,-9.448 -0.91,0.777 -1.829,1.557 -2.76,2.341 5.211,4.399 10.251,8.64 15.085,12.483 l 0.051,-0.04 0.161,0.208 c 14.99,11.896 28.012,19.934 38.114,16.957 M 5.851,37.945 c -6.996,12.434 -14.821,23.588 -23.606,33.648 9.77,9.609 13.914,19.942 11.65,29.156 -1.794,7.309 -7.632,13.225 -15.228,15.439 -9.033,2.67 -19.746,-2.369 -31.806,-10.988 -6.886,7.065 -17.51,14.738 -33.233,9.191 -4.925,-2.899 -9.498,-6.33 -13.842,-10.055 -12.023,11.249 -27.557,15.033 -38.197,9.17 -8.712,-4.797 -12.104,-14.846 -9.274,-27.68 1.999,-6.171 6.785,-11.894 12.359,-17.726 -1.957,-2.682 -3.976,-5.258 -5.944,-7.758 -4.564,-5.794 -9.283,-11.787 -13.196,-19.239 -7.872,-15.471 -8.261,-31.328 -1.066,-43.502 5.518,-9.334 15.021,-15.111 25.447,-15.453 0.292,-0.002 0.584,-0.004 0.874,-0.004 6.356,0 12.254,0.957 17.534,2.77 7.927,-9 20.353,-13.794 33.615,-13.794 8.38,0.002 17.088,1.909 25.192,5.867 5.004,2.442 9.321,5.472 12.924,8.987 3.965,-0.738 7.775,-1.119 11.394,-1.119 12.967,0 23.532,4.699 30.418,13.721 8.407,11.015 10.058,27.184 3.985,39.369"
       style="fill:#647b98;fill-opacity:1;fill-rule:nonzero;stroke:none"
       transform="matrix(2.2186848,0,0,-2.2186848,978.93675,385.91538)"
       clip-path="url(#clipPath33)" />
  </g>
</svg>
