<?xml version="1.0" encoding="UTF-8" standalone="no"?>
<!-- Created with Inkscape (http://www.inkscape.org/) -->

<svg
   width="1100"
   height="440"
   viewBox="0 0 1100 440"
   version="1.1"
   id="svg1"
   inkscape:version="1.4.3 (0d15f75042, 2025-12-25)"
   sodipodi:docname="estático.svg"
   inkscape:export-filename="cover.png"
   inkscape:export-xdpi="96"
   inkscape:export-ydpi="96"
   xmlns:inkscape="http://www.inkscape.org/namespaces/inkscape"
   xmlns:sodipodi="http://sodipodi.sourceforge.net/DTD/sodipodi-0.dtd"
   xmlns="http://www.w3.org/2000/svg"
   xmlns:svg="http://www.w3.org/2000/svg"
   xmlns:rdf="http://www.w3.org/1999/02/22-rdf-syntax-ns#"
   xmlns:cc="http://creativecommons.org/ns#"
   xmlns:dc="http://purl.org/dc/elements/1.1/">
  <sodipodi:namedview
     id="namedview1"
     pagecolor="#ffffff"
     bordercolor="#000000"
     borderopacity="0.25"
     inkscape:showpageshadow="2"
     inkscape:pageopacity="0.0"
     inkscape:pagecheckerboard="0"
     inkscape:deskcolor="#d1d1d1"
     inkscape:document-units="px"
     showguides="true"
     inkscape:zoom="0.70644641"
     inkscape:cx="467.12673"
     inkscape:cy="263.99738"
     inkscape:window-width="1920"
     inkscape:window-height="1011"
     inkscape:window-x="0"
     inkscape:window-y="0"
     inkscape:window-maximized="1"
     inkscape:current-layer="layer1">
    <sodipodi:guide
       position="55,495"
       orientation="-1,0"
       id="guide24"
       inkscape:locked="false"
       inkscape:label=""
       inkscape:color="rgb(0,134,229)" />
    <sodipodi:guide
       position="-55,385"
       orientation="0,1"
       id="guide25"
       inkscape:locked="false"
       inkscape:label=""
       inkscape:color="rgb(0,134,229)" />
    <sodipodi:guide
       position="1045,495"
       orientation="-1,0"
       id="guide26"
       inkscape:locked="false"
       inkscape:label=""
       inkscape:color="rgb(0,134,229)" />
    <sodipodi:guide
       position="-55,55"
       orientation="0,1"
       id="guide27"
       inkscape:locked="false"
       inkscape:label=""
       inkscape:color="rgb(0,134,229)" />
    <sodipodi:guide
       position="-55,219.17646"
       orientation="0,1"
       id="guide28"
       inkscape:locked="false"
       inkscape:label=""
       inkscape:color="rgb(0,134,229)" />
    <sodipodi:guide
       position="-55,412.5"
       orientation="0,1"
       id="guide29"
       inkscape:locked="false"
       inkscape:label=""
       inkscape:color="rgb(0,134,229)" />
    <sodipodi:guide
       position="-55,27.5"
       orientation="0,1"
       id="guide30"
       inkscape:locked="false"
       inkscape:label=""
       inkscape:color="rgb(0,134,229)" />
    <sodipodi:guide
       position="1072.5,495"
       orientation="-1,0"
       id="guide32"
       inkscape:locked="false"
       inkscape:label=""
       inkscape:color="rgb(0,134,229)" />
  </sodipodi:namedview>
  <defs
     id="defs1">
    <rect
       x="450"
       y="400"
       width="503.55011"
       height="84.995087"
       id="rect10" />
    <rect
       x="450"
       y="400"
       width="503.55011"
       height="84.995087"
       id="rect24" />
    <rect
       x="450"
       y="400"
       width="503.55011"
       height="84.995087"
       id="rect10-7" />
  </defs>
  <g
     inkscape:groupmode="layer"
     id="layer2"
     inkscape:label="Background"
     sodipodi:insensitive="true">
    <rect
       style="fill:#ffd000;stroke-width:0.944882;stroke-linecap:square;stroke-miterlimit:5"
       id="rect1"
       width="1100"
       height="440"
       x="0"
       y="0" />
  </g>
  <g
     inkscape:label="Name"
     inkscape:groupmode="layer"
     id="layer1"
     transform="matrix(0.66027147,0,0,0.66027147,-54.556423,10.133342)"
     style="stroke-width:1.51453"
     sodipodi:insensitive="true">
    <text
       xml:space="preserve"
       id="text9-9"
       style="font-style:normal;font-variant:normal;font-weight:bold;font-stretch:normal;font-size:27.4682px;line-height:1.25;font-family:'Inter 28pt';-inkscape-font-specification:'Inter 28pt Bold';text-align:center;letter-spacing:0px;word-spacing:0px;writing-mode:lr-tb;direction:ltr;white-space:pre;shape-inside:url(#rect10-7);display:inline;fill:#000000;fill-opacity:1;stroke:none;stroke-width:3.44575;stroke-linecap:round;stroke-miterlimit:0;stroke-dasharray:none"
       x="-1647.1147"
       y="0"
       transform="matrix(1.255695,0,0,1.255695,299.75441,-157.26893)"
       inkscape:label="Simpósio Interdisciplinar Brasileieo de Modelos Baseados em Agentes"><tspan
         x="450"
         y="425.42582"
         id="tspan2"><tspan
           style="font-weight:500;font-family:Montserrat;-inkscape-font-specification:'Montserrat Medium';text-align:start"
           id="tspan1">Simpósio Interdisciplinar Brasileiro
</tspan></tspan><tspan
         x="450"
         y="459.94105"
         id="tspan4"><tspan
           dx="0 0 -0.16626717 0.16626669 0 0 0 0 0 0 -0.1662605 0.16626288 0 0 0 0 0 0 0 -0.16629101 0.16627814 0 -0.16626526 0.16624762"
           style="font-weight:500;font-family:Montserrat;-inkscape-font-specification:'Montserrat Medium';letter-spacing:0.131263px;word-spacing:0.166266px"
           id="tspan3">de Modelos Baseados em Agentes</tspan></tspan></text>
    <text
       xml:space="preserve"
       style="font-weight:bold;font-size:142.942px;font-family:Oswald;-inkscape-font-specification:'Oswald Bold';text-align:start;letter-spacing:0px;word-spacing:0px;writing-mode:lr-tb;direction:ltr;text-anchor:start;display:inline;fill:#000000;fill-opacity:1;stroke:none;stroke-width:3.69404;stroke-linecap:round;stroke-miterlimit:0;stroke-dasharray:none"
       x="863.22955"
       y="317.84906"
       id="text1-9"
       inkscape:label="SIMBRA"><tspan
         sodipodi:role="line"
         id="tspan1-7"
         x="863.22955"
         y="317.84906"
         style="font-style:normal;font-variant:normal;font-weight:800;font-stretch:normal;font-size:142.942px;font-family:Montserrat;-inkscape-font-specification:'Montserrat Ultra-Bold';letter-spacing:0px;fill:#000000;stroke:none;stroke-width:3.69404;stroke-linecap:round;stroke-dasharray:none"><tspan
   style="fill:#000000;stroke-width:3.69404"
   id="tspan21-3">S</tspan><tspan
   style="fill:#000000;stroke-width:3.69404"
   id="tspan19-6">I</tspan><tspan
   style="fill:#000000;stroke-width:3.69404"
   id="tspan20-1">M</tspan><tspan
   style="fill:#000000;stroke-width:3.69404"
   id="tspan22-2">B</tspan>RA</tspan></text>
  </g>
  <g
     inkscape:groupmode="layer"
     id="layer3"
     inkscape:label="Symbol"
     sodipodi:insensitive="true">
    <path
       d="m 284.77531,352.87384 6.31751,6.73256 12.62815,6.95707 8.67865,6.83814 4.6359,5.09458 2.49084,4.02269 9.47304,-11.07592 9.29779,-11.13306 7.50978,-10.27405 8.36626,-9.12281 1.14943,-14.14071 4.11697,-13.19223 11.0526,-8.14715 12.06864,-6.33349 13.83929,-4.35997 14.78157,-3.02349 7.51034,-11.38614 6.70649,-12.23554 4.16656,-12.1794 5.29148,-12.36434 -0.6705,-14.20148 -0.57198,-11.17658 7.97773,-11.90563 8.85564,-11.72251 7.10126,-8.89817 6.95832,-9.02305 3.41189,-11.08948 -1.40555,-12.8572 -7.12043,-10.13295 -10.7003,-2.13224 -8.47033,-6.10492 -8.58664,-8.08563 -8.40591,-2.07617 -11.21511,-0.40374 -9.79827,-2.48653 -9.04826,-1.58859 -7.88104,-7.81878 -11.20773,-4.41586 -14.01451,-3.83132 -12.06304,-4.523015 -3.68416,-12.352354 -6.39066,-6.026108 -2.10052,-6.842855 -3.79684,-9.234349 -5.11407,3.359967 -7.96319,9.82601 -13.02452,1.480602 -12.79965,-0.06723 -12.49996,4.29399 -9.96117,2.575396 -7.7531,-4.31643 -0.25164,-12.574597 -1.34762,-12.095975 -8.60082,3.454379 -9.85107,2.355507 -11.26855,3.136808 -8.69532,-0.830721 4.07731,8.522188 4.04261,8.115421 -13.14319,8.963095 -12.46044,-1.744184 -5.08912,-6.674814 -6.97367,0.756948 -10.31811,2.370251 0.70357,7.173372 -5.13479,5.335575 2.65031,6.753633 1.88278,14.79756 -4.95266,13.05166 -13.34469,4.86557 -11.1537,7.97279 -4.53704,13.85349 2.51982,13.22119 5.27918,7.65697 9.53536,4.74459 7.04033,-0.65278 0.51924,7.54279 13.09338,0.41255 13.25092,-3.52645 11.96838,-5.16791 3.83824,8.67671 6.80031,11.32136 14.44573,5.83734 12.33579,5.14046 7.8141,9.90143 2.53384,11.73225 11.63285,3.00322 4.93832,8.22628 3.31489,7.9241 -3.02923,13.85102 2.57156,15.21957 9.53595,3.37367 8.35041,9.5318 5.9324,6.30166 4.35275,7.11857 2.55472,9.10224 0.92829,10.2036 -9.04085,5.36548 -8.41651,4.3274 -6.86695,8.67473 z"
       style="display:inline;fill:#183eff;fill-rule:nonzero;stroke:#000000;stroke-width:2.9878;stroke-linecap:square;stroke-linejoin:miter;stroke-dasharray:none"
       id="path16"
       inkscape:label="Brazil"
       inkscape:linked-fill="path7" />
    <path
       style="baseline-shift:baseline;display:inline;overflow:visible;vector-effect:none;fill:#ffffff;stroke-width:0.398375;stroke-linecap:square;stroke-miterlimit:0;enable-background:accumulate;stop-color:#000000"
       d="m 412.86427,164.80332 v 1.61477 c 0,26.80506 -2.70595,52.51523 -9.3268,71.3204 -3.31043,9.40257 -7.59607,17.05871 -12.89826,22.29718 -5.3022,5.23847 -11.55583,8.11251 -19.21619,8.11251 h -1.61461 v 3.22951 h 1.61461 c 8.4856,0 15.6869,-3.31587 21.48503,-9.04434 5.79817,-5.72846 10.25825,-13.81627 13.6753,-23.52172 6.83412,-19.41091 9.51014,-45.37317 9.51014,-72.39354 v -1.61477 z"
       id="path17"
       inkscape:label="Link Segment 3" />
    <path
       style="baseline-shift:baseline;display:inline;overflow:visible;vector-effect:none;fill:#ffffff;stroke-width:0.398375;stroke-linecap:square;stroke-miterlimit:0;enable-background:accumulate;stop-color:#000000"
       d="m 220.72744,141.12014 -1.6146,1.61475 c 0,5.56197 3.45744,12.14658 8.80206,19.23924 5.34463,7.09265 12.68081,14.62537 20.82998,21.55288 15.81829,13.44696 34.4734,24.69797 48.2293,25.35094 13.71452,51.10101 25.47278,89.50467 25.47278,129.78156 v 1.61476 h 3.22918 v -1.61476 c 0,-41.22288 -12.05212,-80.10981 -25.88819,-131.75207 l -1.55993,-1.19678 c -11.97491,0 -31.39899,-11.04852 -47.39258,-24.64449 -7.9968,-6.79798 -15.19198,-14.20181 -20.34222,-21.03649 -4.50556,-5.97914 -7.36597,-11.57461 -8.01159,-15.64469 58.88302,0.37849 95.53288,19.41239 117.59301,44.36393 22.28277,25.2034 29.73377,56.58194 29.73377,81.01401 v 1.61476 h 3.22922 v -1.61476 c 0,-25.08732 -7.61858,-57.2228 -30.54447,-83.15357 -22.92587,-25.93078 -61.1415,-45.48922 -121.76572,-45.48922 z"
       id="path18"
       inkscape:label="Link Segment 2" />
    <path
       style="baseline-shift:baseline;display:inline;overflow:visible;vector-effect:none;fill:#ffffff;stroke-width:0.398375;stroke-linecap:square;stroke-miterlimit:3;enable-background:accumulate;stop-color:#000000"
       d="m 308.58665,113.02998 c -28.20473,0.12334 -57.27569,10.18092 -88.66652,28.3063 l -1.39846,0.80738 1.61459,2.79724 1.39848,-0.80737 c 35.53298,-20.51712 67.6787,-30.38707 98.77456,-27.3282 30.92684,3.04226 60.98661,18.87879 92.51211,50.25363 -0.22966,12.50974 -6.92539,21 -17.3199,27.0641 -10.57736,6.17076 -24.93119,9.5956 -39.34064,11.33025 -28.81886,3.4693 -57.75457,0.26746 -57.75457,0.26746 l -1.79288,-0.19934 v 1.804 c 0,2.10815 0.86196,4.43077 2.26716,7.13608 1.4052,2.70529 3.40008,5.7587 5.85964,9.03847 4.91913,6.55951 11.69985,14.0143 19.29947,21.07182 7.5996,7.0575 16.01078,13.71184 24.21724,18.63621 4.93974,2.96415 9.79467,5.30142 14.40185,6.70716 -3.72485,1.46964 -7.27856,3.76833 -10.59744,6.67267 -5.83956,5.11011 -11.03364,12.0346 -15.40259,19.54452 -8.7379,15.01985 -14.21179,32.2405 -14.21179,42.52715 v 1.61476 h 3.22918 v -1.61476 c 0,-9.09052 5.29009,-26.31814 13.77452,-40.90229 4.24221,-7.29207 9.27392,-13.95851 14.73658,-18.73882 5.46262,-4.78032 11.29315,-7.64071 17.23578,-7.64071 v -3.22951 c -5.94263,0 -13.5649,-2.94461 -21.50437,-7.70881 -7.93952,-4.7642 -16.2125,-11.29712 -23.68244,-18.23422 -7.46994,-6.9371 -14.1442,-14.28432 -18.91264,-20.6429 -2.38421,-3.17928 -4.2913,-6.11396 -5.57707,-8.58937 -0.78625,-1.51365 -1.24071,-2.76699 -1.53891,-3.84767 5.30092,0.52141 30.18202,2.68287 56.33846,-0.46593 14.65325,-1.764 29.36216,-5.20189 40.58183,-11.7474 11.2197,-6.54549 18.96561,-16.45611 18.96561,-30.49379 v -0.66862 l -0.47264,-0.47349 c -32.05666,-32.06006 -63.01022,-48.53869 -94.99536,-51.68504 -3.99815,-0.3933 -8.00958,-0.57859 -12.03884,-0.56096 z"
       id="path19"
       inkscape:label="Link Segment 1" />
    <path
       id="path20"
       d="m 320.14366,344.92153 4.56677,15.98534 12.55859,-33.11249 -33.10904,12.55992 z"
       style="display:inline;fill:#ff0000;fill-opacity:1;fill-rule:nonzero;stroke:none;stroke-width:0.0398372"
       sodipodi:nodetypes="ccccc"
       inkscape:transform-center-x="-9.9575775"
       inkscape:transform-center-y="23.234326"
       inkscape:label="South" />
    <path
       id="path21"
       d="m 376.52618,273.66722 15.98367,-4.56725 -33.10905,-12.5599 12.55863,33.11248 z"
       style="display:inline;fill:#ff0000;fill-opacity:1;fill-rule:nonzero;stroke:none;stroke-width:0.0398372"
       sodipodi:nodetypes="ccccc"
       inkscape:transform-center-x="-23.234314"
       inkscape:transform-center-y="-9.957531"
       inkscape:label="Southeast" />
    <path
       id="path22"
       d="m 292.31061,207.82186 -4.03688,16.12731 27.43057,-22.39629 -34.95257,-5.67906 z"
       style="display:inline;fill:#ff0000;fill-opacity:1;fill-rule:nonzero;stroke:none;stroke-width:0.0398372"
       sodipodi:nodetypes="ccccc"
       inkscape:transform-center-x="-24.985802"
       inkscape:transform-center-y="37.617315"
       inkscape:label="Central-West" />
    <path
       id="path23"
       d="m 418.60596,165.9859 4.03689,-16.12733 -27.4306,22.3963 34.95262,5.67904 z"
       style="display:inline;fill:#ff0000;fill-opacity:1;fill-rule:nonzero;stroke:none;stroke-width:0.398375;stroke-dasharray:none"
       sodipodi:nodetypes="ccccc"
       inkscape:transform-center-x="24.985777"
       inkscape:transform-center-y="-37.617284"
       inkscape:label="Northeast" />
    <path
       id="path24"
       d="m 214.19261,140.35912 -11.55889,11.94802 34.95258,-5.67905 -27.4306,-22.3963 z"
       style="display:inline;fill:#ff0000;fill-opacity:1;fill-rule:nonzero;stroke:none;stroke-width:0.0398372"
       sodipodi:nodetypes="ccccc"
       inkscape:transform-center-x="-12.836776"
       inkscape:transform-center-y="7.7236449"
       inkscape:label="North" />
  </g>
  <metadata
     id="metadata1">
    <rdf:RDF>
      <cc:Work
         rdf:about="">
        <cc:license
           rdf:resource="http://creativecommons.org/licenses/by-nc-sa/4.0/" />
        <dc:creator>
          <cc:Agent>
            <dc:title>Daniel Vartanian</dc:title>
          </cc:Agent>
        </dc:creator>
        <dc:publisher>
          <cc:Agent>
            <dc:title>SIMBRA</dc:title>
          </cc:Agent>
        </dc:publisher>
      </cc:Work>
      <cc:License
         rdf:about="http://creativecommons.org/licenses/by-nc-sa/4.0/">
        <cc:permits
           rdf:resource="http://creativecommons.org/ns#Reproduction" />
        <cc:permits
           rdf:resource="http://creativecommons.org/ns#Distribution" />
        <cc:requires
           rdf:resource="http://creativecommons.org/ns#Notice" />
        <cc:requires
           rdf:resource="http://creativecommons.org/ns#Attribution" />
        <cc:prohibits
           rdf:resource="http://creativecommons.org/ns#CommercialUse" />
        <cc:permits
           rdf:resource="http://creativecommons.org/ns#DerivativeWorks" />
        <cc:requires
           rdf:resource="http://creativecommons.org/ns#ShareAlike" />
      </cc:License>
    </rdf:RDF>
  </metadata>
</svg>
