<?xml version="1.0" encoding="UTF-8" standalone="no"?>
<!-- Created with Inkscape (http://www.inkscape.org/) -->

<svg
   width="1000"
   height="400"
   viewBox="0 0 1000 400"
   version="1.1"
   id="svg1"
   inkscape:version="1.4.3 (0d15f75042, 2025-12-25)"
   sodipodi:docname="logo-tracing.svg"
   xml:space="preserve"
   inkscape:export-filename="logo.png"
   inkscape:export-xdpi="96"
   inkscape:export-ydpi="96"
   xmlns:inkscape="http://www.inkscape.org/namespaces/inkscape"
   xmlns:sodipodi="http://sodipodi.sourceforge.net/DTD/sodipodi-0.dtd"
   xmlns="http://www.w3.org/2000/svg"
   xmlns:svg="http://www.w3.org/2000/svg"
   xmlns:rdf="http://www.w3.org/1999/02/22-rdf-syntax-ns#"
   xmlns:cc="http://creativecommons.org/ns#"
   xmlns:dc="http://purl.org/dc/elements/1.1/"><title
     id="title1">SIMBRA</title><sodipodi:namedview
     id="namedview1"
     pagecolor="#ffffff"
     bordercolor="#000000"
     borderopacity="0.25"
     inkscape:showpageshadow="2"
     inkscape:pageopacity="0.0"
     inkscape:pagecheckerboard="0"
     inkscape:deskcolor="#d1d1d1"
     inkscape:document-units="px"
     inkscape:zoom="0.70710678"
     inkscape:cx="439.82042"
     inkscape:cy="313.2483"
     inkscape:window-width="1920"
     inkscape:window-height="1011"
     inkscape:window-x="0"
     inkscape:window-y="0"
     inkscape:window-maximized="1"
     inkscape:current-layer="layer4"
     showguides="true"
     guidecolor="#ff00ff"
     guideopacity="1"
     showgrid="true"
     inkscape:lockguides="false"><inkscape:grid
       id="grid1"
       units="px"
       originx="0"
       originy="0"
       spacingx="10"
       spacingy="10"
       empcolor="#00ffff"
       empopacity="0.50196078"
       color="#00ffff"
       opacity="0.25098039"
       empspacing="5"
       enabled="true"
       visible="true" /><sodipodi:guide
       position="450,116.72007"
       orientation="-1,0"
       id="guide6"
       inkscape:locked="false"
       inkscape:label=""
       inkscape:color="rgb(255,0,255)" /><sodipodi:guide
       position="425,219.81305"
       orientation="-1,0"
       id="guide7"
       inkscape:locked="false"
       inkscape:label=""
       inkscape:color="rgb(255,0,255)" /><sodipodi:guide
       position="1100,200"
       orientation="0,1"
       id="guide1"
       inkscape:locked="false"
       inkscape:label=""
       inkscape:color="rgb(255,0,255)" /></sodipodi:namedview><defs
     id="defs1"><rect
       x="450"
       y="400"
       width="503.55011"
       height="84.995087"
       id="rect10" /><rect
       x="450"
       y="400"
       width="500"
       height="150"
       id="rect9" /><inkscape:path-effect
       effect="roughen"
       id="path-effect9"
       is_visible="false"
       lpeversion="1.2"
       global_randomize="1;964689919"
       displace_x="5;936998185"
       displace_y="5;1601183165"
       method="segments"
       max_segment_size="25"
       segments="1"
       handles="rand"
       shift_nodes="true"
       fixed_displacement="false"
       spray_tool_friendly="false" /><inkscape:path-effect
       effect="offset"
       id="path-effect8"
       is_visible="true"
       lpeversion="1.3"
       linejoin_type="miter"
       unit="mm"
       offset="0"
       miter_limit="4"
       attempt_force_join="false"
       update_on_knot_move="true" /><inkscape:path-effect
       effect="powerstroke"
       message=""
       id="path-effect6"
       is_visible="true"
       lpeversion="1.3"
       scale_width="1"
       interpolator_type="CentripetalCatmullRom"
       interpolator_beta="0.2"
       start_linecap_type="zerowidth"
       end_linecap_type="zerowidth"
       offset_points="33.5,0.85082501"
       linejoin_type="round"
       miter_limit="4"
       not_jump="false"
       sort_points="true" /><inkscape:path-effect
       effect="transform_2pts"
       start="445.62223,807.66053"
       end="445.62444,807.48112"
       id="path-effect5"
       is_visible="true"
       lpeversion="1"
       first_knot="1"
       last_knot="4210"
       helper_size="3"
       stretch="1"
       offset="0"
       elastic="false"
       from_original_width="false"
       flip_vertical="false"
       flip_horizontal="false"
       lock_length="false"
       lock_angle="false" /><inkscape:path-effect
       effect="tiling"
       id="path-effect2"
       is_visible="true"
       lpeversion="1.3.1"
       unit="px"
       seed="1;1"
       lpesatellites=""
       num_rows="3"
       num_cols="3"
       gapx="0"
       gapy="0"
       offset="0"
       offset_type="false"
       scale="0"
       rotate="0"
       mirrorrowsx="false"
       mirrorrowsy="false"
       mirrorcolsx="false"
       mirrorcolsy="false"
       mirrortrans="false"
       shrink_interp="false"
       split_items="false"
       link_styles="false"
       interpolate_scalex="false"
       interpolate_scaley="true"
       interpolate_rotatex="false"
       interpolate_rotatey="true"
       random_scale="false"
       random_rotate="false"
       random_gap_y="false"
       random_gap_x="false"
       transformorigin="" /><inkscape:path-effect
       effect="roughen"
       id="path-effect1"
       is_visible="true"
       lpeversion="1.2"
       global_randomize="1;1"
       displace_x="5;1"
       displace_y="5;1"
       method="size"
       max_segment_size="14.945"
       segments="2"
       handles="along"
       shift_nodes="true"
       fixed_displacement="false"
       spray_tool_friendly="false" /><inkscape:path-effect
       effect="simplify"
       id="path-effect4"
       is_visible="true"
       lpeversion="1.3"
       threshold="7.5"
       steps="5"
       smooth_angles="0"
       helper_size="10"
       simplify_individual_paths="false"
       simplify_just_coalesce="false" /><inkscape:path-effect
       effect="simplify"
       id="path-effect3"
       is_visible="true"
       lpeversion="1.3"
       threshold="5"
       steps="1"
       smooth_angles="360"
       helper_size="10"
       simplify_individual_paths="false"
       simplify_just_coalesce="false" /><inkscape:path-effect
       effect="fill_between_many"
       method="bsplinespiro"
       autoreverse="false"
       close="false"
       join="false"
       linkedpaths="#path24-9,0,1"
       id="path-effect7"
       is_visible="true"
       lpeversion="0" /><clipPath
       clipPathUnits="userSpaceOnUse"
       id="clipPath4"><circle
         style="fill:#141414;fill-opacity:0.503824;stroke-width:3.35506;stroke-linecap:square;stroke-miterlimit:3"
         id="circle4"
         cx="500"
         cy="500"
         r="500"
         inkscape:label="Circle" /></clipPath><clipPath
       clipPathUnits="userSpaceOnUse"
       id="clipPath3"><circle
         style="fill:#141414;fill-opacity:0.503824;stroke-width:3.35506;stroke-linecap:square;stroke-miterlimit:3"
         id="circle3"
         cx="500"
         cy="500"
         r="500"
         inkscape:label="Circle" /></clipPath><clipPath
       clipPathUnits="userSpaceOnUse"
       id="clipPath2"><circle
         style="fill:#141414;fill-opacity:0.503824;stroke-width:3.35506;stroke-linecap:square;stroke-miterlimit:3"
         id="circle2"
         cx="500"
         cy="500"
         r="500"
         inkscape:label="Circle" /></clipPath><clipPath
       clipPathUnits="userSpaceOnUse"
       id="clipPath1"><circle
         style="fill:#141414;fill-opacity:0.503824;stroke-width:3.35506;stroke-linecap:square;stroke-miterlimit:3"
         id="circle1"
         cx="500"
         cy="500"
         r="500"
         inkscape:label="Circle" /></clipPath></defs><g
     inkscape:groupmode="layer"
     id="layer4"
     inkscape:label="Text"
     style="display:inline"><text
       xml:space="preserve"
       id="text9"
       style="font-style:normal;font-variant:normal;font-weight:bold;font-stretch:normal;font-size:27.4682px;line-height:1.25;font-family:'Inter 28pt';-inkscape-font-specification:'Inter 28pt Bold';text-align:center;letter-spacing:0px;word-spacing:0px;writing-mode:lr-tb;direction:ltr;white-space:pre;shape-inside:url(#rect10);display:inline;fill:#000000;fill-opacity:1;stroke:none;stroke-width:2.5;stroke-linecap:round;stroke-miterlimit:0;stroke-dasharray:none"
       x="-1647.1147"
       y="0"
       transform="matrix(1.1427478,0,0,1.1427478,-65.523465,-232.39281)"
       inkscape:label="Simpósio Interdisciplinar Brasileieo de Modelos Baseados em Agentes"><tspan
         x="450"
         y="425.42582"
         id="tspan3"><tspan
           style="font-weight:500;font-family:Montserrat;-inkscape-font-specification:'Montserrat Medium';text-align:start"
           id="tspan2">Simpósio Interdisciplinar Brasileiro
</tspan></tspan><tspan
         x="450"
         y="459.94105"
         id="tspan5"><tspan
           dx="0 0 -0.16626717 0.16626669 0 0 0 0 0 0 -0.1662605 0.16626288 0 0 0 0 0 0 0 -0.16629101 0.16627814 0 -0.16626526 0.16624762"
           style="font-weight:500;font-family:Montserrat;-inkscape-font-specification:'Montserrat Medium';letter-spacing:0.131263px;word-spacing:0.166266px"
           id="tspan4">de Modelos Baseados em Agentes</tspan></tspan></text><text
       xml:space="preserve"
       style="font-weight:bold;font-size:130.085px;font-family:Oswald;-inkscape-font-specification:'Oswald Bold';text-align:start;letter-spacing:0px;word-spacing:0px;writing-mode:lr-tb;direction:ltr;text-anchor:start;display:inline;fill:#000000;fill-opacity:1;stroke:none;stroke-width:2.43908;stroke-linecap:round;stroke-miterlimit:0;stroke-dasharray:none"
       x="447.26822"
       y="199.98926"
       id="text1"
       inkscape:label="SIMBRA"><tspan
         sodipodi:role="line"
         id="tspan1"
         x="447.26822"
         y="199.98926"
         style="font-style:normal;font-variant:normal;font-weight:800;font-stretch:normal;font-size:130.085px;font-family:Montserrat;-inkscape-font-specification:'Montserrat Ultra-Bold';letter-spacing:0px;fill:#000000;stroke:none;stroke-width:2.43908;stroke-linecap:round;stroke-dasharray:none"><tspan
   style="fill:#000000;stroke-width:2.43908"
   id="tspan21">S</tspan><tspan
   style="fill:#000000;stroke-width:2.43908"
   id="tspan19">I</tspan><tspan
   style="fill:#000000;stroke-width:2.43908"
   id="tspan20">M</tspan><tspan
   style="fill:#000000;stroke-width:2.43908"
   id="tspan22">B</tspan>RA</tspan></text></g><metadata
     id="metadata1"><rdf:RDF><cc:Work
         rdf:about=""><cc:license
           rdf:resource="http://creativecommons.org/licenses/by-nc-sa/4.0/" /><dc:title>SIMBRA</dc:title></cc:Work><cc:License
         rdf:about="http://creativecommons.org/licenses/by-nc-sa/4.0/"><cc:permits
           rdf:resource="http://creativecommons.org/ns#Reproduction" /><cc:permits
           rdf:resource="http://creativecommons.org/ns#Distribution" /><cc:requires
           rdf:resource="http://creativecommons.org/ns#Notice" /><cc:requires
           rdf:resource="http://creativecommons.org/ns#Attribution" /><cc:prohibits
           rdf:resource="http://creativecommons.org/ns#CommercialUse" /><cc:permits
           rdf:resource="http://creativecommons.org/ns#DerivativeWorks" /><cc:requires
           rdf:resource="http://creativecommons.org/ns#ShareAlike" /></cc:License></rdf:RDF></metadata><g
     inkscape:groupmode="layer"
     id="layer12"
     inkscape:label="Symbol"
     style="display:inline"><g
       inkscape:groupmode="layer"
       id="layer17"
       inkscape:label="Background"
       style="display:inline"><circle
         style="display:inline;fill:#ffd000;fill-opacity:1;stroke-width:1.34202;stroke-linecap:square;stroke-miterlimit:3"
         id="circle4-9-3"
         cx="200"
         cy="200"
         r="200"
         inkscape:label="Background" /></g><g
       inkscape:groupmode="layer"
       id="layer16"
       inkscape:label="Brazil"><path
         d="m 178.02826,331.75151 5.84526,6.22863 11.68415,6.43634 8.0299,6.32632 4.28935,4.71326 2.30465,3.72157 8.7649,-10.24688 8.60275,-10.29977 6.94838,-9.50504 7.74089,-8.43998 1.06351,-13.08229 3.80919,-12.2048 10.2264,-7.53734 11.16645,-5.85943 12.80476,-4.03364 13.67664,-2.79718 6.94892,-10.5339 6.20516,-11.31972 3.85508,-11.26778 4.89592,-11.43888 -0.62036,-13.13851 -0.52924,-10.34002 7.38136,-11.01451 8.19368,-10.84509 6.5704,-8.23215 6.43816,-8.34768 3.15688,-10.25944 -1.30052,-11.89485 -6.58816,-9.37451 -9.9004,-1.97264 -7.83716,-5.64797 -7.94476,-7.48043 -7.77752,-1.92077 -10.37676,-0.37352 -9.06584,-2.30042 -8.37184,-1.46968 -7.29193,-7.23355 -10.36992,-4.08534 -12.96689,-3.54455 -11.16126,-4.184471 -3.40878,-11.427791 -5.91294,-5.57506 -1.9435,-6.330664 -3.51301,-8.543176 -4.73178,3.10848 -7.36792,9.09054 -12.0509,1.369784 -11.84283,-0.06216 -11.56556,3.972584 -9.21654,2.382636 -7.17353,-3.993352 -0.23283,-11.633404 -1.24688,-11.190596 -7.95788,3.19582 -9.11468,2.1792 -10.42619,2.902019 -8.04532,-0.768539 3.77252,7.884312 3.74041,7.507992 -12.1607,8.292208 -11.52898,-1.613632 -4.708686,-6.175212 -6.45237,0.700292 -9.5468,2.19284 0.650976,6.636452 -4.750952,4.936211 2.452192,6.248127 1.742028,13.68998 -4.582424,12.07475 -12.347132,4.50139 -10.319936,7.37603 -4.197888,12.81657 2.33146,12.23159 4.884552,7.08386 8.822556,4.38946 6.514052,-0.60392 0.48042,6.97822 12.114608,0.38167 12.260376,-3.2625 11.073708,-4.7811 3.55132,8.02727 6.29197,10.47397 13.36587,5.40042 11.41365,4.7557 7.22997,9.16031 2.34443,10.8541 10.76326,2.77843 4.56917,7.61055 3.06709,7.33099 -2.80279,12.81428 2.37933,14.08041 8.82311,3.12115 7.72619,8.81835 5.48894,5.82999 4.02737,6.58575 2.36375,8.42094 0.85889,9.43987 -8.36502,4.96388 -7.78735,4.0035 -6.35362,8.02543 z"
         style="display:inline;fill:#183eff;fill-rule:nonzero;stroke:#000000;stroke-width:2.9878;stroke-linecap:square;stroke-linejoin:miter;stroke-dasharray:none"
         id="path24-9-0"
         inkscape:label="Brazil"
         inkscape:linked-fill="path7" /></g><g
       inkscape:groupmode="layer"
       id="layer14"
       inkscape:label="Links"><path
         style="baseline-shift:baseline;display:inline;overflow:visible;vector-effect:none;fill:#ffffff;stroke-width:0.398374;stroke-linecap:square;stroke-miterlimit:0;enable-background:accumulate;stop-color:#000000"
         d="m 296.5422,157.75791 v 1.4939 c 0,24.79873 -2.50368,48.58451 -8.6296,65.98213 -3.06296,8.6988 -7.02824,15.78188 -11.93407,20.62826 -4.90584,4.84637 -10.69202,7.50529 -17.77973,7.50529 h -1.49391 v 2.98779 h 1.49391 c 7.85126,0 14.51425,-3.06769 19.87897,-8.36738 5.36471,-5.29969 9.49139,-12.78214 12.65303,-21.76114 6.32324,-17.95802 8.7992,-41.97703 8.7992,-66.97495 v -1.4939 z"
         id="path12-8"
         inkscape:label="Link Segment 3" /><path
         style="baseline-shift:baseline;display:inline;overflow:visible;vector-effect:none;fill:#ffffff;stroke-width:0.398374;stroke-linecap:square;stroke-miterlimit:0;enable-background:accumulate;stop-color:#000000"
         d="m 118.76816,135.84739 -1.4939,1.49389 c 0,5.14566 3.19898,11.23742 8.14408,17.7992 4.9451,6.56177 11.73288,13.53067 19.27287,19.93966 14.63583,12.44047 31.89641,22.84935 44.62402,23.45345 12.68932,47.27614 23.56861,82.80532 23.56861,120.06752 v 1.49389 h 2.98779 v -1.49389 c 0,-38.13738 -11.15119,-74.11366 -23.95297,-121.89054 l -1.44332,-1.1072 c -11.07975,0 -29.05182,-10.22155 -43.84984,-22.79987 -7.39902,-6.28916 -14.05634,-13.13882 -18.82158,-19.46193 -4.16876,-5.53161 -6.81534,-10.70826 -7.4127,-14.4737 54.48134,0.35016 88.39151,17.95939 108.80258,41.04333 20.61708,23.31694 27.51109,52.34683 27.51109,74.95018 v 1.4939 h 2.9878 v -1.4939 c 0,-23.20956 -7.04906,-52.93972 -28.26116,-76.9296 -21.21209,-23.98988 -56.57099,-42.08439 -112.66337,-42.08439 z"
         id="path11-6"
         inkscape:label="Link Segment 2" /><path
         style="baseline-shift:baseline;display:inline;overflow:visible;vector-effect:none;fill:#ffffff;stroke-width:0.398374;stroke-linecap:square;stroke-miterlimit:3;enable-background:accumulate;stop-color:#000000"
         d="m 200.05963,109.85976 c -26.09634,0.1141 -52.99416,9.41888 -82.03843,26.18759 l -1.29392,0.74695 1.49389,2.58787 1.29394,-0.74694 c 32.87679,-18.98143 62.61952,-28.11262 91.39087,-25.2827 28.61498,2.81454 56.42768,17.46572 85.59654,46.49218 -0.21248,11.5734 -6.40768,19.42817 -16.02516,25.03838 -9.78668,5.70888 -23.06752,8.87738 -36.39982,10.48219 -26.66457,3.20963 -53.43725,0.24744 -53.43725,0.24744 l -1.65885,-0.18442 v 1.66897 c 0,1.95036 0.79752,4.09913 2.09768,6.60195 1.30016,2.5028 3.14591,5.32767 5.42161,8.36195 4.55142,6.06854 10.82526,12.96534 17.85678,19.49461 7.03151,6.52926 14.81393,12.68552 22.40693,17.24131 4.57047,2.74228 9.0625,4.90461 13.32527,6.20513 -3.44642,1.35964 -6.73445,3.48628 -9.80527,6.17323 -5.403,4.72762 -10.20882,11.13382 -14.25118,18.08163 -8.08472,13.89563 -13.14942,29.82733 -13.14942,39.34403 v 1.49389 h 2.98779 v -1.49389 c 0,-8.41011 4.89464,-24.34825 12.74483,-37.84079 3.9251,-6.74627 8.58066,-12.91373 13.63496,-17.33624 5.05428,-4.42251 10.44899,-7.0688 15.94738,-7.0688 v -2.98779 c -5.49839,0 -12.55088,-2.72421 -19.89688,-7.13181 -7.346,-4.4076 -15.00055,-10.45154 -21.91209,-16.8694 -6.91154,-6.41787 -13.08687,-13.21516 -17.49886,-19.0978 -2.20598,-2.94131 -3.97051,-5.65634 -5.16017,-7.94646 -0.72747,-1.40036 -1.14796,-2.55989 -1.42387,-3.55968 4.90466,0.48238 27.92582,2.48206 52.12698,-0.43105 13.5579,-1.63197 27.16725,-4.81254 37.54821,-10.86812 10.381,-6.05557 17.54788,-15.22439 17.54788,-28.21136 v -0.61857 l -0.43728,-0.43805 c -29.66036,-29.66039 -58.30002,-44.90561 -87.89419,-47.81646 -3.69927,-0.36386 -7.41084,-0.53528 -11.1389,-0.51897 z"
         id="path2-8"
         inkscape:label="Link Segment 1" /></g><g
       inkscape:groupmode="layer"
       id="layer13"
       inkscape:label="Arrows"><path
         id="path1-2-6-4"
         d="m 210.75272,324.39442 4.22539,14.78885 11.6198,-30.63405 -30.63404,11.61982 z"
         style="display:inline;fill:#ff0000;fill-opacity:1;fill-rule:nonzero;stroke:none;stroke-width:0.0398372"
         sodipodi:nodetypes="ccccc"
         inkscape:transform-center-x="-3.9968068"
         inkscape:transform-center-y="9.3258861"
         inkscape:label="South" /><path
         id="path1-2-1-3"
         d="m 262.92048,258.47343 14.78885,-4.22539 -30.63405,-11.6198 11.61982,30.63404 z"
         style="display:inline;fill:#ff0000;fill-opacity:1;fill-rule:nonzero;stroke:none;stroke-width:0.0398372"
         sodipodi:nodetypes="ccccc"
         inkscape:transform-center-x="-9.325883"
         inkscape:transform-center-y="-3.9968024"
         inkscape:label="Southeast" /><path
         id="path1-2-1-4-1-1"
         d="m 185.00028,197.55654 -3.73512,14.9202 25.38006,-20.71995 -32.33977,-5.25398 z"
         style="display:inline;fill:#ff0000;fill-opacity:1;fill-rule:nonzero;stroke:none;stroke-width:0.0398372"
         sodipodi:nodetypes="ccccc"
         inkscape:transform-center-x="-10.028899"
         inkscape:transform-center-y="15.098993"
         inkscape:label="Central-West" /><path
         id="path1-2-1-4-4"
         d="m 301.85468,158.85197 3.73512,-14.92021 -25.38008,20.71995 32.3398,5.25397 z"
         style="display:inline;fill:#ff0000;fill-opacity:1;fill-rule:nonzero;stroke:none;stroke-width:0.398374;stroke-dasharray:none"
         sodipodi:nodetypes="ccccc"
         inkscape:transform-center-x="10.0289"
         inkscape:transform-center-y="-15.098989"
         inkscape:label="Northeast" /><path
         id="path1-2-9"
         d="m 112.72183,135.14333 -10.69483,11.05372 32.33977,-5.25397 -25.38008,-20.71996 z"
         style="display:inline;fill:#ff0000;fill-opacity:1;fill-rule:nonzero;stroke:none;stroke-width:0.0398372"
         sodipodi:nodetypes="ccccc"
         inkscape:transform-center-x="-5.1524728"
         inkscape:transform-center-y="3.1001452"
         inkscape:label="North" /></g></g></svg>
